<mxfile host="app.diagrams.net" modified="2022-04-14T11:33:21.479Z" agent="5.0 (Windows NT 10.0; Win64; x64) AppleWebKit/537.36 (KHTML, like Gecko) Chrome/100.0.4896.88 Safari/537.36" etag="sf7KxaFPdQ9-E7nacz_D" version="17.4.3" type="github">
  <diagram id="T3dAdBuyCvZnQXOTRs65" name="第 1 页">
    <mxGraphModel dx="677" dy="1528" grid="1" gridSize="10" guides="1" tooltips="0" connect="0" arrows="0" fold="1" page="1" pageScale="1" pageWidth="827" pageHeight="1169" math="0" shadow="0">
      <root>
        <mxCell id="0" />
        <mxCell id="1" parent="0" />
        <mxCell id="gVNQZNhaFQQdqfOZjz-5-1" value="" style="rounded=0;whiteSpace=wrap;html=1;direction=east;" vertex="1" parent="1">
          <mxGeometry y="50" width="900" height="300" as="geometry" />
        </mxCell>
        <mxCell id="gVNQZNhaFQQdqfOZjz-5-2" value="" style="endArrow=none;html=1;rounded=0;" edge="1" parent="1">
          <mxGeometry width="50" height="50" relative="1" as="geometry">
            <mxPoint x="300" y="50" as="sourcePoint" />
            <mxPoint x="300" y="350" as="targetPoint" />
            <Array as="points">
              <mxPoint x="300" y="200" />
            </Array>
          </mxGeometry>
        </mxCell>
        <mxCell id="gVNQZNhaFQQdqfOZjz-5-3" value="" style="endArrow=none;html=1;rounded=0;" edge="1" parent="1">
          <mxGeometry width="50" height="50" relative="1" as="geometry">
            <mxPoint x="600" y="50" as="sourcePoint" />
            <mxPoint x="600" y="350" as="targetPoint" />
          </mxGeometry>
        </mxCell>
        <mxCell id="gVNQZNhaFQQdqfOZjz-5-6" value="" style="shape=image;imageAspect=0;aspect=fixed;verticalLabelPosition=bottom;verticalAlign=top;image=data:image/png,iVBORw0KGgoAAAANSUhEUgAAAMgAAADICAYAAACtWK6eAAAAAXNSR0IArs4c6QAAIABJREFUeF7tXQl0G9W5/v6RRoEsEBY77N1ooQ1QEktOWJtYSiCBQGM5tszWspT2QUvpIZTShDwHEqAltBRK2V5pWIrl2HLKmiaW5BBKIJbMFiilNO0r0DSxCQ1ktWY0/zujLC+Ll7nSSJqRZ87JIcH/+t35PHPv3Pv/BOfKGwL/qRrzuZTk/jIxjySWRmqSdoj+X0D/N0Yy4RAAIwk0ksGZv+8MZiMIG8HYCGAjARtBvJFBG6HhU/2/TNpGCbQxDemDI2Or/py3JAa5YRrk+ZuSfvekMUdpmms0E06SGKMBGg3wSQANN8XBwEbSAN5m4G1iWk0S3nYhvfrQaOcHA6s6Ev0h4BBE8P74d8A7wcXIkIGYRhMwmoFDBc0USvwznTgEWs2svZ2W8PaR0eTyQjkvBT8OQQYYxU8CFQcrLJ1PwPlgnAfCCDsPvP66xsDTzPS01CNHy15+eZOd88l37A5BekF4g3/c11Tw+WCeTAR/vgehmPaZ8AyYXyDJFS9vW/V+MWOxom+HIDtHpds/biJDm0RAgAGfFQerADG9RECUSYqXR1f9qQD+LO9iUBNkbWDsV93svgTgGgBfsfxoFTbA90DcQiw9Xhbr+GthXVvH26AkiD7RdrOkE+NSBjzWGQ7rRcLANon4MY2lx0fFOl6xXoT5jWhQEaTL76vTSQHQefmFtUStE5o1psePiHU8V6IZ7pdWyRNk43lnHpLa3nMpAP2Pd7AMbD7zZCDuInrs8GjH4/n0YwXbJUuQPeYXOjGOtQLYJRjDm0T0WA/j8WNiHRtKMD+UHEE+CVQcp8J1IzFf7cwvCnbLfgSmX7+jDb174vLlasG8FsBRSRGky++7DsCNAI4pAHaOi30QYKCDmBaUxzuaSwWckiBIV5V3ChHNZKCqVAbG5nmEVYnuPqqtI2nzPOz9irW+quJLErluZPB37T4QpRY/AykC7h7idi84eOkrn9g1P9s+Qdb7fTfQjtepUXYFfzDETYS/QKO7y+Id/2PHfG1HkO4q3zSmDDHOsiPggzjmJRLTgsPjHXE7YWAbgvxjwqkjh7k8dwN8hZ0AdmLdGwEC3VUW6/ixXXCxBUHWT6z8Orn4fjDOsAuwTpz9IrDE46JrRy7r+IfVcbI8QdYFvBdKTPoX24OsDqYTnxACH4LpBqsvCVuaIOv8vh9KwD1CsDvCtkKAgVtHxRL/bdWgLUuQrkDlfWD+vlWBc+IyFYFIeSyhHzmw3GU5gnSfU3Gkpkpt+llvy6HlBJRPBN7TXD0VRyx7a0s+nYjathRBNgTGjU+zNujOHIgOWinLk4QJZW2JF62So2UI0lVVeROI77QKME4cxUOAgZmjYom7ixfB/3u2BEG6/L4lAM61AiBODNZAgJnnjoonG4odTdEJ0hWoXKpXDyk2EI5/6yFgBZIUlSDdft8zDEyz3tA4EVkFgWKTpGgE6fL7WgAErTIQThzWRaCYJCkKQdZX+X5PhIusOyROZFZDgJgbyuLJuYWOq+AE6aryPQrC5YVO1PFnfwSKQZKCEmR9wPsAMX3P/kPlZFAsBAr9ulUwgnQHfL9kxvXFAtbxWzoIFJIkBSFIV8B3Jxg3lc4QOZkUG4FCkSTvBOn2++YyMKfYgDr+Sw+BQmxLyTtB1gd81cSIlN7wOBlZAYEDQIcflMeidXkniA5il9/XDmCCFQB1Yig5BP5eHkt8KV9ZFYQg6wIVJ0ssvZWvJBy7gx0B/m15LHlVPlAoCEH0wNcHfA8T4zv5SMKx6SDAhGtGRRMPmI1EwQjCU6YM6U59vN3sBBx7DgK7EWCeWh5P6jvDTbsKRhA94u6A90Zm+rlp0TuGHAT2RkBJQzrVzL7xBSXIzgn7h05xaee+ziMCy9Wh2nlHPdu51QwfBSfI+qrK6UTcakbwjg0HgT4QWFgeS5iy36/gBNnxFPHGAZroDK+DQL4QMOtLe1EIsm6C9yTJRavzBY5j10EAwBZIOLO8LfFGLmjkTBDfounnJmoX/1E0iPV+30MEXC2q58g7CBhFgBlPjYonLjYq35tcTgTxhmtCAF+fDEXGiwbRPmGCe7RriyKq58g7CAghwFSbS3nTHAkSfBfAiQS+NhFq/Y1Q4JllX99MZtwlqufIOwgYRYCARFksUWlUfl+5rAlSEQ7+hIA7dINE6NpK0pfeqW3eLBpIt9/3TwaOE9Vz5B0EDCPANLs83jHfsPweglkRpHLRjC9omvZnAAfsssWEBZ11Eb2xjdD1cWDchRprfxBScoQdBMQQ+LQsPexwyqIDb1YE8TYFHwBjv6OzLEmndNY2C69Orff7YuQ04BQbckdaEAF6tDzWcaWgkngTz7FPTa+SJCnWh6PWZCgiXMrn48kVJ2ppSZ/POJeDQN4QINAJZbGOv4o4EH6CeJtqloC5nzKh9M1kqOVpkSB02fX+ygfJ6VYrCpsjL4bA8vJYQugDtRBBvI3VV4JooG6lrydDkbFice+Q7vL7OBs9R8dBQACBKeWxhOHvdoYJcurib45097j01gQnDhwM/SgZahHuDNXt993AwIKB7dtfgoAUgO0ao4cI+jGA7bz777QdYNX+WVozA5GniGGCeMPBeQBmGUz5U9Y8x3de1PixQfndYt3+yv9l8OdE9awtz++C9a019JoEJLhHTpS9/PIma8fsRKcjYIgg3pbgGKhYueey7sDw8X3JUOt1A8vtLdHtrzyfwc+K6llMfgkR4hpoNUvu149YtrLLYvE54RhEwBBBfOGaBQy+waDN3WISw9dRH0mK6nX7fW0MBET1iiy/BERL4HItKV/6yt+KHIvj3iQEBiRIZu6Rcq0G4xhRnwQ8lwhFhNsbdJ1z2vFQ1fdF/RVDnoBnAXq4LNbxXDH8Oz7zi8CABPGGa74L8IPZhsGg2s5QS7OovuXr+BItI8Z9DjFER9Ze8gYIEsypphUDf+4MRbLqWGvRZd81xLSgLN6R9S8Ne90igzvafgnia6zxM3E0V4iY6Sed9S0/E7XTHfD+iJl+IaqXL3kiLNBYWjAqtmp9vnw4dq2FQL8EqWgMPkxkSi2rbS6Zv7Iq2PqRaPpdft8/AHxeVM9MeQa/BeYbR8U7l5lp17FlfQT6JEjFohnHkcarAT7InDTooWSoRbg3SFeVdwqIXjAnBnErRPSExnSj89QQx64UNPokiDcc1Leum1vDivjMZF3ry6LAdfl9+m/uSaJ6ucoz48ZR8cSg+LKfK1alqt8nQXxNNUlmrjA1cea2ZH2rcMvndZMrvyCl+e+mxjKAMQJNc1aoCom4NX31SpCKpuA3ibE4HyGThksTF0WeFLXd5ffdD+AaUb1s5EmTvGXtqzqz0c1W56zbN5XJnD5W11fI9eFLPx3Rna2tbPSUNvegr74vT1KX74tdrwTxNgbDINRlA7QBnb9tk6TR79Q265v1hK5CLPuSWzuqbGnnv4UCMyg8o4E9n7i2VDHhGyAcw4RjiPlYgPSPsEP2MdMD8EdM9CExPgLjI2K8eGh6WLy5gYSxMxKiEvPcBeaZRmRLT4Z/KgfUzBHyPa/9COJrvPBYJvcH+QSAiOYk6lpuE/XRFaj8AZjvFdUzKl8eSwz4XciorV1yVfO3jCXWzmSiAAhTwXCJ2thnxNJgvEDMUSbpT/FZw17Lyd4+ympMfoQZeWklYGac5tui5+RAar9dH70QpLqOicLmB7CXRU1N48Q3Lo4Ibyfp8vv0ucgXzI6PJL6wrC35jBl2GxpYWiFvuhGQvgXgq2bY7MfGu4D22NnKiLsaGkgzw5cadTczqMYMW3axQcAGRXF5D5yy/X/7fYJUhIP3EPDDfCfGwMLOUES4fuoGv3dSGmTu9wjCz8qjiZ+YkfPEeZuCEmEmg4RrheXin8CvaowF7bNH5Nzujv+EEep2Wa+fbLcNo7lACGZc4Zmk/K5fgnjDwQ4Avpw8GVQmpkCivqWv8+19WukKeJeCSXg1rA+Dj5XHEt82GHKfYhNv3fx1ckF/f78kV1s56j/JaSxonzP8zVzsbI0deLTMqk6SrGtK5eK/GLpEeMTtV/aq9rnXK9aYxguOcpH8r4IFR/Risq5FePVkw2Tfsek0zJgnveYmrerQaOenueRcddumBkikk2NYLnZM1N0CjRfEbxnRkItNbvecmE7zHxkosQNsvaPCwDuegHJSn0+QnaVEG3MBVViXcGWyLvKoqF5XlfdeEP1AVG8veY3PK29PZv2VfsYidm14f3MzQNNziiNvyrz4sC8Pn9FcS+lsXagx+SpmPJKtvt303BK8VKXsXuLf6wlSEa65n8AF+dawB3AfutQDTlp1ye8/EwUzt2Vfur081mH0CPF+oQVu3Xyy5qLFAOetw6ooHr3L0xopzdOjc4YL1yvbZU+JyosAzDAnHotbIb5Z9qt37opyL4J4w8HXAZxahBTmJ0OR2aJ+1/t91xCgf0AUvVaUHfr5Kmpuzuo368T5m2oJ1CTqtJjyDK5rnzVCv9GFL456TlHBKwAcLKxsP4WoHFB2b2vaTZAxi2aUuTStaGenc6jKuIaALwqOg1Dplz1t75xv/LegP2uIazw323mJ0uaeCaLSLzTO2OoOKCOIkFky300Qb1MwCEZLsUaSgKcSoYhwL4d1VZVVErHAShg/Xh5L6t8nhK8J87aOl0jTSx/Z9tJYOm357KGvZpOAGvMsZWazVg+zCaEwOsznypPUpXsTJFx9L5DjpDfH8DXQtNdCLcJnu7v8Pn2iPWUg90RIQdNOK4t3Cn99njxv67EqaWasnA0UZt5/7mbpuGWzh+rNVIUuJeY+G0wvCinZU/huOaBkttzsfoJUhINvEPD1YuZDwKuJUOQ00Ri6z6k4klVp7UB6zFgwKp4QrkC/48v41pUAjxvIhz1+TqvOVoaens2X91RM/j0xLrJHnllH2SEHlMxYZwhy2qIZByqaZkrb3KxD2qlIoGsToRbhZjzrqyp/QcQ/6tM/oTulSmOPWb5K+FRj1bwtD4P4O7nmZil9pkfis4cJt8BT21znMUnCT3lL5T5wMJ/JASWzIJEhyNiW4CmSipy+vA7s06gErXdpqa+vuugZ4XPf/S37EvGDZdHkfxmNYpecrSflAyZLDfFZw+YOKLaPgBKVXwJwpqieneTdmnw0Td66NkMQb2N1DYiES/PkMeG7kqHIj0Xtdwd8VzPjod70JMKkw6MJoQIUO7eP6CcgrfKFXBSS/uUZn2gu97jlNx8gVOgu1Sb/FxGEn/LmBp9na8R+2a/GMwTxNVXfzEy359mlkHkCVyZCrQkhJb1CfJX3fRAdv6ceA6+OiiWE5zZV8zc/YYG9VaIQCMrzffFZI4RKxHIbDlZIfotKuHWeBFzrCii/2fEECVc/CpDwzlrBkRAVjyRDEeEt111VvrNB2GulJZuz5fquXCIq2rK3KFi5yHM6Pb59zsGrRGwoMc8dYDZlB7SI30LJEuE+t1+5bgdBmmpeArP13imZZyTrW4Vv0m6/7xkGdh9+Ee0spK9avSRvfrnQW9YLNfj7+mHG79tnDxfahdzT5jlZIn6rWDEXwG+bHFAm73yC1KwDeFQBnIq6eC0ZiggXjlg3+fRyKa3smuQLdxWqmv/ZTYC0ez+OaND2lKep8VnDlojErkRl/RXYK6JjF1kCPnQHlOOoYtGMg0nTNlo1cNZ4ZudFrXeLxtftr/w5g28kYE5ZLCF0vLdq3qa/gOgEUZ92ls/mKZKKyg8S8F07591f7O60MpwqG4NejSA8GS4gKBvTaT719Ytb/ynqU1/2ZcYZo+IJvbeJoSswb+t4zebbSQwlut97Fj4Zpn527LMNRxn+HpaKyVdRCW+FZ33ru7cpWA/GU1mBWiAlItybqIsIHwPuCnivKI8mhc6aVM3fMgtgvZvWoLsIXB+bNcJwPYKepZ4TJReXbHdiAl1CvnBwDgPCH4sKffcQ8TcSda36luu8XlXzN+vfSvx5dWJR49m8ZqlR+Z9cqsu9RPP0J8gT4KKfox74liE8m6yLXDCwYPYSU+7lIT2btuivGFL2VmysyfgkPnv4YSIZlHIFFAK3kDcc1L8ZnC0CSrFkiXBpok68KqPReP23bzmf2fb9EY2m26scAZNjs4a3GTWSisr6t4JfGZW3mdxL5G2sXgki4a/MRUr0HVmSfK/UNm/Lh/+qeZvvAKFkP34ZwoxxZ3z28JsNyeplUtvcZ4JI35tViter+hPEbmvZs5OhyPx8jMbg2FoyIHJPxmcNv3RAqZ0CHPeMVjV+26i8reQIneRtDL4Jwik2CnwbJGlMsrb5PbNjnnj75nZiCJchMjuOYtpjwvL2nw6faDSGnfWzhI8QGLVfZLm39CfInwtQHtPUPPUyNJ31EeGzDAMFUTV/098AsniVkoGyyPXnvCY+a8Remz37s8hJDFU3ylty9WpFfWb8RSeIXh/XMCBWSYRB53SGWkwtQVo1f/P2XqqsWyXlQsXRE581/AARZ0qb3AOCR0THDrIMrNEJohfrtWPlvGXJUOQcs4De0Z+DilbVxaw8zLCjEJeL9CdRo/I6Bqy4ly8nOAj4QJ+DrAXhyJwsFUlZY1z9Wn3ElKp/VfM3jgXcBW2aUyTYDLhVK+KzRhoubKFE5b8AKLm9awT6N3nDNd0AH24ANSuK/K0nPaRy9cVP/SfX4ByC7ImgMEH0UkgFrWaf63gb0SfCx/orlr6T17YV84hpXqK+5RYjCfcn47xi/T86oq9YSlROAhA+lpDrmOVdn/GZThB9a8WBeXeWPwdpSqe9iYv/8EauLpxJegZB4Um6GnX/i0FH5Yq/BfW36QRRALgtGJxISE8kQ5HLRBR6k3WWeXVUxJZ5dQ0lKnOu2FtUX9U3K24H79dA0qLx9hOWxBcma1tzaqHmfCgERD8U8gocqabkAYv22e+GykS8XX+CrIF48Wfr5ZtlM549E3G2mmTQENpqkorLFaRBn4OU4vWefh5kBQNnlUJ2DL6uM9R6X7a5OJsV9Tcssc2KatR1PkN6NlvMLa3HtIy84epGgEKWDtR4cB+wzOM7g61Z9Tn337b5XJYgVLjAeGj2kNQ0nrj8lhHLjUabispXE3ov1mfUhlXl9C1NVBGuXkCgG6wapGhcTFjQWRcRLlCt+5nRwJ4Nni1bc+5lLhq0ReQZ6G6fNbxcJJyeNneDRGTPfikDJsqz9C/pPwLhFwPK2khAA5/2Wqg1qx4YVfM36xP9/RrK2yj9rENl8G/aZ424VsRAKdfpzZxJrwjXzCBwVq25RIAspCwBzYlQpDYbn/55m65jolI9IdcvJEQ0LfbTYYYrt3M7RqppOeddDNmMU0F0mM8iX2PN6UysF2guqYsIdYm6iDDxq+ZvGQvwoNuTpb9esTLsuOUNpO9oNnT1RD3flMCLDQnbUEhJu4+jMZHqz7kU0nf0ltbF3PEFl+v05lrxRp1V8zfb7oxMroNHoMdjs4YJtaZTYvI9YAiXY8o11gLpp+WA4qYJ7RPcm9cfpn9NL8Xrx8lQRLjxpFN61NitoMTkt8EYbUzaXlIE/N0dUL60q7r7OoBKbj8/wOspTacnLo78XWR4nOLVA6OVWiafShL0tuGlerXLAaVqJ0GC+jv32JLMlHF/sj7yfdHcnPYH/SOWapOvJ8IvRXG1izwDCz0B5fIdDXQagwuZIPT+aZdEM3EyTUzWtxj++LUrt8Gx9US8gY6OT6pNfpUIJdLUdP+7WWOeO2SS2rCzBVvwChB+a6ubXiTYLKsyOi3Yege5Z5mnXpLY0vWcRW6P3mV5ihxQ/5ghSGV4+lc0SKaX0ck9SPMssIZvd14UeUzUYkk38dR4bvyWEQ2imChtnqUgniyqZyd5N5TDKYANu/uk+8LBjxg42k5JCMb6Vio19PS3LntCuERN1fxNrQBNF/RncXFeHJ81olo0SHWZaypL0vOiejaTf08OKCfqMe8miLcx+BQI9TZLRChcIpqTqGsRaqajO5ixiF0b3t/6HsAlUjOL1hz25aEnNNdSWgjAHYej9I+vM0T17CTPwOOegJKZk+/xBKm+hkH32ymRLGL91CVJp6+qbdY/BApdgVs3n6y5UBI9+aQ0TonOGb5aCACdHHH3GdDoT6J6dpNn4FpPQMm0ud5NEBt0mjIFZ2I8lqiPfDsbYxPnb6olUFM2ulbRYXBd+6wRwltw9PjVqPwIA1dZJZe8xUF8huxXM13JdhNE/4c3HNQLp5XlzbFVDDNflaxvzWrVztaT9iwn5fqwKcvcfkikNxcq6YuAVNc25ZCjpiHTim4vglQ01rQScYlNRvcfTwb+5XZj4qqaiF52VfiaMG/reMlmfQw1lk5bPntoVkcAMgSJepYAfK4wWPZTeEkOKLv75exFEF84+BMG7rBfTtlEzOFkqDXrRYnJ87YeqxI3A2zxj2W0ys00Y9nsoR9mg5Kuk47LV2taaZ4a7AWTX8kB5fpd/39vgjTW+Jm45B+ju5Jn4JrOUOSBbG8cfc/WCvfWB0H8nWxt5FWP6ZGz1aHfa2ggLVs/m5aifIgkv0xkvwLn2eRMhMvdfmVhrwQ54+kLRvRslf8BglCfumwCsYYOfwzwxGRocU4NYHbOS2YCGGaNvLAFGi/I5iPgvvErUc/PAc7qCLNFsBAKgzWM8UxWdhch3OsJoluqCAd/R0BWqzxCkVhHuDUZigRzDWfnthSdJJfkaitH/Sc5jQXtc4a/maMdKFH3aQDph+n2u09ytW1R/XflgPK1PWPbL3FfuKaawRGLJpCfsJjnJutbhbdc9BaMvgtYIsxkUEGLORP4VY2xoH32CNPGTo25I8wk/LU9P4NUCKt0uxxIzeqXIBUPXS3TwRv0cvZfLERIlvFhIkkycxN5041guhxE+W0LwPweiH93tjLirlzmGvuOQ2qZfClJeNwy41OAQNwu+GiislcRvF4fnRXh4D2Ekj1K2TfUJpJkl5PAvK3jNWK/PtcBoP/JtQe7PuFuB6hdYopFc1i67QuIDS/goIM8st651k69K3OlUJscUPbbgNkrQXyDbDVrL2TzQJJd9qfcy0NSm7dOYo3PAOEYJhxDzMcCdEwvrd96AP6IiT4kxkdgfEQSvewZPrRtyXXUk+vd0J++EvM0gLlEa131njkzrvFMUvZb0exz8uUNB/XjlKfmcyAsazuPJOkr5x39SdLH6j9XyPWhSAs0M3HMHKUlvAzCUDPtWtkWEf6zXVK+Nnwi1u0bZ58EqWiqvpWYcm5MY2Vg+o2NuCFZ1zrXtvFnGXgqKj9JwMVZqttSjYBH3QHlyt6C75MgvnC1j0EdtszYpKD12qyulHZzx7cWbzDJpKXNqG2eIBO3WDrIPARH0Ka5A+leC+b1u77tbapZDuZv5CEmO5l8XSLc3FEXWWqnoEVj5UXwqIfKL5Zir8H+sGBgtSeg9LkY0S9BfE01NzDzAlGwS1GeiW/prGudV4q5ZeY9y9w3QaI7SzW/vvOiW+VAqs8FiX4JUhmu+4oGtaTPqgveEE9r0G5+LbT4XUE9S4tzfMgJqqbpB6Hs2u04a3z33VpieJK+S9DbGPwtCFdkHUHJKfJaQLq17KAtC5dMXZLX5dZCQafG5IeZYc0Nl3kFgZ6TA6l+K/kPuMfG21R9Brj0j1lmMQ7vgnihR+aFK6sX6wfNbHmpMdcUZukFWwafY9Aa0zeHTEo93Z+ZAQmiK5dYF6ocYd3vIbwWpC10qbRw1cXZHcAyOSAhc0pUju/8wi+kZ3dhAv3RHUhNGSgPYwR5avokSNKygYwN8p9vAWOhRvxkts17Co1fqk3+ARHuLbRfK/gjphr3pNSAGzsNESTzFGmsfhpEF1ghOavHQMD7DKwgwvLt6vbnV1/8vOlNZiqenTaUN7nHk8s1prOu5W5RTLYtOeDzspx+kYHjRHVtL0+IyX4lYCQP4wRZNOMCaFq/72tGHA5KGaI/EfPzJEkvKkp67cFHffKv5ROXqyJYjFs042vptDYehHEMVIAxhggSGGOT9RHhKutKVL4Hg3FDauZwC9W7A6mwEfwNEyTzFGmqWQbmSUYMOzL9I0CELmasBdG/WOO1BF5LEh3CGg6FRIdA0w4F0SFEOJQZhwJw72+R70mGWn8kirUSdU8ESJ97DMZrhRxQDH/8FiNIuCYEcONgRNVyORM2bByx9ei/ZbHUrEQ9zwF8nuVyKkBATLjM41eeMOpKiCCZp0g4qH9QOsOoA0cuPwgQ4+pEfeQRUetqVL6Sgf8R1SsR+VfkgHK6SC7iBGkKXgEu4VYJIugVSZaAlxKhyO7aTUbD4HYcoWpyOxiZwsyD7WLGlZ5JyqMieQsTZOdcxNnEKIKy2bLEZybrWoU7EyttnjtA/BOzw7GDPWYkPZMUn2isWRFkUJ84FEXYbHnGw8n6yHdFze6sULKi98m+qDX7yTPwbU9AEe4PkxVBdHgqwsE7CBiUv42KeHtsU4ekj3pj+h82isagxuRFzKXdtqAvTAh42B1QhH+p6PayJ8hD04bSwR6975/wY0t0cB35HQgQcH0iFPmVKB5q3HMRa/x7Ub2SkCe87VYVP52DrPbLZU0QHTxfU3AaM54pCSAtngQROhN1Ea9omNyOkWo6s99qjKhuKcgTaLo7kPpDtrnkRJCdr1qDs0RQtohnq6dpk5MXLW4TVVei7lsAulVUrzTk6S45kPpxLrnkTJDK1umHaT3SiyCMziUQR7dfBJ5IhiKXiWKUisljifUaWjhIVLcE5Fe6U0oVTUVOZ3ZyJkjmVauxuo6JDO1tKQHgC55CmpWjX69/Zq2o41Sb/BgRhIkl6seS8mn2y+eoOW+nMYUgmVetxuDDRIPxVFp+bw8Cbk6EIsJnxQdrhZLMaDDfIk9STakfYBpBfI0XHsvk1le1BldN3/zy491kKLJXtXEj7nglDlS3yW3gwbgliJbIgdRUIzgZkTGNIJlXraeCl7AEwxvBjAQ4qGUkvjBZ2yq8SqjE3DPBdNdgw46ATzUicjXQAAAH60lEQVQJfk+V0mlW7qYSZMd8pOY2Jp5tVoCD2E4kGYrUiObfE/V8TQLr796jRHXtLk/AVe6AklVz1r5yN50guiNvU00zmIUH1+4DZGb8DPfxnaGmNaI21Tb5ASZ8T1TP/vJ0hxxI/dTsPPJCkB0kCb4FxslmBzwY7DHxbZ11rXNEc1XbXOcxSb2W0BS1ZSd5Bpo8ASWUj5jzRpCx4elflSDpbcDkfAResjYZ/0zWRz4vmh8zSI3JennUwXbiMyEHlEpRvIzK540gmflIU7CWGU1Gg3HkdASoPhlqEf6mlI7J39cY9w0qDBmfuN3KCTQRH+cr77wSxJm0Cw/bkmQoIrxEydEDvqggHSXgC8Ieba3Ap8sB9ZV8ppB3gmTmI+GgvlnswnwmUgq2WZVO6bykebVoLqk2+RdEEC7eIOrHSvLE+JZ7kpL3HooFIchOkugrMs5HxD7uMgbf3Rlq1dtIC11K1B0ASHgTo5ATqwkTzZP9qYI0dyoYQXaSRN845rEa3sWORy8BlHj35CPR0KA36BS6lDb3oCroR0CTO08rVr0BX1CC7CTJBwAyvficawcCBLoiEWr5nSgeqTb5O0R4WFTPtvJMz8uTUucXMv6CE0RPzhcOJjPVAZ1LR2B5MhTR20MLXRw78GiVVX1Zd1AcM2DgN56Acq0QSCYIF4UgO58kzwMQXrExIWdrmZCkccnaZuFekErUczvAN1srmXxFwzfJAfXn+bLen92iEWQHSaofBejyYiRuBZ8M+k1nqEX4t6LS5j4TRNFeeqtbIS1TY2ANl3kmG6+EaKrzXIo2mBWIN1zzS4CvN8uejexsTqWGHvHWZU9sEY1ZjcqNDORla4VoLPmUN9qiIK8x5NO4UdsVjcG7iCC8xGnUviXlGN9P1kfuF41NjcmXMiPv6/+icZktT6RNdfvTS8y2K2qvqK9YewZb0Vh9OxENjndq5o5kfes40cHiKA5TWP4jEYSrm4j6Kpo8oxsuniFXqXpL6qJfliGIjkRFODiXAOFdrEVHUTQAponJ+hb99KXQpUTdcwCaK6RkI2EG/grgEk9ASVglbEsRRAclcyrRhZ+DcaRVQDIzDgYWdoYiwgsTqajsI0Bf1j3EzHgsZCvqluh6qkq9Y6GYsq+smM8kvOHpJwGSvqw3YJPFfMZhum2GlnZJR7xe29wtajsVlRcS8C1RPVvIE+5xVyk3EEF4J0G+87PcE2SveUmJ1f8lphsT9S0LRAe1p81TKxGX3LGBzBlyDTM9kxXL9iuxNEEyr1w7am7pTxO7N5t8OxmKCJ+w5HYMV9Oy/lFVuB+IKBELLL+SGTd4JimvFtivkDvLE0TPxrtoxgnQNL1KxzSh7CwlTFOToRbhZUsl5r4JTMJ1sSyV+j7B6NXWXS7lBpqIzVaOU4/NFgTZBWJFU/WtxFSQbc4mD1xTMhQR/rDX0+Y52UXaEgYdbXI8xTKnSIQbXH7FNicfbUWQzCtXuKaawfor15eKNcqiflmSPtdZ26zvYha61Kj8IANZ9bUQclQY4deR5plmlAMtTLg7vNiOIHrQ456sPkaV6YfE+KHVi0IQ0ZxEXcttooOqxodcwCXSl54Ij7hUZXa2PTpEsTNT3pYE2QXA2EUzKiRN00lyqZmgmGhrTTIUOV7UHrfDrWqe58E8WVTXSvL64SYG3y8H1JesFJdILLYmyK5EvU3BqdjxNLHUDUWgYCLU0ioyILpsOir/UAPuEdWzijwRLYGWvt89Ka2vvtn6KgmC7BoBX7jmcma+HoRTLDAqzyZDkQtE4+AXh3xZSWkvEEH4ySPqy2x5BlZKRL92+1ONZtsulr2SIogO4mmLZhyoqunrWdKfKFS0+rSs4audF0X+Ijqwqaj8KwKuE9Urpjwz3gbh156A8lAx48iH75IjyC6QxjeGPq+Qcj0h8+pV0IuBOztDEeGdydvb3Oe49NcTmyyeMPABMf/aPUz9NZ2ObQUFuUDOSpYgu1+7ngqO1iTUEjItkL+ad1wJ/07WRY7Kxo8SdT8DkB0+hr4J4kY3qwspgPXZ5GoXnZInyO6BaGiQvCe+rZdCrSXi6fkaICJcmqiLPClqPxWTv0eMB0T1CilP4D+kIYWHBFIlty+sLxwHD0H2QKAyPP3rGlEtmGoBUyfD0WQoIlw8emvbAcfJSD8PwkmFvOEN+lrPjEZIaPT4FeHiEgZ9WFZsUBJk12gcf++UISPLDqwFkf76lfurDWNssj7yuuhoK1HPzwDOqV2xqE8D8q8y0Ch7lEY6G8Lb8w3Yt4XIoCbIniNU2Rj0agT9iaIXJhOeqzDwq85QRLj4hLLM/Q0QvQDCUCvcMfrTQpKkRre/51krxFPsGByC9DICFeHqsRLoLAbOYsZZRCgfYKA+3SZJ5e/UNqdEB1SJyouwYwGhWJd+vHWlBnolnXatHHrOtg+LFYgV/ToEMTAqFY3BcQSeAqJvgHAmGO491YhwdaIu8ogBU3uJqDH528wQLjkq6mcf+TcIWAnQSy7NvYImbxXuv56jf1upOwTJYrj2IMy5+s6QZChyhqgZXopy1ZU5CJXvCiVvMmOFBHpxm5JaMWLq4J1PiI6RLu8QJBvUTNBRop65AJtRwYWZsYZAa5h4DYHXEEtr0hrWeD5NraHa0vyAZ8IQGDLhEMQQTOYKcVwep2rI4pQg/wcsrWHmNSTxmjTcaw4IbP+7udE51vZE4P8ApFxiaDU5SwgAAAAASUVORK5CYII=;" vertex="1" parent="1">
          <mxGeometry x="399" y="-80" width="30" height="30" as="geometry" />
        </mxCell>
        <mxCell id="gVNQZNhaFQQdqfOZjz-5-13" value="" style="shape=image;imageAspect=0;aspect=fixed;verticalLabelPosition=bottom;verticalAlign=top;image=data:image/png,iVBORw0KGgoAAAANSUhEUgAAAMgAAADICAYAAACtWK6eAAAAAXNSR0IArs4c6QAAIABJREFUeF7tXQl0G9W5/v6RRoEsEBY77N1ooQ1QEktOWJtYSiCBQGM5tszWspT2QUvpIZTShDwHEqAltBRK2V5pWIrl2HLKmiaW5BBKIJbMFiilNO0r0DSxCQ1ktWY0/zujLC+Ll7nSSJqRZ87JIcH/+t35PHPv3Pv/BOfKGwL/qRrzuZTk/jIxjySWRmqSdoj+X0D/N0Yy4RAAIwk0ksGZv+8MZiMIG8HYCGAjARtBvJFBG6HhU/2/TNpGCbQxDemDI2Or/py3JAa5YRrk+ZuSfvekMUdpmms0E06SGKMBGg3wSQANN8XBwEbSAN5m4G1iWk0S3nYhvfrQaOcHA6s6Ev0h4BBE8P74d8A7wcXIkIGYRhMwmoFDBc0USvwznTgEWs2svZ2W8PaR0eTyQjkvBT8OQQYYxU8CFQcrLJ1PwPlgnAfCCDsPvP66xsDTzPS01CNHy15+eZOd88l37A5BekF4g3/c11Tw+WCeTAR/vgehmPaZ8AyYXyDJFS9vW/V+MWOxom+HIDtHpds/biJDm0RAgAGfFQerADG9RECUSYqXR1f9qQD+LO9iUBNkbWDsV93svgTgGgBfsfxoFTbA90DcQiw9Xhbr+GthXVvH26AkiD7RdrOkE+NSBjzWGQ7rRcLANon4MY2lx0fFOl6xXoT5jWhQEaTL76vTSQHQefmFtUStE5o1psePiHU8V6IZ7pdWyRNk43lnHpLa3nMpAP2Pd7AMbD7zZCDuInrs8GjH4/n0YwXbJUuQPeYXOjGOtQLYJRjDm0T0WA/j8WNiHRtKMD+UHEE+CVQcp8J1IzFf7cwvCnbLfgSmX7+jDb174vLlasG8FsBRSRGky++7DsCNAI4pAHaOi30QYKCDmBaUxzuaSwWckiBIV5V3ChHNZKCqVAbG5nmEVYnuPqqtI2nzPOz9irW+quJLErluZPB37T4QpRY/AykC7h7idi84eOkrn9g1P9s+Qdb7fTfQjtepUXYFfzDETYS/QKO7y+Id/2PHfG1HkO4q3zSmDDHOsiPggzjmJRLTgsPjHXE7YWAbgvxjwqkjh7k8dwN8hZ0AdmLdGwEC3VUW6/ixXXCxBUHWT6z8Orn4fjDOsAuwTpz9IrDE46JrRy7r+IfVcbI8QdYFvBdKTPoX24OsDqYTnxACH4LpBqsvCVuaIOv8vh9KwD1CsDvCtkKAgVtHxRL/bdWgLUuQrkDlfWD+vlWBc+IyFYFIeSyhHzmw3GU5gnSfU3Gkpkpt+llvy6HlBJRPBN7TXD0VRyx7a0s+nYjathRBNgTGjU+zNujOHIgOWinLk4QJZW2JF62So2UI0lVVeROI77QKME4cxUOAgZmjYom7ixfB/3u2BEG6/L4lAM61AiBODNZAgJnnjoonG4odTdEJ0hWoXKpXDyk2EI5/6yFgBZIUlSDdft8zDEyz3tA4EVkFgWKTpGgE6fL7WgAErTIQThzWRaCYJCkKQdZX+X5PhIusOyROZFZDgJgbyuLJuYWOq+AE6aryPQrC5YVO1PFnfwSKQZKCEmR9wPsAMX3P/kPlZFAsBAr9ulUwgnQHfL9kxvXFAtbxWzoIFJIkBSFIV8B3Jxg3lc4QOZkUG4FCkSTvBOn2++YyMKfYgDr+Sw+BQmxLyTtB1gd81cSIlN7wOBlZAYEDQIcflMeidXkniA5il9/XDmCCFQB1Yig5BP5eHkt8KV9ZFYQg6wIVJ0ssvZWvJBy7gx0B/m15LHlVPlAoCEH0wNcHfA8T4zv5SMKx6SDAhGtGRRMPmI1EwQjCU6YM6U59vN3sBBx7DgK7EWCeWh5P6jvDTbsKRhA94u6A90Zm+rlp0TuGHAT2RkBJQzrVzL7xBSXIzgn7h05xaee+ziMCy9Wh2nlHPdu51QwfBSfI+qrK6UTcakbwjg0HgT4QWFgeS5iy36/gBNnxFPHGAZroDK+DQL4QMOtLe1EIsm6C9yTJRavzBY5j10EAwBZIOLO8LfFGLmjkTBDfounnJmoX/1E0iPV+30MEXC2q58g7CBhFgBlPjYonLjYq35tcTgTxhmtCAF+fDEXGiwbRPmGCe7RriyKq58g7CAghwFSbS3nTHAkSfBfAiQS+NhFq/Y1Q4JllX99MZtwlqufIOwgYRYCARFksUWlUfl+5rAlSEQ7+hIA7dINE6NpK0pfeqW3eLBpIt9/3TwaOE9Vz5B0EDCPANLs83jHfsPweglkRpHLRjC9omvZnAAfsssWEBZ11Eb2xjdD1cWDchRprfxBScoQdBMQQ+LQsPexwyqIDb1YE8TYFHwBjv6OzLEmndNY2C69Orff7YuQ04BQbckdaEAF6tDzWcaWgkngTz7FPTa+SJCnWh6PWZCgiXMrn48kVJ2ppSZ/POJeDQN4QINAJZbGOv4o4EH6CeJtqloC5nzKh9M1kqOVpkSB02fX+ygfJ6VYrCpsjL4bA8vJYQugDtRBBvI3VV4JooG6lrydDkbFice+Q7vL7OBs9R8dBQACBKeWxhOHvdoYJcurib45097j01gQnDhwM/SgZahHuDNXt993AwIKB7dtfgoAUgO0ao4cI+jGA7bz777QdYNX+WVozA5GniGGCeMPBeQBmGUz5U9Y8x3de1PixQfndYt3+yv9l8OdE9awtz++C9a019JoEJLhHTpS9/PIma8fsRKcjYIgg3pbgGKhYueey7sDw8X3JUOt1A8vtLdHtrzyfwc+K6llMfgkR4hpoNUvu149YtrLLYvE54RhEwBBBfOGaBQy+waDN3WISw9dRH0mK6nX7fW0MBET1iiy/BERL4HItKV/6yt+KHIvj3iQEBiRIZu6Rcq0G4xhRnwQ8lwhFhNsbdJ1z2vFQ1fdF/RVDnoBnAXq4LNbxXDH8Oz7zi8CABPGGa74L8IPZhsGg2s5QS7OovuXr+BItI8Z9DjFER9Ze8gYIEsypphUDf+4MRbLqWGvRZd81xLSgLN6R9S8Ne90igzvafgnia6zxM3E0V4iY6Sed9S0/E7XTHfD+iJl+IaqXL3kiLNBYWjAqtmp9vnw4dq2FQL8EqWgMPkxkSi2rbS6Zv7Iq2PqRaPpdft8/AHxeVM9MeQa/BeYbR8U7l5lp17FlfQT6JEjFohnHkcarAT7InDTooWSoRbg3SFeVdwqIXjAnBnErRPSExnSj89QQx64UNPokiDcc1Leum1vDivjMZF3ry6LAdfl9+m/uSaJ6ucoz48ZR8cSg+LKfK1alqt8nQXxNNUlmrjA1cea2ZH2rcMvndZMrvyCl+e+mxjKAMQJNc1aoCom4NX31SpCKpuA3ibE4HyGThksTF0WeFLXd5ffdD+AaUb1s5EmTvGXtqzqz0c1W56zbN5XJnD5W11fI9eFLPx3Rna2tbPSUNvegr74vT1KX74tdrwTxNgbDINRlA7QBnb9tk6TR79Q265v1hK5CLPuSWzuqbGnnv4UCMyg8o4E9n7i2VDHhGyAcw4RjiPlYgPSPsEP2MdMD8EdM9CExPgLjI2K8eGh6WLy5gYSxMxKiEvPcBeaZRmRLT4Z/KgfUzBHyPa/9COJrvPBYJvcH+QSAiOYk6lpuE/XRFaj8AZjvFdUzKl8eSwz4XciorV1yVfO3jCXWzmSiAAhTwXCJ2thnxNJgvEDMUSbpT/FZw17Lyd4+ympMfoQZeWklYGac5tui5+RAar9dH70QpLqOicLmB7CXRU1N48Q3Lo4Ibyfp8vv0ucgXzI6PJL6wrC35jBl2GxpYWiFvuhGQvgXgq2bY7MfGu4D22NnKiLsaGkgzw5cadTczqMYMW3axQcAGRXF5D5yy/X/7fYJUhIP3EPDDfCfGwMLOUES4fuoGv3dSGmTu9wjCz8qjiZ+YkfPEeZuCEmEmg4RrheXin8CvaowF7bNH5Nzujv+EEep2Wa+fbLcNo7lACGZc4Zmk/K5fgnjDwQ4Avpw8GVQmpkCivqWv8+19WukKeJeCSXg1rA+Dj5XHEt82GHKfYhNv3fx1ckF/f78kV1s56j/JaSxonzP8zVzsbI0deLTMqk6SrGtK5eK/GLpEeMTtV/aq9rnXK9aYxguOcpH8r4IFR/Risq5FePVkw2Tfsek0zJgnveYmrerQaOenueRcddumBkikk2NYLnZM1N0CjRfEbxnRkItNbvecmE7zHxkosQNsvaPCwDuegHJSn0+QnaVEG3MBVViXcGWyLvKoqF5XlfdeEP1AVG8veY3PK29PZv2VfsYidm14f3MzQNNziiNvyrz4sC8Pn9FcS+lsXagx+SpmPJKtvt303BK8VKXsXuLf6wlSEa65n8AF+dawB3AfutQDTlp1ye8/EwUzt2Vfur081mH0CPF+oQVu3Xyy5qLFAOetw6ooHr3L0xopzdOjc4YL1yvbZU+JyosAzDAnHotbIb5Z9qt37opyL4J4w8HXAZxahBTmJ0OR2aJ+1/t91xCgf0AUvVaUHfr5Kmpuzuo368T5m2oJ1CTqtJjyDK5rnzVCv9GFL456TlHBKwAcLKxsP4WoHFB2b2vaTZAxi2aUuTStaGenc6jKuIaALwqOg1Dplz1t75xv/LegP2uIazw323mJ0uaeCaLSLzTO2OoOKCOIkFky300Qb1MwCEZLsUaSgKcSoYhwL4d1VZVVErHAShg/Xh5L6t8nhK8J87aOl0jTSx/Z9tJYOm357KGvZpOAGvMsZWazVg+zCaEwOsznypPUpXsTJFx9L5DjpDfH8DXQtNdCLcJnu7v8Pn2iPWUg90RIQdNOK4t3Cn99njxv67EqaWasnA0UZt5/7mbpuGWzh+rNVIUuJeY+G0wvCinZU/huOaBkttzsfoJUhINvEPD1YuZDwKuJUOQ00Ri6z6k4klVp7UB6zFgwKp4QrkC/48v41pUAjxvIhz1+TqvOVoaens2X91RM/j0xLrJHnllH2SEHlMxYZwhy2qIZByqaZkrb3KxD2qlIoGsToRbhZjzrqyp/QcQ/6tM/oTulSmOPWb5K+FRj1bwtD4P4O7nmZil9pkfis4cJt8BT21znMUnCT3lL5T5wMJ/JASWzIJEhyNiW4CmSipy+vA7s06gErXdpqa+vuugZ4XPf/S37EvGDZdHkfxmNYpecrSflAyZLDfFZw+YOKLaPgBKVXwJwpqieneTdmnw0Td66NkMQb2N1DYiES/PkMeG7kqHIj0Xtdwd8VzPjod70JMKkw6MJoQIUO7eP6CcgrfKFXBSS/uUZn2gu97jlNx8gVOgu1Sb/FxGEn/LmBp9na8R+2a/GMwTxNVXfzEy359mlkHkCVyZCrQkhJb1CfJX3fRAdv6ceA6+OiiWE5zZV8zc/YYG9VaIQCMrzffFZI4RKxHIbDlZIfotKuHWeBFzrCii/2fEECVc/CpDwzlrBkRAVjyRDEeEt111VvrNB2GulJZuz5fquXCIq2rK3KFi5yHM6Pb59zsGrRGwoMc8dYDZlB7SI30LJEuE+t1+5bgdBmmpeArP13imZZyTrW4Vv0m6/7xkGdh9+Ee0spK9avSRvfrnQW9YLNfj7+mHG79tnDxfahdzT5jlZIn6rWDEXwG+bHFAm73yC1KwDeFQBnIq6eC0ZiggXjlg3+fRyKa3smuQLdxWqmv/ZTYC0ez+OaND2lKep8VnDlojErkRl/RXYK6JjF1kCPnQHlOOoYtGMg0nTNlo1cNZ4ZudFrXeLxtftr/w5g28kYE5ZLCF0vLdq3qa/gOgEUZ92ls/mKZKKyg8S8F07591f7O60MpwqG4NejSA8GS4gKBvTaT719Ytb/ynqU1/2ZcYZo+IJvbeJoSswb+t4zebbSQwlut97Fj4Zpn527LMNRxn+HpaKyVdRCW+FZ33ru7cpWA/GU1mBWiAlItybqIsIHwPuCnivKI8mhc6aVM3fMgtgvZvWoLsIXB+bNcJwPYKepZ4TJReXbHdiAl1CvnBwDgPCH4sKffcQ8TcSda36luu8XlXzN+vfSvx5dWJR49m8ZqlR+Z9cqsu9RPP0J8gT4KKfox74liE8m6yLXDCwYPYSU+7lIT2btuivGFL2VmysyfgkPnv4YSIZlHIFFAK3kDcc1L8ZnC0CSrFkiXBpok68KqPReP23bzmf2fb9EY2m26scAZNjs4a3GTWSisr6t4JfGZW3mdxL5G2sXgki4a/MRUr0HVmSfK/UNm/Lh/+qeZvvAKFkP34ZwoxxZ3z28JsNyeplUtvcZ4JI35tViter+hPEbmvZs5OhyPx8jMbg2FoyIHJPxmcNv3RAqZ0CHPeMVjV+26i8reQIneRtDL4Jwik2CnwbJGlMsrb5PbNjnnj75nZiCJchMjuOYtpjwvL2nw6faDSGnfWzhI8QGLVfZLm39CfInwtQHtPUPPUyNJ31EeGzDAMFUTV/098AsniVkoGyyPXnvCY+a8Remz37s8hJDFU3ylty9WpFfWb8RSeIXh/XMCBWSYRB53SGWkwtQVo1f/P2XqqsWyXlQsXRE581/AARZ0qb3AOCR0THDrIMrNEJohfrtWPlvGXJUOQcs4De0Z+DilbVxaw8zLCjEJeL9CdRo/I6Bqy4ly8nOAj4QJ+DrAXhyJwsFUlZY1z9Wn3ElKp/VfM3jgXcBW2aUyTYDLhVK+KzRhoubKFE5b8AKLm9awT6N3nDNd0AH24ANSuK/K0nPaRy9cVP/SfX4ByC7ImgMEH0UkgFrWaf63gb0SfCx/orlr6T17YV84hpXqK+5RYjCfcn47xi/T86oq9YSlROAhA+lpDrmOVdn/GZThB9a8WBeXeWPwdpSqe9iYv/8EauLpxJegZB4Um6GnX/i0FH5Yq/BfW36QRRALgtGJxISE8kQ5HLRBR6k3WWeXVUxJZ5dQ0lKnOu2FtUX9U3K24H79dA0qLx9hOWxBcma1tzaqHmfCgERD8U8gocqabkAYv22e+GykS8XX+CrIF48Wfr5ZtlM549E3G2mmTQENpqkorLFaRBn4OU4vWefh5kBQNnlUJ2DL6uM9R6X7a5OJsV9Tcssc2KatR1PkN6NlvMLa3HtIy84epGgEKWDtR4cB+wzOM7g61Z9Tn337b5XJYgVLjAeGj2kNQ0nrj8lhHLjUabispXE3ov1mfUhlXl9C1NVBGuXkCgG6wapGhcTFjQWRcRLlCt+5nRwJ4Nni1bc+5lLhq0ReQZ6G6fNbxcJJyeNneDRGTPfikDJsqz9C/pPwLhFwPK2khAA5/2Wqg1qx4YVfM36xP9/RrK2yj9rENl8G/aZ424VsRAKdfpzZxJrwjXzCBwVq25RIAspCwBzYlQpDYbn/55m65jolI9IdcvJEQ0LfbTYYYrt3M7RqppOeddDNmMU0F0mM8iX2PN6UysF2guqYsIdYm6iDDxq+ZvGQvwoNuTpb9esTLsuOUNpO9oNnT1RD3flMCLDQnbUEhJu4+jMZHqz7kU0nf0ltbF3PEFl+v05lrxRp1V8zfb7oxMroNHoMdjs4YJtaZTYvI9YAiXY8o11gLpp+WA4qYJ7RPcm9cfpn9NL8Xrx8lQRLjxpFN61NitoMTkt8EYbUzaXlIE/N0dUL60q7r7OoBKbj8/wOspTacnLo78XWR4nOLVA6OVWiafShL0tuGlerXLAaVqJ0GC+jv32JLMlHF/sj7yfdHcnPYH/SOWapOvJ8IvRXG1izwDCz0B5fIdDXQagwuZIPT+aZdEM3EyTUzWtxj++LUrt8Gx9US8gY6OT6pNfpUIJdLUdP+7WWOeO2SS2rCzBVvwChB+a6ubXiTYLKsyOi3Yege5Z5mnXpLY0vWcRW6P3mV5ihxQ/5ghSGV4+lc0SKaX0ck9SPMssIZvd14UeUzUYkk38dR4bvyWEQ2imChtnqUgniyqZyd5N5TDKYANu/uk+8LBjxg42k5JCMb6Vio19PS3LntCuERN1fxNrQBNF/RncXFeHJ81olo0SHWZaypL0vOiejaTf08OKCfqMe8miLcx+BQI9TZLRChcIpqTqGsRaqajO5ixiF0b3t/6HsAlUjOL1hz25aEnNNdSWgjAHYej9I+vM0T17CTPwOOegJKZk+/xBKm+hkH32ymRLGL91CVJp6+qbdY/BApdgVs3n6y5UBI9+aQ0TonOGb5aCACdHHH3GdDoT6J6dpNn4FpPQMm0ud5NEBt0mjIFZ2I8lqiPfDsbYxPnb6olUFM2ulbRYXBd+6wRwltw9PjVqPwIA1dZJZe8xUF8huxXM13JdhNE/4c3HNQLp5XlzbFVDDNflaxvzWrVztaT9iwn5fqwKcvcfkikNxcq6YuAVNc25ZCjpiHTim4vglQ01rQScYlNRvcfTwb+5XZj4qqaiF52VfiaMG/reMlmfQw1lk5bPntoVkcAMgSJepYAfK4wWPZTeEkOKLv75exFEF84+BMG7rBfTtlEzOFkqDXrRYnJ87YeqxI3A2zxj2W0ys00Y9nsoR9mg5Kuk47LV2taaZ4a7AWTX8kB5fpd/39vgjTW+Jm45B+ju5Jn4JrOUOSBbG8cfc/WCvfWB0H8nWxt5FWP6ZGz1aHfa2ggLVs/m5aifIgkv0xkvwLn2eRMhMvdfmVhrwQ54+kLRvRslf8BglCfumwCsYYOfwzwxGRocU4NYHbOS2YCGGaNvLAFGi/I5iPgvvErUc/PAc7qCLNFsBAKgzWM8UxWdhch3OsJoluqCAd/R0BWqzxCkVhHuDUZigRzDWfnthSdJJfkaitH/Sc5jQXtc4a/maMdKFH3aQDph+n2u09ytW1R/XflgPK1PWPbL3FfuKaawRGLJpCfsJjnJutbhbdc9BaMvgtYIsxkUEGLORP4VY2xoH32CNPGTo25I8wk/LU9P4NUCKt0uxxIzeqXIBUPXS3TwRv0cvZfLERIlvFhIkkycxN5041guhxE+W0LwPweiH93tjLirlzmGvuOQ2qZfClJeNwy41OAQNwu+GiislcRvF4fnRXh4D2Ekj1K2TfUJpJkl5PAvK3jNWK/PtcBoP/JtQe7PuFuB6hdYopFc1i67QuIDS/goIM8st651k69K3OlUJscUPbbgNkrQXyDbDVrL2TzQJJd9qfcy0NSm7dOYo3PAOEYJhxDzMcCdEwvrd96AP6IiT4kxkdgfEQSvewZPrRtyXXUk+vd0J++EvM0gLlEa131njkzrvFMUvZb0exz8uUNB/XjlKfmcyAsazuPJOkr5x39SdLH6j9XyPWhSAs0M3HMHKUlvAzCUDPtWtkWEf6zXVK+Nnwi1u0bZ58EqWiqvpWYcm5MY2Vg+o2NuCFZ1zrXtvFnGXgqKj9JwMVZqttSjYBH3QHlyt6C75MgvnC1j0EdtszYpKD12qyulHZzx7cWbzDJpKXNqG2eIBO3WDrIPARH0Ka5A+leC+b1u77tbapZDuZv5CEmO5l8XSLc3FEXWWqnoEVj5UXwqIfKL5Zir8H+sGBgtSeg9LkY0S9BfE01NzDzAlGwS1GeiW/prGudV4q5ZeY9y9w3QaI7SzW/vvOiW+VAqs8FiX4JUhmu+4oGtaTPqgveEE9r0G5+LbT4XUE9S4tzfMgJqqbpB6Hs2u04a3z33VpieJK+S9DbGPwtCFdkHUHJKfJaQLq17KAtC5dMXZLX5dZCQafG5IeZYc0Nl3kFgZ6TA6l+K/kPuMfG21R9Brj0j1lmMQ7vgnihR+aFK6sX6wfNbHmpMdcUZukFWwafY9Aa0zeHTEo93Z+ZAQmiK5dYF6ocYd3vIbwWpC10qbRw1cXZHcAyOSAhc0pUju/8wi+kZ3dhAv3RHUhNGSgPYwR5avokSNKygYwN8p9vAWOhRvxkts17Co1fqk3+ARHuLbRfK/gjphr3pNSAGzsNESTzFGmsfhpEF1ghOavHQMD7DKwgwvLt6vbnV1/8vOlNZiqenTaUN7nHk8s1prOu5W5RTLYtOeDzspx+kYHjRHVtL0+IyX4lYCQP4wRZNOMCaFq/72tGHA5KGaI/EfPzJEkvKkp67cFHffKv5ROXqyJYjFs042vptDYehHEMVIAxhggSGGOT9RHhKutKVL4Hg3FDauZwC9W7A6mwEfwNEyTzFGmqWQbmSUYMOzL9I0CELmasBdG/WOO1BF5LEh3CGg6FRIdA0w4F0SFEOJQZhwJw72+R70mGWn8kirUSdU8ESJ97DMZrhRxQDH/8FiNIuCYEcONgRNVyORM2bByx9ei/ZbHUrEQ9zwF8nuVyKkBATLjM41eeMOpKiCCZp0g4qH9QOsOoA0cuPwgQ4+pEfeQRUetqVL6Sgf8R1SsR+VfkgHK6SC7iBGkKXgEu4VYJIugVSZaAlxKhyO7aTUbD4HYcoWpyOxiZwsyD7WLGlZ5JyqMieQsTZOdcxNnEKIKy2bLEZybrWoU7EyttnjtA/BOzw7GDPWYkPZMUn2isWRFkUJ84FEXYbHnGw8n6yHdFze6sULKi98m+qDX7yTPwbU9AEe4PkxVBdHgqwsE7CBiUv42KeHtsU4ekj3pj+h82isagxuRFzKXdtqAvTAh42B1QhH+p6PayJ8hD04bSwR6975/wY0t0cB35HQgQcH0iFPmVKB5q3HMRa/x7Ub2SkCe87VYVP52DrPbLZU0QHTxfU3AaM54pCSAtngQROhN1Ea9omNyOkWo6s99qjKhuKcgTaLo7kPpDtrnkRJCdr1qDs0RQtohnq6dpk5MXLW4TVVei7lsAulVUrzTk6S45kPpxLrnkTJDK1umHaT3SiyCMziUQR7dfBJ5IhiKXiWKUisljifUaWjhIVLcE5Fe6U0oVTUVOZ3ZyJkjmVauxuo6JDO1tKQHgC55CmpWjX69/Zq2o41Sb/BgRhIkl6seS8mn2y+eoOW+nMYUgmVetxuDDRIPxVFp+bw8Cbk6EIsJnxQdrhZLMaDDfIk9STakfYBpBfI0XHsvk1le1BldN3/zy491kKLJXtXEj7nglDlS3yW3gwbgliJbIgdRUIzgZkTGNIJlXraeCl7AEwxvBjAQ4qGUkvjBZ2yq8SqjE3DPBdNdgw46ATzUicjXQAAAH60lEQVQJfk+V0mlW7qYSZMd8pOY2Jp5tVoCD2E4kGYrUiObfE/V8TQLr796jRHXtLk/AVe6AklVz1r5yN50guiNvU00zmIUH1+4DZGb8DPfxnaGmNaI21Tb5ASZ8T1TP/vJ0hxxI/dTsPPJCkB0kCb4FxslmBzwY7DHxbZ11rXNEc1XbXOcxSb2W0BS1ZSd5Bpo8ASWUj5jzRpCx4elflSDpbcDkfAResjYZ/0zWRz4vmh8zSI3JennUwXbiMyEHlEpRvIzK540gmflIU7CWGU1Gg3HkdASoPhlqEf6mlI7J39cY9w0qDBmfuN3KCTQRH+cr77wSxJm0Cw/bkmQoIrxEydEDvqggHSXgC8Ieba3Ap8sB9ZV8ppB3gmTmI+GgvlnswnwmUgq2WZVO6bykebVoLqk2+RdEEC7eIOrHSvLE+JZ7kpL3HooFIchOkugrMs5HxD7uMgbf3Rlq1dtIC11K1B0ASHgTo5ATqwkTzZP9qYI0dyoYQXaSRN845rEa3sWORy8BlHj35CPR0KA36BS6lDb3oCroR0CTO08rVr0BX1CC7CTJBwAyvficawcCBLoiEWr5nSgeqTb5O0R4WFTPtvJMz8uTUucXMv6CE0RPzhcOJjPVAZ1LR2B5MhTR20MLXRw78GiVVX1Zd1AcM2DgN56Acq0QSCYIF4UgO58kzwMQXrExIWdrmZCkccnaZuFekErUczvAN1srmXxFwzfJAfXn+bLen92iEWQHSaofBejyYiRuBZ8M+k1nqEX4t6LS5j4TRNFeeqtbIS1TY2ANl3kmG6+EaKrzXIo2mBWIN1zzS4CvN8uejexsTqWGHvHWZU9sEY1ZjcqNDORla4VoLPmUN9qiIK8x5NO4UdsVjcG7iCC8xGnUviXlGN9P1kfuF41NjcmXMiPv6/+icZktT6RNdfvTS8y2K2qvqK9YewZb0Vh9OxENjndq5o5kfes40cHiKA5TWP4jEYSrm4j6Kpo8oxsuniFXqXpL6qJfliGIjkRFODiXAOFdrEVHUTQAponJ+hb99KXQpUTdcwCaK6RkI2EG/grgEk9ASVglbEsRRAclcyrRhZ+DcaRVQDIzDgYWdoYiwgsTqajsI0Bf1j3EzHgsZCvqluh6qkq9Y6GYsq+smM8kvOHpJwGSvqw3YJPFfMZhum2GlnZJR7xe29wtajsVlRcS8C1RPVvIE+5xVyk3EEF4J0G+87PcE2SveUmJ1f8lphsT9S0LRAe1p81TKxGX3LGBzBlyDTM9kxXL9iuxNEEyr1w7am7pTxO7N5t8OxmKCJ+w5HYMV9Oy/lFVuB+IKBELLL+SGTd4JimvFtivkDvLE0TPxrtoxgnQNL1KxzSh7CwlTFOToRbhZUsl5r4JTMJ1sSyV+j7B6NXWXS7lBpqIzVaOU4/NFgTZBWJFU/WtxFSQbc4mD1xTMhQR/rDX0+Y52UXaEgYdbXI8xTKnSIQbXH7FNicfbUWQzCtXuKaawfor15eKNcqiflmSPtdZ26zvYha61Kj8IANZ9bUQclQY4deR5plmlAMtTLg7vNiOIHrQ456sPkaV6YfE+KHVi0IQ0ZxEXcttooOqxodcwCXSl54Ij7hUZXa2PTpEsTNT3pYE2QXA2EUzKiRN00lyqZmgmGhrTTIUOV7UHrfDrWqe58E8WVTXSvL64SYG3y8H1JesFJdILLYmyK5EvU3BqdjxNLHUDUWgYCLU0ioyILpsOir/UAPuEdWzijwRLYGWvt89Ka2vvtn6KgmC7BoBX7jmcma+HoRTLDAqzyZDkQtE4+AXh3xZSWkvEEH4ySPqy2x5BlZKRL92+1ONZtsulr2SIogO4mmLZhyoqunrWdKfKFS0+rSs4audF0X+Ijqwqaj8KwKuE9Urpjwz3gbh156A8lAx48iH75IjyC6QxjeGPq+Qcj0h8+pV0IuBOztDEeGdydvb3Oe49NcTmyyeMPABMf/aPUz9NZ2ObQUFuUDOSpYgu1+7ngqO1iTUEjItkL+ad1wJ/07WRY7Kxo8SdT8DkB0+hr4J4kY3qwspgPXZ5GoXnZInyO6BaGiQvCe+rZdCrSXi6fkaICJcmqiLPClqPxWTv0eMB0T1CilP4D+kIYWHBFIlty+sLxwHD0H2QKAyPP3rGlEtmGoBUyfD0WQoIlw8emvbAcfJSD8PwkmFvOEN+lrPjEZIaPT4FeHiEgZ9WFZsUBJk12gcf++UISPLDqwFkf76lfurDWNssj7yuuhoK1HPzwDOqV2xqE8D8q8y0Ch7lEY6G8Lb8w3Yt4XIoCbIniNU2Rj0agT9iaIXJhOeqzDwq85QRLj4hLLM/Q0QvQDCUCvcMfrTQpKkRre/51krxFPsGByC9DICFeHqsRLoLAbOYsZZRCgfYKA+3SZJ5e/UNqdEB1SJyouwYwGhWJd+vHWlBnolnXatHHrOtg+LFYgV/ToEMTAqFY3BcQSeAqJvgHAmGO491YhwdaIu8ogBU3uJqDH528wQLjkq6mcf+TcIWAnQSy7NvYImbxXuv56jf1upOwTJYrj2IMy5+s6QZChyhqgZXopy1ZU5CJXvCiVvMmOFBHpxm5JaMWLq4J1PiI6RLu8QJBvUTNBRop65AJtRwYWZsYZAa5h4DYHXEEtr0hrWeD5NraHa0vyAZ8IQGDLhEMQQTOYKcVwep2rI4pQg/wcsrWHmNSTxmjTcaw4IbP+7udE51vZE4P8ApFxiaDU5SwgAAAAASUVORK5CYII=;" vertex="1" parent="1">
          <mxGeometry x="140" y="90" width="30" height="30" as="geometry" />
        </mxCell>
        <mxCell id="gVNQZNhaFQQdqfOZjz-5-14" value="" style="shape=image;imageAspect=0;aspect=fixed;verticalLabelPosition=bottom;verticalAlign=top;image=data:image/png,iVBORw0KGgoAAAANSUhEUgAAAMgAAADICAYAAACtWK6eAAAAAXNSR0IArs4c6QAAIABJREFUeF7tXQl0G9W5/v6RRoEsEBY77N1ooQ1QEktOWJtYSiCBQGM5tszWspT2QUvpIZTShDwHEqAltBRK2V5pWIrl2HLKmiaW5BBKIJbMFiilNO0r0DSxCQ1ktWY0/zujLC+Ll7nSSJqRZ87JIcH/+t35PHPv3Pv/BOfKGwL/qRrzuZTk/jIxjySWRmqSdoj+X0D/N0Yy4RAAIwk0ksGZv+8MZiMIG8HYCGAjARtBvJFBG6HhU/2/TNpGCbQxDemDI2Or/py3JAa5YRrk+ZuSfvekMUdpmms0E06SGKMBGg3wSQANN8XBwEbSAN5m4G1iWk0S3nYhvfrQaOcHA6s6Ev0h4BBE8P74d8A7wcXIkIGYRhMwmoFDBc0USvwznTgEWs2svZ2W8PaR0eTyQjkvBT8OQQYYxU8CFQcrLJ1PwPlgnAfCCDsPvP66xsDTzPS01CNHy15+eZOd88l37A5BekF4g3/c11Tw+WCeTAR/vgehmPaZ8AyYXyDJFS9vW/V+MWOxom+HIDtHpds/biJDm0RAgAGfFQerADG9RECUSYqXR1f9qQD+LO9iUBNkbWDsV93svgTgGgBfsfxoFTbA90DcQiw9Xhbr+GthXVvH26AkiD7RdrOkE+NSBjzWGQ7rRcLANon4MY2lx0fFOl6xXoT5jWhQEaTL76vTSQHQefmFtUStE5o1psePiHU8V6IZ7pdWyRNk43lnHpLa3nMpAP2Pd7AMbD7zZCDuInrs8GjH4/n0YwXbJUuQPeYXOjGOtQLYJRjDm0T0WA/j8WNiHRtKMD+UHEE+CVQcp8J1IzFf7cwvCnbLfgSmX7+jDb174vLlasG8FsBRSRGky++7DsCNAI4pAHaOi30QYKCDmBaUxzuaSwWckiBIV5V3ChHNZKCqVAbG5nmEVYnuPqqtI2nzPOz9irW+quJLErluZPB37T4QpRY/AykC7h7idi84eOkrn9g1P9s+Qdb7fTfQjtepUXYFfzDETYS/QKO7y+Id/2PHfG1HkO4q3zSmDDHOsiPggzjmJRLTgsPjHXE7YWAbgvxjwqkjh7k8dwN8hZ0AdmLdGwEC3VUW6/ixXXCxBUHWT6z8Orn4fjDOsAuwTpz9IrDE46JrRy7r+IfVcbI8QdYFvBdKTPoX24OsDqYTnxACH4LpBqsvCVuaIOv8vh9KwD1CsDvCtkKAgVtHxRL/bdWgLUuQrkDlfWD+vlWBc+IyFYFIeSyhHzmw3GU5gnSfU3Gkpkpt+llvy6HlBJRPBN7TXD0VRyx7a0s+nYjathRBNgTGjU+zNujOHIgOWinLk4QJZW2JF62So2UI0lVVeROI77QKME4cxUOAgZmjYom7ixfB/3u2BEG6/L4lAM61AiBODNZAgJnnjoonG4odTdEJ0hWoXKpXDyk2EI5/6yFgBZIUlSDdft8zDEyz3tA4EVkFgWKTpGgE6fL7WgAErTIQThzWRaCYJCkKQdZX+X5PhIusOyROZFZDgJgbyuLJuYWOq+AE6aryPQrC5YVO1PFnfwSKQZKCEmR9wPsAMX3P/kPlZFAsBAr9ulUwgnQHfL9kxvXFAtbxWzoIFJIkBSFIV8B3Jxg3lc4QOZkUG4FCkSTvBOn2++YyMKfYgDr+Sw+BQmxLyTtB1gd81cSIlN7wOBlZAYEDQIcflMeidXkniA5il9/XDmCCFQB1Yig5BP5eHkt8KV9ZFYQg6wIVJ0ssvZWvJBy7gx0B/m15LHlVPlAoCEH0wNcHfA8T4zv5SMKx6SDAhGtGRRMPmI1EwQjCU6YM6U59vN3sBBx7DgK7EWCeWh5P6jvDTbsKRhA94u6A90Zm+rlp0TuGHAT2RkBJQzrVzL7xBSXIzgn7h05xaee+ziMCy9Wh2nlHPdu51QwfBSfI+qrK6UTcakbwjg0HgT4QWFgeS5iy36/gBNnxFPHGAZroDK+DQL4QMOtLe1EIsm6C9yTJRavzBY5j10EAwBZIOLO8LfFGLmjkTBDfounnJmoX/1E0iPV+30MEXC2q58g7CBhFgBlPjYonLjYq35tcTgTxhmtCAF+fDEXGiwbRPmGCe7RriyKq58g7CAghwFSbS3nTHAkSfBfAiQS+NhFq/Y1Q4JllX99MZtwlqufIOwgYRYCARFksUWlUfl+5rAlSEQ7+hIA7dINE6NpK0pfeqW3eLBpIt9/3TwaOE9Vz5B0EDCPANLs83jHfsPweglkRpHLRjC9omvZnAAfsssWEBZ11Eb2xjdD1cWDchRprfxBScoQdBMQQ+LQsPexwyqIDb1YE8TYFHwBjv6OzLEmndNY2C69Orff7YuQ04BQbckdaEAF6tDzWcaWgkngTz7FPTa+SJCnWh6PWZCgiXMrn48kVJ2ppSZ/POJeDQN4QINAJZbGOv4o4EH6CeJtqloC5nzKh9M1kqOVpkSB02fX+ygfJ6VYrCpsjL4bA8vJYQugDtRBBvI3VV4JooG6lrydDkbFice+Q7vL7OBs9R8dBQACBKeWxhOHvdoYJcurib45097j01gQnDhwM/SgZahHuDNXt993AwIKB7dtfgoAUgO0ao4cI+jGA7bz777QdYNX+WVozA5GniGGCeMPBeQBmGUz5U9Y8x3de1PixQfndYt3+yv9l8OdE9awtz++C9a019JoEJLhHTpS9/PIma8fsRKcjYIgg3pbgGKhYueey7sDw8X3JUOt1A8vtLdHtrzyfwc+K6llMfgkR4hpoNUvu149YtrLLYvE54RhEwBBBfOGaBQy+waDN3WISw9dRH0mK6nX7fW0MBET1iiy/BERL4HItKV/6yt+KHIvj3iQEBiRIZu6Rcq0G4xhRnwQ8lwhFhNsbdJ1z2vFQ1fdF/RVDnoBnAXq4LNbxXDH8Oz7zi8CABPGGa74L8IPZhsGg2s5QS7OovuXr+BItI8Z9DjFER9Ze8gYIEsypphUDf+4MRbLqWGvRZd81xLSgLN6R9S8Ne90igzvafgnia6zxM3E0V4iY6Sed9S0/E7XTHfD+iJl+IaqXL3kiLNBYWjAqtmp9vnw4dq2FQL8EqWgMPkxkSi2rbS6Zv7Iq2PqRaPpdft8/AHxeVM9MeQa/BeYbR8U7l5lp17FlfQT6JEjFohnHkcarAT7InDTooWSoRbg3SFeVdwqIXjAnBnErRPSExnSj89QQx64UNPokiDcc1Leum1vDivjMZF3ry6LAdfl9+m/uSaJ6ucoz48ZR8cSg+LKfK1alqt8nQXxNNUlmrjA1cea2ZH2rcMvndZMrvyCl+e+mxjKAMQJNc1aoCom4NX31SpCKpuA3ibE4HyGThksTF0WeFLXd5ffdD+AaUb1s5EmTvGXtqzqz0c1W56zbN5XJnD5W11fI9eFLPx3Rna2tbPSUNvegr74vT1KX74tdrwTxNgbDINRlA7QBnb9tk6TR79Q265v1hK5CLPuSWzuqbGnnv4UCMyg8o4E9n7i2VDHhGyAcw4RjiPlYgPSPsEP2MdMD8EdM9CExPgLjI2K8eGh6WLy5gYSxMxKiEvPcBeaZRmRLT4Z/KgfUzBHyPa/9COJrvPBYJvcH+QSAiOYk6lpuE/XRFaj8AZjvFdUzKl8eSwz4XciorV1yVfO3jCXWzmSiAAhTwXCJ2thnxNJgvEDMUSbpT/FZw17Lyd4+ympMfoQZeWklYGac5tui5+RAar9dH70QpLqOicLmB7CXRU1N48Q3Lo4Ibyfp8vv0ucgXzI6PJL6wrC35jBl2GxpYWiFvuhGQvgXgq2bY7MfGu4D22NnKiLsaGkgzw5cadTczqMYMW3axQcAGRXF5D5yy/X/7fYJUhIP3EPDDfCfGwMLOUES4fuoGv3dSGmTu9wjCz8qjiZ+YkfPEeZuCEmEmg4RrheXin8CvaowF7bNH5Nzujv+EEep2Wa+fbLcNo7lACGZc4Zmk/K5fgnjDwQ4Avpw8GVQmpkCivqWv8+19WukKeJeCSXg1rA+Dj5XHEt82GHKfYhNv3fx1ckF/f78kV1s56j/JaSxonzP8zVzsbI0deLTMqk6SrGtK5eK/GLpEeMTtV/aq9rnXK9aYxguOcpH8r4IFR/Risq5FePVkw2Tfsek0zJgnveYmrerQaOenueRcddumBkikk2NYLnZM1N0CjRfEbxnRkItNbvecmE7zHxkosQNsvaPCwDuegHJSn0+QnaVEG3MBVViXcGWyLvKoqF5XlfdeEP1AVG8veY3PK29PZv2VfsYidm14f3MzQNNziiNvyrz4sC8Pn9FcS+lsXagx+SpmPJKtvt303BK8VKXsXuLf6wlSEa65n8AF+dawB3AfutQDTlp1ye8/EwUzt2Vfur081mH0CPF+oQVu3Xyy5qLFAOetw6ooHr3L0xopzdOjc4YL1yvbZU+JyosAzDAnHotbIb5Z9qt37opyL4J4w8HXAZxahBTmJ0OR2aJ+1/t91xCgf0AUvVaUHfr5Kmpuzuo368T5m2oJ1CTqtJjyDK5rnzVCv9GFL456TlHBKwAcLKxsP4WoHFB2b2vaTZAxi2aUuTStaGenc6jKuIaALwqOg1Dplz1t75xv/LegP2uIazw323mJ0uaeCaLSLzTO2OoOKCOIkFky300Qb1MwCEZLsUaSgKcSoYhwL4d1VZVVErHAShg/Xh5L6t8nhK8J87aOl0jTSx/Z9tJYOm357KGvZpOAGvMsZWazVg+zCaEwOsznypPUpXsTJFx9L5DjpDfH8DXQtNdCLcJnu7v8Pn2iPWUg90RIQdNOK4t3Cn99njxv67EqaWasnA0UZt5/7mbpuGWzh+rNVIUuJeY+G0wvCinZU/huOaBkttzsfoJUhINvEPD1YuZDwKuJUOQ00Ri6z6k4klVp7UB6zFgwKp4QrkC/48v41pUAjxvIhz1+TqvOVoaens2X91RM/j0xLrJHnllH2SEHlMxYZwhy2qIZByqaZkrb3KxD2qlIoGsToRbhZjzrqyp/QcQ/6tM/oTulSmOPWb5K+FRj1bwtD4P4O7nmZil9pkfis4cJt8BT21znMUnCT3lL5T5wMJ/JASWzIJEhyNiW4CmSipy+vA7s06gErXdpqa+vuugZ4XPf/S37EvGDZdHkfxmNYpecrSflAyZLDfFZw+YOKLaPgBKVXwJwpqieneTdmnw0Td66NkMQb2N1DYiES/PkMeG7kqHIj0Xtdwd8VzPjod70JMKkw6MJoQIUO7eP6CcgrfKFXBSS/uUZn2gu97jlNx8gVOgu1Sb/FxGEn/LmBp9na8R+2a/GMwTxNVXfzEy359mlkHkCVyZCrQkhJb1CfJX3fRAdv6ceA6+OiiWE5zZV8zc/YYG9VaIQCMrzffFZI4RKxHIbDlZIfotKuHWeBFzrCii/2fEECVc/CpDwzlrBkRAVjyRDEeEt111VvrNB2GulJZuz5fquXCIq2rK3KFi5yHM6Pb59zsGrRGwoMc8dYDZlB7SI30LJEuE+t1+5bgdBmmpeArP13imZZyTrW4Vv0m6/7xkGdh9+Ee0spK9avSRvfrnQW9YLNfj7+mHG79tnDxfahdzT5jlZIn6rWDEXwG+bHFAm73yC1KwDeFQBnIq6eC0ZiggXjlg3+fRyKa3smuQLdxWqmv/ZTYC0ez+OaND2lKep8VnDlojErkRl/RXYK6JjF1kCPnQHlOOoYtGMg0nTNlo1cNZ4ZudFrXeLxtftr/w5g28kYE5ZLCF0vLdq3qa/gOgEUZ92ls/mKZKKyg8S8F07591f7O60MpwqG4NejSA8GS4gKBvTaT719Ytb/ynqU1/2ZcYZo+IJvbeJoSswb+t4zebbSQwlut97Fj4Zpn527LMNRxn+HpaKyVdRCW+FZ33ru7cpWA/GU1mBWiAlItybqIsIHwPuCnivKI8mhc6aVM3fMgtgvZvWoLsIXB+bNcJwPYKepZ4TJReXbHdiAl1CvnBwDgPCH4sKffcQ8TcSda36luu8XlXzN+vfSvx5dWJR49m8ZqlR+Z9cqsu9RPP0J8gT4KKfox74liE8m6yLXDCwYPYSU+7lIT2btuivGFL2VmysyfgkPnv4YSIZlHIFFAK3kDcc1L8ZnC0CSrFkiXBpok68KqPReP23bzmf2fb9EY2m26scAZNjs4a3GTWSisr6t4JfGZW3mdxL5G2sXgki4a/MRUr0HVmSfK/UNm/Lh/+qeZvvAKFkP34ZwoxxZ3z28JsNyeplUtvcZ4JI35tViter+hPEbmvZs5OhyPx8jMbg2FoyIHJPxmcNv3RAqZ0CHPeMVjV+26i8reQIneRtDL4Jwik2CnwbJGlMsrb5PbNjnnj75nZiCJchMjuOYtpjwvL2nw6faDSGnfWzhI8QGLVfZLm39CfInwtQHtPUPPUyNJ31EeGzDAMFUTV/098AsniVkoGyyPXnvCY+a8Remz37s8hJDFU3ylty9WpFfWb8RSeIXh/XMCBWSYRB53SGWkwtQVo1f/P2XqqsWyXlQsXRE581/AARZ0qb3AOCR0THDrIMrNEJohfrtWPlvGXJUOQcs4De0Z+DilbVxaw8zLCjEJeL9CdRo/I6Bqy4ly8nOAj4QJ+DrAXhyJwsFUlZY1z9Wn3ElKp/VfM3jgXcBW2aUyTYDLhVK+KzRhoubKFE5b8AKLm9awT6N3nDNd0AH24ANSuK/K0nPaRy9cVP/SfX4ByC7ImgMEH0UkgFrWaf63gb0SfCx/orlr6T17YV84hpXqK+5RYjCfcn47xi/T86oq9YSlROAhA+lpDrmOVdn/GZThB9a8WBeXeWPwdpSqe9iYv/8EauLpxJegZB4Um6GnX/i0FH5Yq/BfW36QRRALgtGJxISE8kQ5HLRBR6k3WWeXVUxJZ5dQ0lKnOu2FtUX9U3K24H79dA0qLx9hOWxBcma1tzaqHmfCgERD8U8gocqabkAYv22e+GykS8XX+CrIF48Wfr5ZtlM549E3G2mmTQENpqkorLFaRBn4OU4vWefh5kBQNnlUJ2DL6uM9R6X7a5OJsV9Tcssc2KatR1PkN6NlvMLa3HtIy84epGgEKWDtR4cB+wzOM7g61Z9Tn337b5XJYgVLjAeGj2kNQ0nrj8lhHLjUabispXE3ov1mfUhlXl9C1NVBGuXkCgG6wapGhcTFjQWRcRLlCt+5nRwJ4Nni1bc+5lLhq0ReQZ6G6fNbxcJJyeNneDRGTPfikDJsqz9C/pPwLhFwPK2khAA5/2Wqg1qx4YVfM36xP9/RrK2yj9rENl8G/aZ424VsRAKdfpzZxJrwjXzCBwVq25RIAspCwBzYlQpDYbn/55m65jolI9IdcvJEQ0LfbTYYYrt3M7RqppOeddDNmMU0F0mM8iX2PN6UysF2guqYsIdYm6iDDxq+ZvGQvwoNuTpb9esTLsuOUNpO9oNnT1RD3flMCLDQnbUEhJu4+jMZHqz7kU0nf0ltbF3PEFl+v05lrxRp1V8zfb7oxMroNHoMdjs4YJtaZTYvI9YAiXY8o11gLpp+WA4qYJ7RPcm9cfpn9NL8Xrx8lQRLjxpFN61NitoMTkt8EYbUzaXlIE/N0dUL60q7r7OoBKbj8/wOspTacnLo78XWR4nOLVA6OVWiafShL0tuGlerXLAaVqJ0GC+jv32JLMlHF/sj7yfdHcnPYH/SOWapOvJ8IvRXG1izwDCz0B5fIdDXQagwuZIPT+aZdEM3EyTUzWtxj++LUrt8Gx9US8gY6OT6pNfpUIJdLUdP+7WWOeO2SS2rCzBVvwChB+a6ubXiTYLKsyOi3Yege5Z5mnXpLY0vWcRW6P3mV5ihxQ/5ghSGV4+lc0SKaX0ck9SPMssIZvd14UeUzUYkk38dR4bvyWEQ2imChtnqUgniyqZyd5N5TDKYANu/uk+8LBjxg42k5JCMb6Vio19PS3LntCuERN1fxNrQBNF/RncXFeHJ81olo0SHWZaypL0vOiejaTf08OKCfqMe8miLcx+BQI9TZLRChcIpqTqGsRaqajO5ixiF0b3t/6HsAlUjOL1hz25aEnNNdSWgjAHYej9I+vM0T17CTPwOOegJKZk+/xBKm+hkH32ymRLGL91CVJp6+qbdY/BApdgVs3n6y5UBI9+aQ0TonOGb5aCACdHHH3GdDoT6J6dpNn4FpPQMm0ud5NEBt0mjIFZ2I8lqiPfDsbYxPnb6olUFM2ulbRYXBd+6wRwltw9PjVqPwIA1dZJZe8xUF8huxXM13JdhNE/4c3HNQLp5XlzbFVDDNflaxvzWrVztaT9iwn5fqwKcvcfkikNxcq6YuAVNc25ZCjpiHTim4vglQ01rQScYlNRvcfTwb+5XZj4qqaiF52VfiaMG/reMlmfQw1lk5bPntoVkcAMgSJepYAfK4wWPZTeEkOKLv75exFEF84+BMG7rBfTtlEzOFkqDXrRYnJ87YeqxI3A2zxj2W0ys00Y9nsoR9mg5Kuk47LV2taaZ4a7AWTX8kB5fpd/39vgjTW+Jm45B+ju5Jn4JrOUOSBbG8cfc/WCvfWB0H8nWxt5FWP6ZGz1aHfa2ggLVs/m5aifIgkv0xkvwLn2eRMhMvdfmVhrwQ54+kLRvRslf8BglCfumwCsYYOfwzwxGRocU4NYHbOS2YCGGaNvLAFGi/I5iPgvvErUc/PAc7qCLNFsBAKgzWM8UxWdhch3OsJoluqCAd/R0BWqzxCkVhHuDUZigRzDWfnthSdJJfkaitH/Sc5jQXtc4a/maMdKFH3aQDph+n2u09ytW1R/XflgPK1PWPbL3FfuKaawRGLJpCfsJjnJutbhbdc9BaMvgtYIsxkUEGLORP4VY2xoH32CNPGTo25I8wk/LU9P4NUCKt0uxxIzeqXIBUPXS3TwRv0cvZfLERIlvFhIkkycxN5041guhxE+W0LwPweiH93tjLirlzmGvuOQ2qZfClJeNwy41OAQNwu+GiislcRvF4fnRXh4D2Ekj1K2TfUJpJkl5PAvK3jNWK/PtcBoP/JtQe7PuFuB6hdYopFc1i67QuIDS/goIM8st651k69K3OlUJscUPbbgNkrQXyDbDVrL2TzQJJd9qfcy0NSm7dOYo3PAOEYJhxDzMcCdEwvrd96AP6IiT4kxkdgfEQSvewZPrRtyXXUk+vd0J++EvM0gLlEa131njkzrvFMUvZb0exz8uUNB/XjlKfmcyAsazuPJOkr5x39SdLH6j9XyPWhSAs0M3HMHKUlvAzCUDPtWtkWEf6zXVK+Nnwi1u0bZ58EqWiqvpWYcm5MY2Vg+o2NuCFZ1zrXtvFnGXgqKj9JwMVZqttSjYBH3QHlyt6C75MgvnC1j0EdtszYpKD12qyulHZzx7cWbzDJpKXNqG2eIBO3WDrIPARH0Ka5A+leC+b1u77tbapZDuZv5CEmO5l8XSLc3FEXWWqnoEVj5UXwqIfKL5Zir8H+sGBgtSeg9LkY0S9BfE01NzDzAlGwS1GeiW/prGudV4q5ZeY9y9w3QaI7SzW/vvOiW+VAqs8FiX4JUhmu+4oGtaTPqgveEE9r0G5+LbT4XUE9S4tzfMgJqqbpB6Hs2u04a3z33VpieJK+S9DbGPwtCFdkHUHJKfJaQLq17KAtC5dMXZLX5dZCQafG5IeZYc0Nl3kFgZ6TA6l+K/kPuMfG21R9Brj0j1lmMQ7vgnihR+aFK6sX6wfNbHmpMdcUZukFWwafY9Aa0zeHTEo93Z+ZAQmiK5dYF6ocYd3vIbwWpC10qbRw1cXZHcAyOSAhc0pUju/8wi+kZ3dhAv3RHUhNGSgPYwR5avokSNKygYwN8p9vAWOhRvxkts17Co1fqk3+ARHuLbRfK/gjphr3pNSAGzsNESTzFGmsfhpEF1ghOavHQMD7DKwgwvLt6vbnV1/8vOlNZiqenTaUN7nHk8s1prOu5W5RTLYtOeDzspx+kYHjRHVtL0+IyX4lYCQP4wRZNOMCaFq/72tGHA5KGaI/EfPzJEkvKkp67cFHffKv5ROXqyJYjFs042vptDYehHEMVIAxhggSGGOT9RHhKutKVL4Hg3FDauZwC9W7A6mwEfwNEyTzFGmqWQbmSUYMOzL9I0CELmasBdG/WOO1BF5LEh3CGg6FRIdA0w4F0SFEOJQZhwJw72+R70mGWn8kirUSdU8ESJ97DMZrhRxQDH/8FiNIuCYEcONgRNVyORM2bByx9ei/ZbHUrEQ9zwF8nuVyKkBATLjM41eeMOpKiCCZp0g4qH9QOsOoA0cuPwgQ4+pEfeQRUetqVL6Sgf8R1SsR+VfkgHK6SC7iBGkKXgEu4VYJIugVSZaAlxKhyO7aTUbD4HYcoWpyOxiZwsyD7WLGlZ5JyqMieQsTZOdcxNnEKIKy2bLEZybrWoU7EyttnjtA/BOzw7GDPWYkPZMUn2isWRFkUJ84FEXYbHnGw8n6yHdFze6sULKi98m+qDX7yTPwbU9AEe4PkxVBdHgqwsE7CBiUv42KeHtsU4ekj3pj+h82isagxuRFzKXdtqAvTAh42B1QhH+p6PayJ8hD04bSwR6975/wY0t0cB35HQgQcH0iFPmVKB5q3HMRa/x7Ub2SkCe87VYVP52DrPbLZU0QHTxfU3AaM54pCSAtngQROhN1Ea9omNyOkWo6s99qjKhuKcgTaLo7kPpDtrnkRJCdr1qDs0RQtohnq6dpk5MXLW4TVVei7lsAulVUrzTk6S45kPpxLrnkTJDK1umHaT3SiyCMziUQR7dfBJ5IhiKXiWKUisljifUaWjhIVLcE5Fe6U0oVTUVOZ3ZyJkjmVauxuo6JDO1tKQHgC55CmpWjX69/Zq2o41Sb/BgRhIkl6seS8mn2y+eoOW+nMYUgmVetxuDDRIPxVFp+bw8Cbk6EIsJnxQdrhZLMaDDfIk9STakfYBpBfI0XHsvk1le1BldN3/zy491kKLJXtXEj7nglDlS3yW3gwbgliJbIgdRUIzgZkTGNIJlXraeCl7AEwxvBjAQ4qGUkvjBZ2yq8SqjE3DPBdNdgw46ATzUicjXQAAAH60lEQVQJfk+V0mlW7qYSZMd8pOY2Jp5tVoCD2E4kGYrUiObfE/V8TQLr796jRHXtLk/AVe6AklVz1r5yN50guiNvU00zmIUH1+4DZGb8DPfxnaGmNaI21Tb5ASZ8T1TP/vJ0hxxI/dTsPPJCkB0kCb4FxslmBzwY7DHxbZ11rXNEc1XbXOcxSb2W0BS1ZSd5Bpo8ASWUj5jzRpCx4elflSDpbcDkfAResjYZ/0zWRz4vmh8zSI3JennUwXbiMyEHlEpRvIzK540gmflIU7CWGU1Gg3HkdASoPhlqEf6mlI7J39cY9w0qDBmfuN3KCTQRH+cr77wSxJm0Cw/bkmQoIrxEydEDvqggHSXgC8Ieba3Ap8sB9ZV8ppB3gmTmI+GgvlnswnwmUgq2WZVO6bykebVoLqk2+RdEEC7eIOrHSvLE+JZ7kpL3HooFIchOkugrMs5HxD7uMgbf3Rlq1dtIC11K1B0ASHgTo5ATqwkTzZP9qYI0dyoYQXaSRN845rEa3sWORy8BlHj35CPR0KA36BS6lDb3oCroR0CTO08rVr0BX1CC7CTJBwAyvficawcCBLoiEWr5nSgeqTb5O0R4WFTPtvJMz8uTUucXMv6CE0RPzhcOJjPVAZ1LR2B5MhTR20MLXRw78GiVVX1Zd1AcM2DgN56Acq0QSCYIF4UgO58kzwMQXrExIWdrmZCkccnaZuFekErUczvAN1srmXxFwzfJAfXn+bLen92iEWQHSaofBejyYiRuBZ8M+k1nqEX4t6LS5j4TRNFeeqtbIS1TY2ANl3kmG6+EaKrzXIo2mBWIN1zzS4CvN8uejexsTqWGHvHWZU9sEY1ZjcqNDORla4VoLPmUN9qiIK8x5NO4UdsVjcG7iCC8xGnUviXlGN9P1kfuF41NjcmXMiPv6/+icZktT6RNdfvTS8y2K2qvqK9YewZb0Vh9OxENjndq5o5kfes40cHiKA5TWP4jEYSrm4j6Kpo8oxsuniFXqXpL6qJfliGIjkRFODiXAOFdrEVHUTQAponJ+hb99KXQpUTdcwCaK6RkI2EG/grgEk9ASVglbEsRRAclcyrRhZ+DcaRVQDIzDgYWdoYiwgsTqajsI0Bf1j3EzHgsZCvqluh6qkq9Y6GYsq+smM8kvOHpJwGSvqw3YJPFfMZhum2GlnZJR7xe29wtajsVlRcS8C1RPVvIE+5xVyk3EEF4J0G+87PcE2SveUmJ1f8lphsT9S0LRAe1p81TKxGX3LGBzBlyDTM9kxXL9iuxNEEyr1w7am7pTxO7N5t8OxmKCJ+w5HYMV9Oy/lFVuB+IKBELLL+SGTd4JimvFtivkDvLE0TPxrtoxgnQNL1KxzSh7CwlTFOToRbhZUsl5r4JTMJ1sSyV+j7B6NXWXS7lBpqIzVaOU4/NFgTZBWJFU/WtxFSQbc4mD1xTMhQR/rDX0+Y52UXaEgYdbXI8xTKnSIQbXH7FNicfbUWQzCtXuKaawfor15eKNcqiflmSPtdZ26zvYha61Kj8IANZ9bUQclQY4deR5plmlAMtTLg7vNiOIHrQ456sPkaV6YfE+KHVi0IQ0ZxEXcttooOqxodcwCXSl54Ij7hUZXa2PTpEsTNT3pYE2QXA2EUzKiRN00lyqZmgmGhrTTIUOV7UHrfDrWqe58E8WVTXSvL64SYG3y8H1JesFJdILLYmyK5EvU3BqdjxNLHUDUWgYCLU0ioyILpsOir/UAPuEdWzijwRLYGWvt89Ka2vvtn6KgmC7BoBX7jmcma+HoRTLDAqzyZDkQtE4+AXh3xZSWkvEEH4ySPqy2x5BlZKRL92+1ONZtsulr2SIogO4mmLZhyoqunrWdKfKFS0+rSs4audF0X+Ijqwqaj8KwKuE9Urpjwz3gbh156A8lAx48iH75IjyC6QxjeGPq+Qcj0h8+pV0IuBOztDEeGdydvb3Oe49NcTmyyeMPABMf/aPUz9NZ2ObQUFuUDOSpYgu1+7ngqO1iTUEjItkL+ad1wJ/07WRY7Kxo8SdT8DkB0+hr4J4kY3qwspgPXZ5GoXnZInyO6BaGiQvCe+rZdCrSXi6fkaICJcmqiLPClqPxWTv0eMB0T1CilP4D+kIYWHBFIlty+sLxwHD0H2QKAyPP3rGlEtmGoBUyfD0WQoIlw8emvbAcfJSD8PwkmFvOEN+lrPjEZIaPT4FeHiEgZ9WFZsUBJk12gcf++UISPLDqwFkf76lfurDWNssj7yuuhoK1HPzwDOqV2xqE8D8q8y0Ch7lEY6G8Lb8w3Yt4XIoCbIniNU2Rj0agT9iaIXJhOeqzDwq85QRLj4hLLM/Q0QvQDCUCvcMfrTQpKkRre/51krxFPsGByC9DICFeHqsRLoLAbOYsZZRCgfYKA+3SZJ5e/UNqdEB1SJyouwYwGhWJd+vHWlBnolnXatHHrOtg+LFYgV/ToEMTAqFY3BcQSeAqJvgHAmGO491YhwdaIu8ogBU3uJqDH528wQLjkq6mcf+TcIWAnQSy7NvYImbxXuv56jf1upOwTJYrj2IMy5+s6QZChyhqgZXopy1ZU5CJXvCiVvMmOFBHpxm5JaMWLq4J1PiI6RLu8QJBvUTNBRop65AJtRwYWZsYZAa5h4DYHXEEtr0hrWeD5NraHa0vyAZ8IQGDLhEMQQTOYKcVwep2rI4pQg/wcsrWHmNSTxmjTcaw4IbP+7udE51vZE4P8ApFxiaDU5SwgAAAAASUVORK5CYII=;" vertex="1" parent="1">
          <mxGeometry x="50" y="155" width="30" height="30" as="geometry" />
        </mxCell>
        <mxCell id="gVNQZNhaFQQdqfOZjz-5-15" value="" style="shape=image;imageAspect=0;aspect=fixed;verticalLabelPosition=bottom;verticalAlign=top;image=data:image/png,iVBORw0KGgoAAAANSUhEUgAAAMgAAADICAYAAACtWK6eAAAAAXNSR0IArs4c6QAAIABJREFUeF7tXQl0G9W5/v6RRoEsEBY77N1ooQ1QEktOWJtYSiCBQGM5tszWspT2QUvpIZTShDwHEqAltBRK2V5pWIrl2HLKmiaW5BBKIJbMFiilNO0r0DSxCQ1ktWY0/zujLC+Ll7nSSJqRZ87JIcH/+t35PHPv3Pv/BOfKGwL/qRrzuZTk/jIxjySWRmqSdoj+X0D/N0Yy4RAAIwk0ksGZv+8MZiMIG8HYCGAjARtBvJFBG6HhU/2/TNpGCbQxDemDI2Or/py3JAa5YRrk+ZuSfvekMUdpmms0E06SGKMBGg3wSQANN8XBwEbSAN5m4G1iWk0S3nYhvfrQaOcHA6s6Ev0h4BBE8P74d8A7wcXIkIGYRhMwmoFDBc0USvwznTgEWs2svZ2W8PaR0eTyQjkvBT8OQQYYxU8CFQcrLJ1PwPlgnAfCCDsPvP66xsDTzPS01CNHy15+eZOd88l37A5BekF4g3/c11Tw+WCeTAR/vgehmPaZ8AyYXyDJFS9vW/V+MWOxom+HIDtHpds/biJDm0RAgAGfFQerADG9RECUSYqXR1f9qQD+LO9iUBNkbWDsV93svgTgGgBfsfxoFTbA90DcQiw9Xhbr+GthXVvH26AkiD7RdrOkE+NSBjzWGQ7rRcLANon4MY2lx0fFOl6xXoT5jWhQEaTL76vTSQHQefmFtUStE5o1psePiHU8V6IZ7pdWyRNk43lnHpLa3nMpAP2Pd7AMbD7zZCDuInrs8GjH4/n0YwXbJUuQPeYXOjGOtQLYJRjDm0T0WA/j8WNiHRtKMD+UHEE+CVQcp8J1IzFf7cwvCnbLfgSmX7+jDb174vLlasG8FsBRSRGky++7DsCNAI4pAHaOi30QYKCDmBaUxzuaSwWckiBIV5V3ChHNZKCqVAbG5nmEVYnuPqqtI2nzPOz9irW+quJLErluZPB37T4QpRY/AykC7h7idi84eOkrn9g1P9s+Qdb7fTfQjtepUXYFfzDETYS/QKO7y+Id/2PHfG1HkO4q3zSmDDHOsiPggzjmJRLTgsPjHXE7YWAbgvxjwqkjh7k8dwN8hZ0AdmLdGwEC3VUW6/ixXXCxBUHWT6z8Orn4fjDOsAuwTpz9IrDE46JrRy7r+IfVcbI8QdYFvBdKTPoX24OsDqYTnxACH4LpBqsvCVuaIOv8vh9KwD1CsDvCtkKAgVtHxRL/bdWgLUuQrkDlfWD+vlWBc+IyFYFIeSyhHzmw3GU5gnSfU3Gkpkpt+llvy6HlBJRPBN7TXD0VRyx7a0s+nYjathRBNgTGjU+zNujOHIgOWinLk4QJZW2JF62So2UI0lVVeROI77QKME4cxUOAgZmjYom7ixfB/3u2BEG6/L4lAM61AiBODNZAgJnnjoonG4odTdEJ0hWoXKpXDyk2EI5/6yFgBZIUlSDdft8zDEyz3tA4EVkFgWKTpGgE6fL7WgAErTIQThzWRaCYJCkKQdZX+X5PhIusOyROZFZDgJgbyuLJuYWOq+AE6aryPQrC5YVO1PFnfwSKQZKCEmR9wPsAMX3P/kPlZFAsBAr9ulUwgnQHfL9kxvXFAtbxWzoIFJIkBSFIV8B3Jxg3lc4QOZkUG4FCkSTvBOn2++YyMKfYgDr+Sw+BQmxLyTtB1gd81cSIlN7wOBlZAYEDQIcflMeidXkniA5il9/XDmCCFQB1Yig5BP5eHkt8KV9ZFYQg6wIVJ0ssvZWvJBy7gx0B/m15LHlVPlAoCEH0wNcHfA8T4zv5SMKx6SDAhGtGRRMPmI1EwQjCU6YM6U59vN3sBBx7DgK7EWCeWh5P6jvDTbsKRhA94u6A90Zm+rlp0TuGHAT2RkBJQzrVzL7xBSXIzgn7h05xaee+ziMCy9Wh2nlHPdu51QwfBSfI+qrK6UTcakbwjg0HgT4QWFgeS5iy36/gBNnxFPHGAZroDK+DQL4QMOtLe1EIsm6C9yTJRavzBY5j10EAwBZIOLO8LfFGLmjkTBDfounnJmoX/1E0iPV+30MEXC2q58g7CBhFgBlPjYonLjYq35tcTgTxhmtCAF+fDEXGiwbRPmGCe7RriyKq58g7CAghwFSbS3nTHAkSfBfAiQS+NhFq/Y1Q4JllX99MZtwlqufIOwgYRYCARFksUWlUfl+5rAlSEQ7+hIA7dINE6NpK0pfeqW3eLBpIt9/3TwaOE9Vz5B0EDCPANLs83jHfsPweglkRpHLRjC9omvZnAAfsssWEBZ11Eb2xjdD1cWDchRprfxBScoQdBMQQ+LQsPexwyqIDb1YE8TYFHwBjv6OzLEmndNY2C69Orff7YuQ04BQbckdaEAF6tDzWcaWgkngTz7FPTa+SJCnWh6PWZCgiXMrn48kVJ2ppSZ/POJeDQN4QINAJZbGOv4o4EH6CeJtqloC5nzKh9M1kqOVpkSB02fX+ygfJ6VYrCpsjL4bA8vJYQugDtRBBvI3VV4JooG6lrydDkbFice+Q7vL7OBs9R8dBQACBKeWxhOHvdoYJcurib45097j01gQnDhwM/SgZahHuDNXt993AwIKB7dtfgoAUgO0ao4cI+jGA7bz777QdYNX+WVozA5GniGGCeMPBeQBmGUz5U9Y8x3de1PixQfndYt3+yv9l8OdE9awtz++C9a019JoEJLhHTpS9/PIma8fsRKcjYIgg3pbgGKhYueey7sDw8X3JUOt1A8vtLdHtrzyfwc+K6llMfgkR4hpoNUvu149YtrLLYvE54RhEwBBBfOGaBQy+waDN3WISw9dRH0mK6nX7fW0MBET1iiy/BERL4HItKV/6yt+KHIvj3iQEBiRIZu6Rcq0G4xhRnwQ8lwhFhNsbdJ1z2vFQ1fdF/RVDnoBnAXq4LNbxXDH8Oz7zi8CABPGGa74L8IPZhsGg2s5QS7OovuXr+BItI8Z9DjFER9Ze8gYIEsypphUDf+4MRbLqWGvRZd81xLSgLN6R9S8Ne90igzvafgnia6zxM3E0V4iY6Sed9S0/E7XTHfD+iJl+IaqXL3kiLNBYWjAqtmp9vnw4dq2FQL8EqWgMPkxkSi2rbS6Zv7Iq2PqRaPpdft8/AHxeVM9MeQa/BeYbR8U7l5lp17FlfQT6JEjFohnHkcarAT7InDTooWSoRbg3SFeVdwqIXjAnBnErRPSExnSj89QQx64UNPokiDcc1Leum1vDivjMZF3ry6LAdfl9+m/uSaJ6ucoz48ZR8cSg+LKfK1alqt8nQXxNNUlmrjA1cea2ZH2rcMvndZMrvyCl+e+mxjKAMQJNc1aoCom4NX31SpCKpuA3ibE4HyGThksTF0WeFLXd5ffdD+AaUb1s5EmTvGXtqzqz0c1W56zbN5XJnD5W11fI9eFLPx3Rna2tbPSUNvegr74vT1KX74tdrwTxNgbDINRlA7QBnb9tk6TR79Q265v1hK5CLPuSWzuqbGnnv4UCMyg8o4E9n7i2VDHhGyAcw4RjiPlYgPSPsEP2MdMD8EdM9CExPgLjI2K8eGh6WLy5gYSxMxKiEvPcBeaZRmRLT4Z/KgfUzBHyPa/9COJrvPBYJvcH+QSAiOYk6lpuE/XRFaj8AZjvFdUzKl8eSwz4XciorV1yVfO3jCXWzmSiAAhTwXCJ2thnxNJgvEDMUSbpT/FZw17Lyd4+ympMfoQZeWklYGac5tui5+RAar9dH70QpLqOicLmB7CXRU1N48Q3Lo4Ibyfp8vv0ucgXzI6PJL6wrC35jBl2GxpYWiFvuhGQvgXgq2bY7MfGu4D22NnKiLsaGkgzw5cadTczqMYMW3axQcAGRXF5D5yy/X/7fYJUhIP3EPDDfCfGwMLOUES4fuoGv3dSGmTu9wjCz8qjiZ+YkfPEeZuCEmEmg4RrheXin8CvaowF7bNH5Nzujv+EEep2Wa+fbLcNo7lACGZc4Zmk/K5fgnjDwQ4Avpw8GVQmpkCivqWv8+19WukKeJeCSXg1rA+Dj5XHEt82GHKfYhNv3fx1ckF/f78kV1s56j/JaSxonzP8zVzsbI0deLTMqk6SrGtK5eK/GLpEeMTtV/aq9rnXK9aYxguOcpH8r4IFR/Risq5FePVkw2Tfsek0zJgnveYmrerQaOenueRcddumBkikk2NYLnZM1N0CjRfEbxnRkItNbvecmE7zHxkosQNsvaPCwDuegHJSn0+QnaVEG3MBVViXcGWyLvKoqF5XlfdeEP1AVG8veY3PK29PZv2VfsYidm14f3MzQNNziiNvyrz4sC8Pn9FcS+lsXagx+SpmPJKtvt303BK8VKXsXuLf6wlSEa65n8AF+dawB3AfutQDTlp1ye8/EwUzt2Vfur081mH0CPF+oQVu3Xyy5qLFAOetw6ooHr3L0xopzdOjc4YL1yvbZU+JyosAzDAnHotbIb5Z9qt37opyL4J4w8HXAZxahBTmJ0OR2aJ+1/t91xCgf0AUvVaUHfr5Kmpuzuo368T5m2oJ1CTqtJjyDK5rnzVCv9GFL456TlHBKwAcLKxsP4WoHFB2b2vaTZAxi2aUuTStaGenc6jKuIaALwqOg1Dplz1t75xv/LegP2uIazw323mJ0uaeCaLSLzTO2OoOKCOIkFky300Qb1MwCEZLsUaSgKcSoYhwL4d1VZVVErHAShg/Xh5L6t8nhK8J87aOl0jTSx/Z9tJYOm357KGvZpOAGvMsZWazVg+zCaEwOsznypPUpXsTJFx9L5DjpDfH8DXQtNdCLcJnu7v8Pn2iPWUg90RIQdNOK4t3Cn99njxv67EqaWasnA0UZt5/7mbpuGWzh+rNVIUuJeY+G0wvCinZU/huOaBkttzsfoJUhINvEPD1YuZDwKuJUOQ00Ri6z6k4klVp7UB6zFgwKp4QrkC/48v41pUAjxvIhz1+TqvOVoaens2X91RM/j0xLrJHnllH2SEHlMxYZwhy2qIZByqaZkrb3KxD2qlIoGsToRbhZjzrqyp/QcQ/6tM/oTulSmOPWb5K+FRj1bwtD4P4O7nmZil9pkfis4cJt8BT21znMUnCT3lL5T5wMJ/JASWzIJEhyNiW4CmSipy+vA7s06gErXdpqa+vuugZ4XPf/S37EvGDZdHkfxmNYpecrSflAyZLDfFZw+YOKLaPgBKVXwJwpqieneTdmnw0Td66NkMQb2N1DYiES/PkMeG7kqHIj0Xtdwd8VzPjod70JMKkw6MJoQIUO7eP6CcgrfKFXBSS/uUZn2gu97jlNx8gVOgu1Sb/FxGEn/LmBp9na8R+2a/GMwTxNVXfzEy359mlkHkCVyZCrQkhJb1CfJX3fRAdv6ceA6+OiiWE5zZV8zc/YYG9VaIQCMrzffFZI4RKxHIbDlZIfotKuHWeBFzrCii/2fEECVc/CpDwzlrBkRAVjyRDEeEt111VvrNB2GulJZuz5fquXCIq2rK3KFi5yHM6Pb59zsGrRGwoMc8dYDZlB7SI30LJEuE+t1+5bgdBmmpeArP13imZZyTrW4Vv0m6/7xkGdh9+Ee0spK9avSRvfrnQW9YLNfj7+mHG79tnDxfahdzT5jlZIn6rWDEXwG+bHFAm73yC1KwDeFQBnIq6eC0ZiggXjlg3+fRyKa3smuQLdxWqmv/ZTYC0ez+OaND2lKep8VnDlojErkRl/RXYK6JjF1kCPnQHlOOoYtGMg0nTNlo1cNZ4ZudFrXeLxtftr/w5g28kYE5ZLCF0vLdq3qa/gOgEUZ92ls/mKZKKyg8S8F07591f7O60MpwqG4NejSA8GS4gKBvTaT719Ytb/ynqU1/2ZcYZo+IJvbeJoSswb+t4zebbSQwlut97Fj4Zpn527LMNRxn+HpaKyVdRCW+FZ33ru7cpWA/GU1mBWiAlItybqIsIHwPuCnivKI8mhc6aVM3fMgtgvZvWoLsIXB+bNcJwPYKepZ4TJReXbHdiAl1CvnBwDgPCH4sKffcQ8TcSda36luu8XlXzN+vfSvx5dWJR49m8ZqlR+Z9cqsu9RPP0J8gT4KKfox74liE8m6yLXDCwYPYSU+7lIT2btuivGFL2VmysyfgkPnv4YSIZlHIFFAK3kDcc1L8ZnC0CSrFkiXBpok68KqPReP23bzmf2fb9EY2m26scAZNjs4a3GTWSisr6t4JfGZW3mdxL5G2sXgki4a/MRUr0HVmSfK/UNm/Lh/+qeZvvAKFkP34ZwoxxZ3z28JsNyeplUtvcZ4JI35tViter+hPEbmvZs5OhyPx8jMbg2FoyIHJPxmcNv3RAqZ0CHPeMVjV+26i8reQIneRtDL4Jwik2CnwbJGlMsrb5PbNjnnj75nZiCJchMjuOYtpjwvL2nw6faDSGnfWzhI8QGLVfZLm39CfInwtQHtPUPPUyNJ31EeGzDAMFUTV/098AsniVkoGyyPXnvCY+a8Remz37s8hJDFU3ylty9WpFfWb8RSeIXh/XMCBWSYRB53SGWkwtQVo1f/P2XqqsWyXlQsXRE581/AARZ0qb3AOCR0THDrIMrNEJohfrtWPlvGXJUOQcs4De0Z+DilbVxaw8zLCjEJeL9CdRo/I6Bqy4ly8nOAj4QJ+DrAXhyJwsFUlZY1z9Wn3ElKp/VfM3jgXcBW2aUyTYDLhVK+KzRhoubKFE5b8AKLm9awT6N3nDNd0AH24ANSuK/K0nPaRy9cVP/SfX4ByC7ImgMEH0UkgFrWaf63gb0SfCx/orlr6T17YV84hpXqK+5RYjCfcn47xi/T86oq9YSlROAhA+lpDrmOVdn/GZThB9a8WBeXeWPwdpSqe9iYv/8EauLpxJegZB4Um6GnX/i0FH5Yq/BfW36QRRALgtGJxISE8kQ5HLRBR6k3WWeXVUxJZ5dQ0lKnOu2FtUX9U3K24H79dA0qLx9hOWxBcma1tzaqHmfCgERD8U8gocqabkAYv22e+GykS8XX+CrIF48Wfr5ZtlM549E3G2mmTQENpqkorLFaRBn4OU4vWefh5kBQNnlUJ2DL6uM9R6X7a5OJsV9Tcssc2KatR1PkN6NlvMLa3HtIy84epGgEKWDtR4cB+wzOM7g61Z9Tn337b5XJYgVLjAeGj2kNQ0nrj8lhHLjUabispXE3ov1mfUhlXl9C1NVBGuXkCgG6wapGhcTFjQWRcRLlCt+5nRwJ4Nni1bc+5lLhq0ReQZ6G6fNbxcJJyeNneDRGTPfikDJsqz9C/pPwLhFwPK2khAA5/2Wqg1qx4YVfM36xP9/RrK2yj9rENl8G/aZ424VsRAKdfpzZxJrwjXzCBwVq25RIAspCwBzYlQpDYbn/55m65jolI9IdcvJEQ0LfbTYYYrt3M7RqppOeddDNmMU0F0mM8iX2PN6UysF2guqYsIdYm6iDDxq+ZvGQvwoNuTpb9esTLsuOUNpO9oNnT1RD3flMCLDQnbUEhJu4+jMZHqz7kU0nf0ltbF3PEFl+v05lrxRp1V8zfb7oxMroNHoMdjs4YJtaZTYvI9YAiXY8o11gLpp+WA4qYJ7RPcm9cfpn9NL8Xrx8lQRLjxpFN61NitoMTkt8EYbUzaXlIE/N0dUL60q7r7OoBKbj8/wOspTacnLo78XWR4nOLVA6OVWiafShL0tuGlerXLAaVqJ0GC+jv32JLMlHF/sj7yfdHcnPYH/SOWapOvJ8IvRXG1izwDCz0B5fIdDXQagwuZIPT+aZdEM3EyTUzWtxj++LUrt8Gx9US8gY6OT6pNfpUIJdLUdP+7WWOeO2SS2rCzBVvwChB+a6ubXiTYLKsyOi3Yege5Z5mnXpLY0vWcRW6P3mV5ihxQ/5ghSGV4+lc0SKaX0ck9SPMssIZvd14UeUzUYkk38dR4bvyWEQ2imChtnqUgniyqZyd5N5TDKYANu/uk+8LBjxg42k5JCMb6Vio19PS3LntCuERN1fxNrQBNF/RncXFeHJ81olo0SHWZaypL0vOiejaTf08OKCfqMe8miLcx+BQI9TZLRChcIpqTqGsRaqajO5ixiF0b3t/6HsAlUjOL1hz25aEnNNdSWgjAHYej9I+vM0T17CTPwOOegJKZk+/xBKm+hkH32ymRLGL91CVJp6+qbdY/BApdgVs3n6y5UBI9+aQ0TonOGb5aCACdHHH3GdDoT6J6dpNn4FpPQMm0ud5NEBt0mjIFZ2I8lqiPfDsbYxPnb6olUFM2ulbRYXBd+6wRwltw9PjVqPwIA1dZJZe8xUF8huxXM13JdhNE/4c3HNQLp5XlzbFVDDNflaxvzWrVztaT9iwn5fqwKcvcfkikNxcq6YuAVNc25ZCjpiHTim4vglQ01rQScYlNRvcfTwb+5XZj4qqaiF52VfiaMG/reMlmfQw1lk5bPntoVkcAMgSJepYAfK4wWPZTeEkOKLv75exFEF84+BMG7rBfTtlEzOFkqDXrRYnJ87YeqxI3A2zxj2W0ys00Y9nsoR9mg5Kuk47LV2taaZ4a7AWTX8kB5fpd/39vgjTW+Jm45B+ju5Jn4JrOUOSBbG8cfc/WCvfWB0H8nWxt5FWP6ZGz1aHfa2ggLVs/m5aifIgkv0xkvwLn2eRMhMvdfmVhrwQ54+kLRvRslf8BglCfumwCsYYOfwzwxGRocU4NYHbOS2YCGGaNvLAFGi/I5iPgvvErUc/PAc7qCLNFsBAKgzWM8UxWdhch3OsJoluqCAd/R0BWqzxCkVhHuDUZigRzDWfnthSdJJfkaitH/Sc5jQXtc4a/maMdKFH3aQDph+n2u09ytW1R/XflgPK1PWPbL3FfuKaawRGLJpCfsJjnJutbhbdc9BaMvgtYIsxkUEGLORP4VY2xoH32CNPGTo25I8wk/LU9P4NUCKt0uxxIzeqXIBUPXS3TwRv0cvZfLERIlvFhIkkycxN5041guhxE+W0LwPweiH93tjLirlzmGvuOQ2qZfClJeNwy41OAQNwu+GiislcRvF4fnRXh4D2Ekj1K2TfUJpJkl5PAvK3jNWK/PtcBoP/JtQe7PuFuB6hdYopFc1i67QuIDS/goIM8st651k69K3OlUJscUPbbgNkrQXyDbDVrL2TzQJJd9qfcy0NSm7dOYo3PAOEYJhxDzMcCdEwvrd96AP6IiT4kxkdgfEQSvewZPrRtyXXUk+vd0J++EvM0gLlEa131njkzrvFMUvZb0exz8uUNB/XjlKfmcyAsazuPJOkr5x39SdLH6j9XyPWhSAs0M3HMHKUlvAzCUDPtWtkWEf6zXVK+Nnwi1u0bZ58EqWiqvpWYcm5MY2Vg+o2NuCFZ1zrXtvFnGXgqKj9JwMVZqttSjYBH3QHlyt6C75MgvnC1j0EdtszYpKD12qyulHZzx7cWbzDJpKXNqG2eIBO3WDrIPARH0Ka5A+leC+b1u77tbapZDuZv5CEmO5l8XSLc3FEXWWqnoEVj5UXwqIfKL5Zir8H+sGBgtSeg9LkY0S9BfE01NzDzAlGwS1GeiW/prGudV4q5ZeY9y9w3QaI7SzW/vvOiW+VAqs8FiX4JUhmu+4oGtaTPqgveEE9r0G5+LbT4XUE9S4tzfMgJqqbpB6Hs2u04a3z33VpieJK+S9DbGPwtCFdkHUHJKfJaQLq17KAtC5dMXZLX5dZCQafG5IeZYc0Nl3kFgZ6TA6l+K/kPuMfG21R9Brj0j1lmMQ7vgnihR+aFK6sX6wfNbHmpMdcUZukFWwafY9Aa0zeHTEo93Z+ZAQmiK5dYF6ocYd3vIbwWpC10qbRw1cXZHcAyOSAhc0pUju/8wi+kZ3dhAv3RHUhNGSgPYwR5avokSNKygYwN8p9vAWOhRvxkts17Co1fqk3+ARHuLbRfK/gjphr3pNSAGzsNESTzFGmsfhpEF1ghOavHQMD7DKwgwvLt6vbnV1/8vOlNZiqenTaUN7nHk8s1prOu5W5RTLYtOeDzspx+kYHjRHVtL0+IyX4lYCQP4wRZNOMCaFq/72tGHA5KGaI/EfPzJEkvKkp67cFHffKv5ROXqyJYjFs042vptDYehHEMVIAxhggSGGOT9RHhKutKVL4Hg3FDauZwC9W7A6mwEfwNEyTzFGmqWQbmSUYMOzL9I0CELmasBdG/WOO1BF5LEh3CGg6FRIdA0w4F0SFEOJQZhwJw72+R70mGWn8kirUSdU8ESJ97DMZrhRxQDH/8FiNIuCYEcONgRNVyORM2bByx9ei/ZbHUrEQ9zwF8nuVyKkBATLjM41eeMOpKiCCZp0g4qH9QOsOoA0cuPwgQ4+pEfeQRUetqVL6Sgf8R1SsR+VfkgHK6SC7iBGkKXgEu4VYJIugVSZaAlxKhyO7aTUbD4HYcoWpyOxiZwsyD7WLGlZ5JyqMieQsTZOdcxNnEKIKy2bLEZybrWoU7EyttnjtA/BOzw7GDPWYkPZMUn2isWRFkUJ84FEXYbHnGw8n6yHdFze6sULKi98m+qDX7yTPwbU9AEe4PkxVBdHgqwsE7CBiUv42KeHtsU4ekj3pj+h82isagxuRFzKXdtqAvTAh42B1QhH+p6PayJ8hD04bSwR6975/wY0t0cB35HQgQcH0iFPmVKB5q3HMRa/x7Ub2SkCe87VYVP52DrPbLZU0QHTxfU3AaM54pCSAtngQROhN1Ea9omNyOkWo6s99qjKhuKcgTaLo7kPpDtrnkRJCdr1qDs0RQtohnq6dpk5MXLW4TVVei7lsAulVUrzTk6S45kPpxLrnkTJDK1umHaT3SiyCMziUQR7dfBJ5IhiKXiWKUisljifUaWjhIVLcE5Fe6U0oVTUVOZ3ZyJkjmVauxuo6JDO1tKQHgC55CmpWjX69/Zq2o41Sb/BgRhIkl6seS8mn2y+eoOW+nMYUgmVetxuDDRIPxVFp+bw8Cbk6EIsJnxQdrhZLMaDDfIk9STakfYBpBfI0XHsvk1le1BldN3/zy491kKLJXtXEj7nglDlS3yW3gwbgliJbIgdRUIzgZkTGNIJlXraeCl7AEwxvBjAQ4qGUkvjBZ2yq8SqjE3DPBdNdgw46ATzUicjXQAAAH60lEQVQJfk+V0mlW7qYSZMd8pOY2Jp5tVoCD2E4kGYrUiObfE/V8TQLr796jRHXtLk/AVe6AklVz1r5yN50guiNvU00zmIUH1+4DZGb8DPfxnaGmNaI21Tb5ASZ8T1TP/vJ0hxxI/dTsPPJCkB0kCb4FxslmBzwY7DHxbZ11rXNEc1XbXOcxSb2W0BS1ZSd5Bpo8ASWUj5jzRpCx4elflSDpbcDkfAResjYZ/0zWRz4vmh8zSI3JennUwXbiMyEHlEpRvIzK540gmflIU7CWGU1Gg3HkdASoPhlqEf6mlI7J39cY9w0qDBmfuN3KCTQRH+cr77wSxJm0Cw/bkmQoIrxEydEDvqggHSXgC8Ieba3Ap8sB9ZV8ppB3gmTmI+GgvlnswnwmUgq2WZVO6bykebVoLqk2+RdEEC7eIOrHSvLE+JZ7kpL3HooFIchOkugrMs5HxD7uMgbf3Rlq1dtIC11K1B0ASHgTo5ATqwkTzZP9qYI0dyoYQXaSRN845rEa3sWORy8BlHj35CPR0KA36BS6lDb3oCroR0CTO08rVr0BX1CC7CTJBwAyvficawcCBLoiEWr5nSgeqTb5O0R4WFTPtvJMz8uTUucXMv6CE0RPzhcOJjPVAZ1LR2B5MhTR20MLXRw78GiVVX1Zd1AcM2DgN56Acq0QSCYIF4UgO58kzwMQXrExIWdrmZCkccnaZuFekErUczvAN1srmXxFwzfJAfXn+bLen92iEWQHSaofBejyYiRuBZ8M+k1nqEX4t6LS5j4TRNFeeqtbIS1TY2ANl3kmG6+EaKrzXIo2mBWIN1zzS4CvN8uejexsTqWGHvHWZU9sEY1ZjcqNDORla4VoLPmUN9qiIK8x5NO4UdsVjcG7iCC8xGnUviXlGN9P1kfuF41NjcmXMiPv6/+icZktT6RNdfvTS8y2K2qvqK9YewZb0Vh9OxENjndq5o5kfes40cHiKA5TWP4jEYSrm4j6Kpo8oxsuniFXqXpL6qJfliGIjkRFODiXAOFdrEVHUTQAponJ+hb99KXQpUTdcwCaK6RkI2EG/grgEk9ASVglbEsRRAclcyrRhZ+DcaRVQDIzDgYWdoYiwgsTqajsI0Bf1j3EzHgsZCvqluh6qkq9Y6GYsq+smM8kvOHpJwGSvqw3YJPFfMZhum2GlnZJR7xe29wtajsVlRcS8C1RPVvIE+5xVyk3EEF4J0G+87PcE2SveUmJ1f8lphsT9S0LRAe1p81TKxGX3LGBzBlyDTM9kxXL9iuxNEEyr1w7am7pTxO7N5t8OxmKCJ+w5HYMV9Oy/lFVuB+IKBELLL+SGTd4JimvFtivkDvLE0TPxrtoxgnQNL1KxzSh7CwlTFOToRbhZUsl5r4JTMJ1sSyV+j7B6NXWXS7lBpqIzVaOU4/NFgTZBWJFU/WtxFSQbc4mD1xTMhQR/rDX0+Y52UXaEgYdbXI8xTKnSIQbXH7FNicfbUWQzCtXuKaawfor15eKNcqiflmSPtdZ26zvYha61Kj8IANZ9bUQclQY4deR5plmlAMtTLg7vNiOIHrQ456sPkaV6YfE+KHVi0IQ0ZxEXcttooOqxodcwCXSl54Ij7hUZXa2PTpEsTNT3pYE2QXA2EUzKiRN00lyqZmgmGhrTTIUOV7UHrfDrWqe58E8WVTXSvL64SYG3y8H1JesFJdILLYmyK5EvU3BqdjxNLHUDUWgYCLU0ioyILpsOir/UAPuEdWzijwRLYGWvt89Ka2vvtn6KgmC7BoBX7jmcma+HoRTLDAqzyZDkQtE4+AXh3xZSWkvEEH4ySPqy2x5BlZKRL92+1ONZtsulr2SIogO4mmLZhyoqunrWdKfKFS0+rSs4audF0X+Ijqwqaj8KwKuE9Urpjwz3gbh156A8lAx48iH75IjyC6QxjeGPq+Qcj0h8+pV0IuBOztDEeGdydvb3Oe49NcTmyyeMPABMf/aPUz9NZ2ObQUFuUDOSpYgu1+7ngqO1iTUEjItkL+ad1wJ/07WRY7Kxo8SdT8DkB0+hr4J4kY3qwspgPXZ5GoXnZInyO6BaGiQvCe+rZdCrSXi6fkaICJcmqiLPClqPxWTv0eMB0T1CilP4D+kIYWHBFIlty+sLxwHD0H2QKAyPP3rGlEtmGoBUyfD0WQoIlw8emvbAcfJSD8PwkmFvOEN+lrPjEZIaPT4FeHiEgZ9WFZsUBJk12gcf++UISPLDqwFkf76lfurDWNssj7yuuhoK1HPzwDOqV2xqE8D8q8y0Ch7lEY6G8Lb8w3Yt4XIoCbIniNU2Rj0agT9iaIXJhOeqzDwq85QRLj4hLLM/Q0QvQDCUCvcMfrTQpKkRre/51krxFPsGByC9DICFeHqsRLoLAbOYsZZRCgfYKA+3SZJ5e/UNqdEB1SJyouwYwGhWJd+vHWlBnolnXatHHrOtg+LFYgV/ToEMTAqFY3BcQSeAqJvgHAmGO491YhwdaIu8ogBU3uJqDH528wQLjkq6mcf+TcIWAnQSy7NvYImbxXuv56jf1upOwTJYrj2IMy5+s6QZChyhqgZXopy1ZU5CJXvCiVvMmOFBHpxm5JaMWLq4J1PiI6RLu8QJBvUTNBRop65AJtRwYWZsYZAa5h4DYHXEEtr0hrWeD5NraHa0vyAZ8IQGDLhEMQQTOYKcVwep2rI4pQg/wcsrWHmNSTxmjTcaw4IbP+7udE51vZE4P8ApFxiaDU5SwgAAAAASUVORK5CYII=;" vertex="1" parent="1">
          <mxGeometry x="230" y="155" width="30" height="30" as="geometry" />
        </mxCell>
        <mxCell id="gVNQZNhaFQQdqfOZjz-5-17" value="" style="shape=image;imageAspect=0;aspect=fixed;verticalLabelPosition=bottom;verticalAlign=top;image=data:image/png,iVBORw0KGgoAAAANSUhEUgAAAMgAAADICAYAAACtWK6eAAAAAXNSR0IArs4c6QAAIABJREFUeF7tXQl0G9W5/v6RRoEsEBY77N1ooQ1QEktOWJtYSiCBQGM5tszWspT2QUvpIZTShDwHEqAltBRK2V5pWIrl2HLKmiaW5BBKIJbMFiilNO0r0DSxCQ1ktWY0/zujLC+Ll7nSSJqRZ87JIcH/+t35PHPv3Pv/BOfKGwL/qRrzuZTk/jIxjySWRmqSdoj+X0D/N0Yy4RAAIwk0ksGZv+8MZiMIG8HYCGAjARtBvJFBG6HhU/2/TNpGCbQxDemDI2Or/py3JAa5YRrk+ZuSfvekMUdpmms0E06SGKMBGg3wSQANN8XBwEbSAN5m4G1iWk0S3nYhvfrQaOcHA6s6Ev0h4BBE8P74d8A7wcXIkIGYRhMwmoFDBc0USvwznTgEWs2svZ2W8PaR0eTyQjkvBT8OQQYYxU8CFQcrLJ1PwPlgnAfCCDsPvP66xsDTzPS01CNHy15+eZOd88l37A5BekF4g3/c11Tw+WCeTAR/vgehmPaZ8AyYXyDJFS9vW/V+MWOxom+HIDtHpds/biJDm0RAgAGfFQerADG9RECUSYqXR1f9qQD+LO9iUBNkbWDsV93svgTgGgBfsfxoFTbA90DcQiw9Xhbr+GthXVvH26AkiD7RdrOkE+NSBjzWGQ7rRcLANon4MY2lx0fFOl6xXoT5jWhQEaTL76vTSQHQefmFtUStE5o1psePiHU8V6IZ7pdWyRNk43lnHpLa3nMpAP2Pd7AMbD7zZCDuInrs8GjH4/n0YwXbJUuQPeYXOjGOtQLYJRjDm0T0WA/j8WNiHRtKMD+UHEE+CVQcp8J1IzFf7cwvCnbLfgSmX7+jDb174vLlasG8FsBRSRGky++7DsCNAI4pAHaOi30QYKCDmBaUxzuaSwWckiBIV5V3ChHNZKCqVAbG5nmEVYnuPqqtI2nzPOz9irW+quJLErluZPB37T4QpRY/AykC7h7idi84eOkrn9g1P9s+Qdb7fTfQjtepUXYFfzDETYS/QKO7y+Id/2PHfG1HkO4q3zSmDDHOsiPggzjmJRLTgsPjHXE7YWAbgvxjwqkjh7k8dwN8hZ0AdmLdGwEC3VUW6/ixXXCxBUHWT6z8Orn4fjDOsAuwTpz9IrDE46JrRy7r+IfVcbI8QdYFvBdKTPoX24OsDqYTnxACH4LpBqsvCVuaIOv8vh9KwD1CsDvCtkKAgVtHxRL/bdWgLUuQrkDlfWD+vlWBc+IyFYFIeSyhHzmw3GU5gnSfU3Gkpkpt+llvy6HlBJRPBN7TXD0VRyx7a0s+nYjathRBNgTGjU+zNujOHIgOWinLk4QJZW2JF62So2UI0lVVeROI77QKME4cxUOAgZmjYom7ixfB/3u2BEG6/L4lAM61AiBODNZAgJnnjoonG4odTdEJ0hWoXKpXDyk2EI5/6yFgBZIUlSDdft8zDEyz3tA4EVkFgWKTpGgE6fL7WgAErTIQThzWRaCYJCkKQdZX+X5PhIusOyROZFZDgJgbyuLJuYWOq+AE6aryPQrC5YVO1PFnfwSKQZKCEmR9wPsAMX3P/kPlZFAsBAr9ulUwgnQHfL9kxvXFAtbxWzoIFJIkBSFIV8B3Jxg3lc4QOZkUG4FCkSTvBOn2++YyMKfYgDr+Sw+BQmxLyTtB1gd81cSIlN7wOBlZAYEDQIcflMeidXkniA5il9/XDmCCFQB1Yig5BP5eHkt8KV9ZFYQg6wIVJ0ssvZWvJBy7gx0B/m15LHlVPlAoCEH0wNcHfA8T4zv5SMKx6SDAhGtGRRMPmI1EwQjCU6YM6U59vN3sBBx7DgK7EWCeWh5P6jvDTbsKRhA94u6A90Zm+rlp0TuGHAT2RkBJQzrVzL7xBSXIzgn7h05xaee+ziMCy9Wh2nlHPdu51QwfBSfI+qrK6UTcakbwjg0HgT4QWFgeS5iy36/gBNnxFPHGAZroDK+DQL4QMOtLe1EIsm6C9yTJRavzBY5j10EAwBZIOLO8LfFGLmjkTBDfounnJmoX/1E0iPV+30MEXC2q58g7CBhFgBlPjYonLjYq35tcTgTxhmtCAF+fDEXGiwbRPmGCe7RriyKq58g7CAghwFSbS3nTHAkSfBfAiQS+NhFq/Y1Q4JllX99MZtwlqufIOwgYRYCARFksUWlUfl+5rAlSEQ7+hIA7dINE6NpK0pfeqW3eLBpIt9/3TwaOE9Vz5B0EDCPANLs83jHfsPweglkRpHLRjC9omvZnAAfsssWEBZ11Eb2xjdD1cWDchRprfxBScoQdBMQQ+LQsPexwyqIDb1YE8TYFHwBjv6OzLEmndNY2C69Orff7YuQ04BQbckdaEAF6tDzWcaWgkngTz7FPTa+SJCnWh6PWZCgiXMrn48kVJ2ppSZ/POJeDQN4QINAJZbGOv4o4EH6CeJtqloC5nzKh9M1kqOVpkSB02fX+ygfJ6VYrCpsjL4bA8vJYQugDtRBBvI3VV4JooG6lrydDkbFice+Q7vL7OBs9R8dBQACBKeWxhOHvdoYJcurib45097j01gQnDhwM/SgZahHuDNXt993AwIKB7dtfgoAUgO0ao4cI+jGA7bz777QdYNX+WVozA5GniGGCeMPBeQBmGUz5U9Y8x3de1PixQfndYt3+yv9l8OdE9awtz++C9a019JoEJLhHTpS9/PIma8fsRKcjYIgg3pbgGKhYueey7sDw8X3JUOt1A8vtLdHtrzyfwc+K6llMfgkR4hpoNUvu149YtrLLYvE54RhEwBBBfOGaBQy+waDN3WISw9dRH0mK6nX7fW0MBET1iiy/BERL4HItKV/6yt+KHIvj3iQEBiRIZu6Rcq0G4xhRnwQ8lwhFhNsbdJ1z2vFQ1fdF/RVDnoBnAXq4LNbxXDH8Oz7zi8CABPGGa74L8IPZhsGg2s5QS7OovuXr+BItI8Z9DjFER9Ze8gYIEsypphUDf+4MRbLqWGvRZd81xLSgLN6R9S8Ne90igzvafgnia6zxM3E0V4iY6Sed9S0/E7XTHfD+iJl+IaqXL3kiLNBYWjAqtmp9vnw4dq2FQL8EqWgMPkxkSi2rbS6Zv7Iq2PqRaPpdft8/AHxeVM9MeQa/BeYbR8U7l5lp17FlfQT6JEjFohnHkcarAT7InDTooWSoRbg3SFeVdwqIXjAnBnErRPSExnSj89QQx64UNPokiDcc1Leum1vDivjMZF3ry6LAdfl9+m/uSaJ6ucoz48ZR8cSg+LKfK1alqt8nQXxNNUlmrjA1cea2ZH2rcMvndZMrvyCl+e+mxjKAMQJNc1aoCom4NX31SpCKpuA3ibE4HyGThksTF0WeFLXd5ffdD+AaUb1s5EmTvGXtqzqz0c1W56zbN5XJnD5W11fI9eFLPx3Rna2tbPSUNvegr74vT1KX74tdrwTxNgbDINRlA7QBnb9tk6TR79Q265v1hK5CLPuSWzuqbGnnv4UCMyg8o4E9n7i2VDHhGyAcw4RjiPlYgPSPsEP2MdMD8EdM9CExPgLjI2K8eGh6WLy5gYSxMxKiEvPcBeaZRmRLT4Z/KgfUzBHyPa/9COJrvPBYJvcH+QSAiOYk6lpuE/XRFaj8AZjvFdUzKl8eSwz4XciorV1yVfO3jCXWzmSiAAhTwXCJ2thnxNJgvEDMUSbpT/FZw17Lyd4+ympMfoQZeWklYGac5tui5+RAar9dH70QpLqOicLmB7CXRU1N48Q3Lo4Ibyfp8vv0ucgXzI6PJL6wrC35jBl2GxpYWiFvuhGQvgXgq2bY7MfGu4D22NnKiLsaGkgzw5cadTczqMYMW3axQcAGRXF5D5yy/X/7fYJUhIP3EPDDfCfGwMLOUES4fuoGv3dSGmTu9wjCz8qjiZ+YkfPEeZuCEmEmg4RrheXin8CvaowF7bNH5Nzujv+EEep2Wa+fbLcNo7lACGZc4Zmk/K5fgnjDwQ4Avpw8GVQmpkCivqWv8+19WukKeJeCSXg1rA+Dj5XHEt82GHKfYhNv3fx1ckF/f78kV1s56j/JaSxonzP8zVzsbI0deLTMqk6SrGtK5eK/GLpEeMTtV/aq9rnXK9aYxguOcpH8r4IFR/Risq5FePVkw2Tfsek0zJgnveYmrerQaOenueRcddumBkikk2NYLnZM1N0CjRfEbxnRkItNbvecmE7zHxkosQNsvaPCwDuegHJSn0+QnaVEG3MBVViXcGWyLvKoqF5XlfdeEP1AVG8veY3PK29PZv2VfsYidm14f3MzQNNziiNvyrz4sC8Pn9FcS+lsXagx+SpmPJKtvt303BK8VKXsXuLf6wlSEa65n8AF+dawB3AfutQDTlp1ye8/EwUzt2Vfur081mH0CPF+oQVu3Xyy5qLFAOetw6ooHr3L0xopzdOjc4YL1yvbZU+JyosAzDAnHotbIb5Z9qt37opyL4J4w8HXAZxahBTmJ0OR2aJ+1/t91xCgf0AUvVaUHfr5Kmpuzuo368T5m2oJ1CTqtJjyDK5rnzVCv9GFL456TlHBKwAcLKxsP4WoHFB2b2vaTZAxi2aUuTStaGenc6jKuIaALwqOg1Dplz1t75xv/LegP2uIazw323mJ0uaeCaLSLzTO2OoOKCOIkFky300Qb1MwCEZLsUaSgKcSoYhwL4d1VZVVErHAShg/Xh5L6t8nhK8J87aOl0jTSx/Z9tJYOm357KGvZpOAGvMsZWazVg+zCaEwOsznypPUpXsTJFx9L5DjpDfH8DXQtNdCLcJnu7v8Pn2iPWUg90RIQdNOK4t3Cn99njxv67EqaWasnA0UZt5/7mbpuGWzh+rNVIUuJeY+G0wvCinZU/huOaBkttzsfoJUhINvEPD1YuZDwKuJUOQ00Ri6z6k4klVp7UB6zFgwKp4QrkC/48v41pUAjxvIhz1+TqvOVoaens2X91RM/j0xLrJHnllH2SEHlMxYZwhy2qIZByqaZkrb3KxD2qlIoGsToRbhZjzrqyp/QcQ/6tM/oTulSmOPWb5K+FRj1bwtD4P4O7nmZil9pkfis4cJt8BT21znMUnCT3lL5T5wMJ/JASWzIJEhyNiW4CmSipy+vA7s06gErXdpqa+vuugZ4XPf/S37EvGDZdHkfxmNYpecrSflAyZLDfFZw+YOKLaPgBKVXwJwpqieneTdmnw0Td66NkMQb2N1DYiES/PkMeG7kqHIj0Xtdwd8VzPjod70JMKkw6MJoQIUO7eP6CcgrfKFXBSS/uUZn2gu97jlNx8gVOgu1Sb/FxGEn/LmBp9na8R+2a/GMwTxNVXfzEy359mlkHkCVyZCrQkhJb1CfJX3fRAdv6ceA6+OiiWE5zZV8zc/YYG9VaIQCMrzffFZI4RKxHIbDlZIfotKuHWeBFzrCii/2fEECVc/CpDwzlrBkRAVjyRDEeEt111VvrNB2GulJZuz5fquXCIq2rK3KFi5yHM6Pb59zsGrRGwoMc8dYDZlB7SI30LJEuE+t1+5bgdBmmpeArP13imZZyTrW4Vv0m6/7xkGdh9+Ee0spK9avSRvfrnQW9YLNfj7+mHG79tnDxfahdzT5jlZIn6rWDEXwG+bHFAm73yC1KwDeFQBnIq6eC0ZiggXjlg3+fRyKa3smuQLdxWqmv/ZTYC0ez+OaND2lKep8VnDlojErkRl/RXYK6JjF1kCPnQHlOOoYtGMg0nTNlo1cNZ4ZudFrXeLxtftr/w5g28kYE5ZLCF0vLdq3qa/gOgEUZ92ls/mKZKKyg8S8F07591f7O60MpwqG4NejSA8GS4gKBvTaT719Ytb/ynqU1/2ZcYZo+IJvbeJoSswb+t4zebbSQwlut97Fj4Zpn527LMNRxn+HpaKyVdRCW+FZ33ru7cpWA/GU1mBWiAlItybqIsIHwPuCnivKI8mhc6aVM3fMgtgvZvWoLsIXB+bNcJwPYKepZ4TJReXbHdiAl1CvnBwDgPCH4sKffcQ8TcSda36luu8XlXzN+vfSvx5dWJR49m8ZqlR+Z9cqsu9RPP0J8gT4KKfox74liE8m6yLXDCwYPYSU+7lIT2btuivGFL2VmysyfgkPnv4YSIZlHIFFAK3kDcc1L8ZnC0CSrFkiXBpok68KqPReP23bzmf2fb9EY2m26scAZNjs4a3GTWSisr6t4JfGZW3mdxL5G2sXgki4a/MRUr0HVmSfK/UNm/Lh/+qeZvvAKFkP34ZwoxxZ3z28JsNyeplUtvcZ4JI35tViter+hPEbmvZs5OhyPx8jMbg2FoyIHJPxmcNv3RAqZ0CHPeMVjV+26i8reQIneRtDL4Jwik2CnwbJGlMsrb5PbNjnnj75nZiCJchMjuOYtpjwvL2nw6faDSGnfWzhI8QGLVfZLm39CfInwtQHtPUPPUyNJ31EeGzDAMFUTV/098AsniVkoGyyPXnvCY+a8Remz37s8hJDFU3ylty9WpFfWb8RSeIXh/XMCBWSYRB53SGWkwtQVo1f/P2XqqsWyXlQsXRE581/AARZ0qb3AOCR0THDrIMrNEJohfrtWPlvGXJUOQcs4De0Z+DilbVxaw8zLCjEJeL9CdRo/I6Bqy4ly8nOAj4QJ+DrAXhyJwsFUlZY1z9Wn3ElKp/VfM3jgXcBW2aUyTYDLhVK+KzRhoubKFE5b8AKLm9awT6N3nDNd0AH24ANSuK/K0nPaRy9cVP/SfX4ByC7ImgMEH0UkgFrWaf63gb0SfCx/orlr6T17YV84hpXqK+5RYjCfcn47xi/T86oq9YSlROAhA+lpDrmOVdn/GZThB9a8WBeXeWPwdpSqe9iYv/8EauLpxJegZB4Um6GnX/i0FH5Yq/BfW36QRRALgtGJxISE8kQ5HLRBR6k3WWeXVUxJZ5dQ0lKnOu2FtUX9U3K24H79dA0qLx9hOWxBcma1tzaqHmfCgERD8U8gocqabkAYv22e+GykS8XX+CrIF48Wfr5ZtlM549E3G2mmTQENpqkorLFaRBn4OU4vWefh5kBQNnlUJ2DL6uM9R6X7a5OJsV9Tcssc2KatR1PkN6NlvMLa3HtIy84epGgEKWDtR4cB+wzOM7g61Z9Tn337b5XJYgVLjAeGj2kNQ0nrj8lhHLjUabispXE3ov1mfUhlXl9C1NVBGuXkCgG6wapGhcTFjQWRcRLlCt+5nRwJ4Nni1bc+5lLhq0ReQZ6G6fNbxcJJyeNneDRGTPfikDJsqz9C/pPwLhFwPK2khAA5/2Wqg1qx4YVfM36xP9/RrK2yj9rENl8G/aZ424VsRAKdfpzZxJrwjXzCBwVq25RIAspCwBzYlQpDYbn/55m65jolI9IdcvJEQ0LfbTYYYrt3M7RqppOeddDNmMU0F0mM8iX2PN6UysF2guqYsIdYm6iDDxq+ZvGQvwoNuTpb9esTLsuOUNpO9oNnT1RD3flMCLDQnbUEhJu4+jMZHqz7kU0nf0ltbF3PEFl+v05lrxRp1V8zfb7oxMroNHoMdjs4YJtaZTYvI9YAiXY8o11gLpp+WA4qYJ7RPcm9cfpn9NL8Xrx8lQRLjxpFN61NitoMTkt8EYbUzaXlIE/N0dUL60q7r7OoBKbj8/wOspTacnLo78XWR4nOLVA6OVWiafShL0tuGlerXLAaVqJ0GC+jv32JLMlHF/sj7yfdHcnPYH/SOWapOvJ8IvRXG1izwDCz0B5fIdDXQagwuZIPT+aZdEM3EyTUzWtxj++LUrt8Gx9US8gY6OT6pNfpUIJdLUdP+7WWOeO2SS2rCzBVvwChB+a6ubXiTYLKsyOi3Yege5Z5mnXpLY0vWcRW6P3mV5ihxQ/5ghSGV4+lc0SKaX0ck9SPMssIZvd14UeUzUYkk38dR4bvyWEQ2imChtnqUgniyqZyd5N5TDKYANu/uk+8LBjxg42k5JCMb6Vio19PS3LntCuERN1fxNrQBNF/RncXFeHJ81olo0SHWZaypL0vOiejaTf08OKCfqMe8miLcx+BQI9TZLRChcIpqTqGsRaqajO5ixiF0b3t/6HsAlUjOL1hz25aEnNNdSWgjAHYej9I+vM0T17CTPwOOegJKZk+/xBKm+hkH32ymRLGL91CVJp6+qbdY/BApdgVs3n6y5UBI9+aQ0TonOGb5aCACdHHH3GdDoT6J6dpNn4FpPQMm0ud5NEBt0mjIFZ2I8lqiPfDsbYxPnb6olUFM2ulbRYXBd+6wRwltw9PjVqPwIA1dZJZe8xUF8huxXM13JdhNE/4c3HNQLp5XlzbFVDDNflaxvzWrVztaT9iwn5fqwKcvcfkikNxcq6YuAVNc25ZCjpiHTim4vglQ01rQScYlNRvcfTwb+5XZj4qqaiF52VfiaMG/reMlmfQw1lk5bPntoVkcAMgSJepYAfK4wWPZTeEkOKLv75exFEF84+BMG7rBfTtlEzOFkqDXrRYnJ87YeqxI3A2zxj2W0ys00Y9nsoR9mg5Kuk47LV2taaZ4a7AWTX8kB5fpd/39vgjTW+Jm45B+ju5Jn4JrOUOSBbG8cfc/WCvfWB0H8nWxt5FWP6ZGz1aHfa2ggLVs/m5aifIgkv0xkvwLn2eRMhMvdfmVhrwQ54+kLRvRslf8BglCfumwCsYYOfwzwxGRocU4NYHbOS2YCGGaNvLAFGi/I5iPgvvErUc/PAc7qCLNFsBAKgzWM8UxWdhch3OsJoluqCAd/R0BWqzxCkVhHuDUZigRzDWfnthSdJJfkaitH/Sc5jQXtc4a/maMdKFH3aQDph+n2u09ytW1R/XflgPK1PWPbL3FfuKaawRGLJpCfsJjnJutbhbdc9BaMvgtYIsxkUEGLORP4VY2xoH32CNPGTo25I8wk/LU9P4NUCKt0uxxIzeqXIBUPXS3TwRv0cvZfLERIlvFhIkkycxN5041guhxE+W0LwPweiH93tjLirlzmGvuOQ2qZfClJeNwy41OAQNwu+GiislcRvF4fnRXh4D2Ekj1K2TfUJpJkl5PAvK3jNWK/PtcBoP/JtQe7PuFuB6hdYopFc1i67QuIDS/goIM8st651k69K3OlUJscUPbbgNkrQXyDbDVrL2TzQJJd9qfcy0NSm7dOYo3PAOEYJhxDzMcCdEwvrd96AP6IiT4kxkdgfEQSvewZPrRtyXXUk+vd0J++EvM0gLlEa131njkzrvFMUvZb0exz8uUNB/XjlKfmcyAsazuPJOkr5x39SdLH6j9XyPWhSAs0M3HMHKUlvAzCUDPtWtkWEf6zXVK+Nnwi1u0bZ58EqWiqvpWYcm5MY2Vg+o2NuCFZ1zrXtvFnGXgqKj9JwMVZqttSjYBH3QHlyt6C75MgvnC1j0EdtszYpKD12qyulHZzx7cWbzDJpKXNqG2eIBO3WDrIPARH0Ka5A+leC+b1u77tbapZDuZv5CEmO5l8XSLc3FEXWWqnoEVj5UXwqIfKL5Zir8H+sGBgtSeg9LkY0S9BfE01NzDzAlGwS1GeiW/prGudV4q5ZeY9y9w3QaI7SzW/vvOiW+VAqs8FiX4JUhmu+4oGtaTPqgveEE9r0G5+LbT4XUE9S4tzfMgJqqbpB6Hs2u04a3z33VpieJK+S9DbGPwtCFdkHUHJKfJaQLq17KAtC5dMXZLX5dZCQafG5IeZYc0Nl3kFgZ6TA6l+K/kPuMfG21R9Brj0j1lmMQ7vgnihR+aFK6sX6wfNbHmpMdcUZukFWwafY9Aa0zeHTEo93Z+ZAQmiK5dYF6ocYd3vIbwWpC10qbRw1cXZHcAyOSAhc0pUju/8wi+kZ3dhAv3RHUhNGSgPYwR5avokSNKygYwN8p9vAWOhRvxkts17Co1fqk3+ARHuLbRfK/gjphr3pNSAGzsNESTzFGmsfhpEF1ghOavHQMD7DKwgwvLt6vbnV1/8vOlNZiqenTaUN7nHk8s1prOu5W5RTLYtOeDzspx+kYHjRHVtL0+IyX4lYCQP4wRZNOMCaFq/72tGHA5KGaI/EfPzJEkvKkp67cFHffKv5ROXqyJYjFs042vptDYehHEMVIAxhggSGGOT9RHhKutKVL4Hg3FDauZwC9W7A6mwEfwNEyTzFGmqWQbmSUYMOzL9I0CELmasBdG/WOO1BF5LEh3CGg6FRIdA0w4F0SFEOJQZhwJw72+R70mGWn8kirUSdU8ESJ97DMZrhRxQDH/8FiNIuCYEcONgRNVyORM2bByx9ei/ZbHUrEQ9zwF8nuVyKkBATLjM41eeMOpKiCCZp0g4qH9QOsOoA0cuPwgQ4+pEfeQRUetqVL6Sgf8R1SsR+VfkgHK6SC7iBGkKXgEu4VYJIugVSZaAlxKhyO7aTUbD4HYcoWpyOxiZwsyD7WLGlZ5JyqMieQsTZOdcxNnEKIKy2bLEZybrWoU7EyttnjtA/BOzw7GDPWYkPZMUn2isWRFkUJ84FEXYbHnGw8n6yHdFze6sULKi98m+qDX7yTPwbU9AEe4PkxVBdHgqwsE7CBiUv42KeHtsU4ekj3pj+h82isagxuRFzKXdtqAvTAh42B1QhH+p6PayJ8hD04bSwR6975/wY0t0cB35HQgQcH0iFPmVKB5q3HMRa/x7Ub2SkCe87VYVP52DrPbLZU0QHTxfU3AaM54pCSAtngQROhN1Ea9omNyOkWo6s99qjKhuKcgTaLo7kPpDtrnkRJCdr1qDs0RQtohnq6dpk5MXLW4TVVei7lsAulVUrzTk6S45kPpxLrnkTJDK1umHaT3SiyCMziUQR7dfBJ5IhiKXiWKUisljifUaWjhIVLcE5Fe6U0oVTUVOZ3ZyJkjmVauxuo6JDO1tKQHgC55CmpWjX69/Zq2o41Sb/BgRhIkl6seS8mn2y+eoOW+nMYUgmVetxuDDRIPxVFp+bw8Cbk6EIsJnxQdrhZLMaDDfIk9STakfYBpBfI0XHsvk1le1BldN3/zy491kKLJXtXEj7nglDlS3yW3gwbgliJbIgdRUIzgZkTGNIJlXraeCl7AEwxvBjAQ4qGUkvjBZ2yq8SqjE3DPBdNdgw46ATzUicjXQAAAH60lEQVQJfk+V0mlW7qYSZMd8pOY2Jp5tVoCD2E4kGYrUiObfE/V8TQLr796jRHXtLk/AVe6AklVz1r5yN50guiNvU00zmIUH1+4DZGb8DPfxnaGmNaI21Tb5ASZ8T1TP/vJ0hxxI/dTsPPJCkB0kCb4FxslmBzwY7DHxbZ11rXNEc1XbXOcxSb2W0BS1ZSd5Bpo8ASWUj5jzRpCx4elflSDpbcDkfAResjYZ/0zWRz4vmh8zSI3JennUwXbiMyEHlEpRvIzK540gmflIU7CWGU1Gg3HkdASoPhlqEf6mlI7J39cY9w0qDBmfuN3KCTQRH+cr77wSxJm0Cw/bkmQoIrxEydEDvqggHSXgC8Ieba3Ap8sB9ZV8ppB3gmTmI+GgvlnswnwmUgq2WZVO6bykebVoLqk2+RdEEC7eIOrHSvLE+JZ7kpL3HooFIchOkugrMs5HxD7uMgbf3Rlq1dtIC11K1B0ASHgTo5ATqwkTzZP9qYI0dyoYQXaSRN845rEa3sWORy8BlHj35CPR0KA36BS6lDb3oCroR0CTO08rVr0BX1CC7CTJBwAyvficawcCBLoiEWr5nSgeqTb5O0R4WFTPtvJMz8uTUucXMv6CE0RPzhcOJjPVAZ1LR2B5MhTR20MLXRw78GiVVX1Zd1AcM2DgN56Acq0QSCYIF4UgO58kzwMQXrExIWdrmZCkccnaZuFekErUczvAN1srmXxFwzfJAfXn+bLen92iEWQHSaofBejyYiRuBZ8M+k1nqEX4t6LS5j4TRNFeeqtbIS1TY2ANl3kmG6+EaKrzXIo2mBWIN1zzS4CvN8uejexsTqWGHvHWZU9sEY1ZjcqNDORla4VoLPmUN9qiIK8x5NO4UdsVjcG7iCC8xGnUviXlGN9P1kfuF41NjcmXMiPv6/+icZktT6RNdfvTS8y2K2qvqK9YewZb0Vh9OxENjndq5o5kfes40cHiKA5TWP4jEYSrm4j6Kpo8oxsuniFXqXpL6qJfliGIjkRFODiXAOFdrEVHUTQAponJ+hb99KXQpUTdcwCaK6RkI2EG/grgEk9ASVglbEsRRAclcyrRhZ+DcaRVQDIzDgYWdoYiwgsTqajsI0Bf1j3EzHgsZCvqluh6qkq9Y6GYsq+smM8kvOHpJwGSvqw3YJPFfMZhum2GlnZJR7xe29wtajsVlRcS8C1RPVvIE+5xVyk3EEF4J0G+87PcE2SveUmJ1f8lphsT9S0LRAe1p81TKxGX3LGBzBlyDTM9kxXL9iuxNEEyr1w7am7pTxO7N5t8OxmKCJ+w5HYMV9Oy/lFVuB+IKBELLL+SGTd4JimvFtivkDvLE0TPxrtoxgnQNL1KxzSh7CwlTFOToRbhZUsl5r4JTMJ1sSyV+j7B6NXWXS7lBpqIzVaOU4/NFgTZBWJFU/WtxFSQbc4mD1xTMhQR/rDX0+Y52UXaEgYdbXI8xTKnSIQbXH7FNicfbUWQzCtXuKaawfor15eKNcqiflmSPtdZ26zvYha61Kj8IANZ9bUQclQY4deR5plmlAMtTLg7vNiOIHrQ456sPkaV6YfE+KHVi0IQ0ZxEXcttooOqxodcwCXSl54Ij7hUZXa2PTpEsTNT3pYE2QXA2EUzKiRN00lyqZmgmGhrTTIUOV7UHrfDrWqe58E8WVTXSvL64SYG3y8H1JesFJdILLYmyK5EvU3BqdjxNLHUDUWgYCLU0ioyILpsOir/UAPuEdWzijwRLYGWvt89Ka2vvtn6KgmC7BoBX7jmcma+HoRTLDAqzyZDkQtE4+AXh3xZSWkvEEH4ySPqy2x5BlZKRL92+1ONZtsulr2SIogO4mmLZhyoqunrWdKfKFS0+rSs4audF0X+Ijqwqaj8KwKuE9Urpjwz3gbh156A8lAx48iH75IjyC6QxjeGPq+Qcj0h8+pV0IuBOztDEeGdydvb3Oe49NcTmyyeMPABMf/aPUz9NZ2ObQUFuUDOSpYgu1+7ngqO1iTUEjItkL+ad1wJ/07WRY7Kxo8SdT8DkB0+hr4J4kY3qwspgPXZ5GoXnZInyO6BaGiQvCe+rZdCrSXi6fkaICJcmqiLPClqPxWTv0eMB0T1CilP4D+kIYWHBFIlty+sLxwHD0H2QKAyPP3rGlEtmGoBUyfD0WQoIlw8emvbAcfJSD8PwkmFvOEN+lrPjEZIaPT4FeHiEgZ9WFZsUBJk12gcf++UISPLDqwFkf76lfurDWNssj7yuuhoK1HPzwDOqV2xqE8D8q8y0Ch7lEY6G8Lb8w3Yt4XIoCbIniNU2Rj0agT9iaIXJhOeqzDwq85QRLj4hLLM/Q0QvQDCUCvcMfrTQpKkRre/51krxFPsGByC9DICFeHqsRLoLAbOYsZZRCgfYKA+3SZJ5e/UNqdEB1SJyouwYwGhWJd+vHWlBnolnXatHHrOtg+LFYgV/ToEMTAqFY3BcQSeAqJvgHAmGO491YhwdaIu8ogBU3uJqDH528wQLjkq6mcf+TcIWAnQSy7NvYImbxXuv56jf1upOwTJYrj2IMy5+s6QZChyhqgZXopy1ZU5CJXvCiVvMmOFBHpxm5JaMWLq4J1PiI6RLu8QJBvUTNBRop65AJtRwYWZsYZAa5h4DYHXEEtr0hrWeD5NraHa0vyAZ8IQGDLhEMQQTOYKcVwep2rI4pQg/wcsrWHmNSTxmjTcaw4IbP+7udE51vZE4P8ApFxiaDU5SwgAAAAASUVORK5CYII=;" vertex="1" parent="1">
          <mxGeometry x="80" y="250" width="30" height="30" as="geometry" />
        </mxCell>
        <mxCell id="gVNQZNhaFQQdqfOZjz-5-18" value="" style="shape=image;imageAspect=0;aspect=fixed;verticalLabelPosition=bottom;verticalAlign=top;image=data:image/png,iVBORw0KGgoAAAANSUhEUgAAAMgAAADICAYAAACtWK6eAAAAAXNSR0IArs4c6QAAIABJREFUeF7tXQl0G9W5/v6RRoEsEBY77N1ooQ1QEktOWJtYSiCBQGM5tszWspT2QUvpIZTShDwHEqAltBRK2V5pWIrl2HLKmiaW5BBKIJbMFiilNO0r0DSxCQ1ktWY0/zujLC+Ll7nSSJqRZ87JIcH/+t35PHPv3Pv/BOfKGwL/qRrzuZTk/jIxjySWRmqSdoj+X0D/N0Yy4RAAIwk0ksGZv+8MZiMIG8HYCGAjARtBvJFBG6HhU/2/TNpGCbQxDemDI2Or/py3JAa5YRrk+ZuSfvekMUdpmms0E06SGKMBGg3wSQANN8XBwEbSAN5m4G1iWk0S3nYhvfrQaOcHA6s6Ev0h4BBE8P74d8A7wcXIkIGYRhMwmoFDBc0USvwznTgEWs2svZ2W8PaR0eTyQjkvBT8OQQYYxU8CFQcrLJ1PwPlgnAfCCDsPvP66xsDTzPS01CNHy15+eZOd88l37A5BekF4g3/c11Tw+WCeTAR/vgehmPaZ8AyYXyDJFS9vW/V+MWOxom+HIDtHpds/biJDm0RAgAGfFQerADG9RECUSYqXR1f9qQD+LO9iUBNkbWDsV93svgTgGgBfsfxoFTbA90DcQiw9Xhbr+GthXVvH26AkiD7RdrOkE+NSBjzWGQ7rRcLANon4MY2lx0fFOl6xXoT5jWhQEaTL76vTSQHQefmFtUStE5o1psePiHU8V6IZ7pdWyRNk43lnHpLa3nMpAP2Pd7AMbD7zZCDuInrs8GjH4/n0YwXbJUuQPeYXOjGOtQLYJRjDm0T0WA/j8WNiHRtKMD+UHEE+CVQcp8J1IzFf7cwvCnbLfgSmX7+jDb174vLlasG8FsBRSRGky++7DsCNAI4pAHaOi30QYKCDmBaUxzuaSwWckiBIV5V3ChHNZKCqVAbG5nmEVYnuPqqtI2nzPOz9irW+quJLErluZPB37T4QpRY/AykC7h7idi84eOkrn9g1P9s+Qdb7fTfQjtepUXYFfzDETYS/QKO7y+Id/2PHfG1HkO4q3zSmDDHOsiPggzjmJRLTgsPjHXE7YWAbgvxjwqkjh7k8dwN8hZ0AdmLdGwEC3VUW6/ixXXCxBUHWT6z8Orn4fjDOsAuwTpz9IrDE46JrRy7r+IfVcbI8QdYFvBdKTPoX24OsDqYTnxACH4LpBqsvCVuaIOv8vh9KwD1CsDvCtkKAgVtHxRL/bdWgLUuQrkDlfWD+vlWBc+IyFYFIeSyhHzmw3GU5gnSfU3Gkpkpt+llvy6HlBJRPBN7TXD0VRyx7a0s+nYjathRBNgTGjU+zNujOHIgOWinLk4QJZW2JF62So2UI0lVVeROI77QKME4cxUOAgZmjYom7ixfB/3u2BEG6/L4lAM61AiBODNZAgJnnjoonG4odTdEJ0hWoXKpXDyk2EI5/6yFgBZIUlSDdft8zDEyz3tA4EVkFgWKTpGgE6fL7WgAErTIQThzWRaCYJCkKQdZX+X5PhIusOyROZFZDgJgbyuLJuYWOq+AE6aryPQrC5YVO1PFnfwSKQZKCEmR9wPsAMX3P/kPlZFAsBAr9ulUwgnQHfL9kxvXFAtbxWzoIFJIkBSFIV8B3Jxg3lc4QOZkUG4FCkSTvBOn2++YyMKfYgDr+Sw+BQmxLyTtB1gd81cSIlN7wOBlZAYEDQIcflMeidXkniA5il9/XDmCCFQB1Yig5BP5eHkt8KV9ZFYQg6wIVJ0ssvZWvJBy7gx0B/m15LHlVPlAoCEH0wNcHfA8T4zv5SMKx6SDAhGtGRRMPmI1EwQjCU6YM6U59vN3sBBx7DgK7EWCeWh5P6jvDTbsKRhA94u6A90Zm+rlp0TuGHAT2RkBJQzrVzL7xBSXIzgn7h05xaee+ziMCy9Wh2nlHPdu51QwfBSfI+qrK6UTcakbwjg0HgT4QWFgeS5iy36/gBNnxFPHGAZroDK+DQL4QMOtLe1EIsm6C9yTJRavzBY5j10EAwBZIOLO8LfFGLmjkTBDfounnJmoX/1E0iPV+30MEXC2q58g7CBhFgBlPjYonLjYq35tcTgTxhmtCAF+fDEXGiwbRPmGCe7RriyKq58g7CAghwFSbS3nTHAkSfBfAiQS+NhFq/Y1Q4JllX99MZtwlqufIOwgYRYCARFksUWlUfl+5rAlSEQ7+hIA7dINE6NpK0pfeqW3eLBpIt9/3TwaOE9Vz5B0EDCPANLs83jHfsPweglkRpHLRjC9omvZnAAfsssWEBZ11Eb2xjdD1cWDchRprfxBScoQdBMQQ+LQsPexwyqIDb1YE8TYFHwBjv6OzLEmndNY2C69Orff7YuQ04BQbckdaEAF6tDzWcaWgkngTz7FPTa+SJCnWh6PWZCgiXMrn48kVJ2ppSZ/POJeDQN4QINAJZbGOv4o4EH6CeJtqloC5nzKh9M1kqOVpkSB02fX+ygfJ6VYrCpsjL4bA8vJYQugDtRBBvI3VV4JooG6lrydDkbFice+Q7vL7OBs9R8dBQACBKeWxhOHvdoYJcurib45097j01gQnDhwM/SgZahHuDNXt993AwIKB7dtfgoAUgO0ao4cI+jGA7bz777QdYNX+WVozA5GniGGCeMPBeQBmGUz5U9Y8x3de1PixQfndYt3+yv9l8OdE9awtz++C9a019JoEJLhHTpS9/PIma8fsRKcjYIgg3pbgGKhYueey7sDw8X3JUOt1A8vtLdHtrzyfwc+K6llMfgkR4hpoNUvu149YtrLLYvE54RhEwBBBfOGaBQy+waDN3WISw9dRH0mK6nX7fW0MBET1iiy/BERL4HItKV/6yt+KHIvj3iQEBiRIZu6Rcq0G4xhRnwQ8lwhFhNsbdJ1z2vFQ1fdF/RVDnoBnAXq4LNbxXDH8Oz7zi8CABPGGa74L8IPZhsGg2s5QS7OovuXr+BItI8Z9DjFER9Ze8gYIEsypphUDf+4MRbLqWGvRZd81xLSgLN6R9S8Ne90igzvafgnia6zxM3E0V4iY6Sed9S0/E7XTHfD+iJl+IaqXL3kiLNBYWjAqtmp9vnw4dq2FQL8EqWgMPkxkSi2rbS6Zv7Iq2PqRaPpdft8/AHxeVM9MeQa/BeYbR8U7l5lp17FlfQT6JEjFohnHkcarAT7InDTooWSoRbg3SFeVdwqIXjAnBnErRPSExnSj89QQx64UNPokiDcc1Leum1vDivjMZF3ry6LAdfl9+m/uSaJ6ucoz48ZR8cSg+LKfK1alqt8nQXxNNUlmrjA1cea2ZH2rcMvndZMrvyCl+e+mxjKAMQJNc1aoCom4NX31SpCKpuA3ibE4HyGThksTF0WeFLXd5ffdD+AaUb1s5EmTvGXtqzqz0c1W56zbN5XJnD5W11fI9eFLPx3Rna2tbPSUNvegr74vT1KX74tdrwTxNgbDINRlA7QBnb9tk6TR79Q265v1hK5CLPuSWzuqbGnnv4UCMyg8o4E9n7i2VDHhGyAcw4RjiPlYgPSPsEP2MdMD8EdM9CExPgLjI2K8eGh6WLy5gYSxMxKiEvPcBeaZRmRLT4Z/KgfUzBHyPa/9COJrvPBYJvcH+QSAiOYk6lpuE/XRFaj8AZjvFdUzKl8eSwz4XciorV1yVfO3jCXWzmSiAAhTwXCJ2thnxNJgvEDMUSbpT/FZw17Lyd4+ympMfoQZeWklYGac5tui5+RAar9dH70QpLqOicLmB7CXRU1N48Q3Lo4Ibyfp8vv0ucgXzI6PJL6wrC35jBl2GxpYWiFvuhGQvgXgq2bY7MfGu4D22NnKiLsaGkgzw5cadTczqMYMW3axQcAGRXF5D5yy/X/7fYJUhIP3EPDDfCfGwMLOUES4fuoGv3dSGmTu9wjCz8qjiZ+YkfPEeZuCEmEmg4RrheXin8CvaowF7bNH5Nzujv+EEep2Wa+fbLcNo7lACGZc4Zmk/K5fgnjDwQ4Avpw8GVQmpkCivqWv8+19WukKeJeCSXg1rA+Dj5XHEt82GHKfYhNv3fx1ckF/f78kV1s56j/JaSxonzP8zVzsbI0deLTMqk6SrGtK5eK/GLpEeMTtV/aq9rnXK9aYxguOcpH8r4IFR/Risq5FePVkw2Tfsek0zJgnveYmrerQaOenueRcddumBkikk2NYLnZM1N0CjRfEbxnRkItNbvecmE7zHxkosQNsvaPCwDuegHJSn0+QnaVEG3MBVViXcGWyLvKoqF5XlfdeEP1AVG8veY3PK29PZv2VfsYidm14f3MzQNNziiNvyrz4sC8Pn9FcS+lsXagx+SpmPJKtvt303BK8VKXsXuLf6wlSEa65n8AF+dawB3AfutQDTlp1ye8/EwUzt2Vfur081mH0CPF+oQVu3Xyy5qLFAOetw6ooHr3L0xopzdOjc4YL1yvbZU+JyosAzDAnHotbIb5Z9qt37opyL4J4w8HXAZxahBTmJ0OR2aJ+1/t91xCgf0AUvVaUHfr5Kmpuzuo368T5m2oJ1CTqtJjyDK5rnzVCv9GFL456TlHBKwAcLKxsP4WoHFB2b2vaTZAxi2aUuTStaGenc6jKuIaALwqOg1Dplz1t75xv/LegP2uIazw323mJ0uaeCaLSLzTO2OoOKCOIkFky300Qb1MwCEZLsUaSgKcSoYhwL4d1VZVVErHAShg/Xh5L6t8nhK8J87aOl0jTSx/Z9tJYOm357KGvZpOAGvMsZWazVg+zCaEwOsznypPUpXsTJFx9L5DjpDfH8DXQtNdCLcJnu7v8Pn2iPWUg90RIQdNOK4t3Cn99njxv67EqaWasnA0UZt5/7mbpuGWzh+rNVIUuJeY+G0wvCinZU/huOaBkttzsfoJUhINvEPD1YuZDwKuJUOQ00Ri6z6k4klVp7UB6zFgwKp4QrkC/48v41pUAjxvIhz1+TqvOVoaens2X91RM/j0xLrJHnllH2SEHlMxYZwhy2qIZByqaZkrb3KxD2qlIoGsToRbhZjzrqyp/QcQ/6tM/oTulSmOPWb5K+FRj1bwtD4P4O7nmZil9pkfis4cJt8BT21znMUnCT3lL5T5wMJ/JASWzIJEhyNiW4CmSipy+vA7s06gErXdpqa+vuugZ4XPf/S37EvGDZdHkfxmNYpecrSflAyZLDfFZw+YOKLaPgBKVXwJwpqieneTdmnw0Td66NkMQb2N1DYiES/PkMeG7kqHIj0Xtdwd8VzPjod70JMKkw6MJoQIUO7eP6CcgrfKFXBSS/uUZn2gu97jlNx8gVOgu1Sb/FxGEn/LmBp9na8R+2a/GMwTxNVXfzEy359mlkHkCVyZCrQkhJb1CfJX3fRAdv6ceA6+OiiWE5zZV8zc/YYG9VaIQCMrzffFZI4RKxHIbDlZIfotKuHWeBFzrCii/2fEECVc/CpDwzlrBkRAVjyRDEeEt111VvrNB2GulJZuz5fquXCIq2rK3KFi5yHM6Pb59zsGrRGwoMc8dYDZlB7SI30LJEuE+t1+5bgdBmmpeArP13imZZyTrW4Vv0m6/7xkGdh9+Ee0spK9avSRvfrnQW9YLNfj7+mHG79tnDxfahdzT5jlZIn6rWDEXwG+bHFAm73yC1KwDeFQBnIq6eC0ZiggXjlg3+fRyKa3smuQLdxWqmv/ZTYC0ez+OaND2lKep8VnDlojErkRl/RXYK6JjF1kCPnQHlOOoYtGMg0nTNlo1cNZ4ZudFrXeLxtftr/w5g28kYE5ZLCF0vLdq3qa/gOgEUZ92ls/mKZKKyg8S8F07591f7O60MpwqG4NejSA8GS4gKBvTaT719Ytb/ynqU1/2ZcYZo+IJvbeJoSswb+t4zebbSQwlut97Fj4Zpn527LMNRxn+HpaKyVdRCW+FZ33ru7cpWA/GU1mBWiAlItybqIsIHwPuCnivKI8mhc6aVM3fMgtgvZvWoLsIXB+bNcJwPYKepZ4TJReXbHdiAl1CvnBwDgPCH4sKffcQ8TcSda36luu8XlXzN+vfSvx5dWJR49m8ZqlR+Z9cqsu9RPP0J8gT4KKfox74liE8m6yLXDCwYPYSU+7lIT2btuivGFL2VmysyfgkPnv4YSIZlHIFFAK3kDcc1L8ZnC0CSrFkiXBpok68KqPReP23bzmf2fb9EY2m26scAZNjs4a3GTWSisr6t4JfGZW3mdxL5G2sXgki4a/MRUr0HVmSfK/UNm/Lh/+qeZvvAKFkP34ZwoxxZ3z28JsNyeplUtvcZ4JI35tViter+hPEbmvZs5OhyPx8jMbg2FoyIHJPxmcNv3RAqZ0CHPeMVjV+26i8reQIneRtDL4Jwik2CnwbJGlMsrb5PbNjnnj75nZiCJchMjuOYtpjwvL2nw6faDSGnfWzhI8QGLVfZLm39CfInwtQHtPUPPUyNJ31EeGzDAMFUTV/098AsniVkoGyyPXnvCY+a8Remz37s8hJDFU3ylty9WpFfWb8RSeIXh/XMCBWSYRB53SGWkwtQVo1f/P2XqqsWyXlQsXRE581/AARZ0qb3AOCR0THDrIMrNEJohfrtWPlvGXJUOQcs4De0Z+DilbVxaw8zLCjEJeL9CdRo/I6Bqy4ly8nOAj4QJ+DrAXhyJwsFUlZY1z9Wn3ElKp/VfM3jgXcBW2aUyTYDLhVK+KzRhoubKFE5b8AKLm9awT6N3nDNd0AH24ANSuK/K0nPaRy9cVP/SfX4ByC7ImgMEH0UkgFrWaf63gb0SfCx/orlr6T17YV84hpXqK+5RYjCfcn47xi/T86oq9YSlROAhA+lpDrmOVdn/GZThB9a8WBeXeWPwdpSqe9iYv/8EauLpxJegZB4Um6GnX/i0FH5Yq/BfW36QRRALgtGJxISE8kQ5HLRBR6k3WWeXVUxJZ5dQ0lKnOu2FtUX9U3K24H79dA0qLx9hOWxBcma1tzaqHmfCgERD8U8gocqabkAYv22e+GykS8XX+CrIF48Wfr5ZtlM549E3G2mmTQENpqkorLFaRBn4OU4vWefh5kBQNnlUJ2DL6uM9R6X7a5OJsV9Tcssc2KatR1PkN6NlvMLa3HtIy84epGgEKWDtR4cB+wzOM7g61Z9Tn337b5XJYgVLjAeGj2kNQ0nrj8lhHLjUabispXE3ov1mfUhlXl9C1NVBGuXkCgG6wapGhcTFjQWRcRLlCt+5nRwJ4Nni1bc+5lLhq0ReQZ6G6fNbxcJJyeNneDRGTPfikDJsqz9C/pPwLhFwPK2khAA5/2Wqg1qx4YVfM36xP9/RrK2yj9rENl8G/aZ424VsRAKdfpzZxJrwjXzCBwVq25RIAspCwBzYlQpDYbn/55m65jolI9IdcvJEQ0LfbTYYYrt3M7RqppOeddDNmMU0F0mM8iX2PN6UysF2guqYsIdYm6iDDxq+ZvGQvwoNuTpb9esTLsuOUNpO9oNnT1RD3flMCLDQnbUEhJu4+jMZHqz7kU0nf0ltbF3PEFl+v05lrxRp1V8zfb7oxMroNHoMdjs4YJtaZTYvI9YAiXY8o11gLpp+WA4qYJ7RPcm9cfpn9NL8Xrx8lQRLjxpFN61NitoMTkt8EYbUzaXlIE/N0dUL60q7r7OoBKbj8/wOspTacnLo78XWR4nOLVA6OVWiafShL0tuGlerXLAaVqJ0GC+jv32JLMlHF/sj7yfdHcnPYH/SOWapOvJ8IvRXG1izwDCz0B5fIdDXQagwuZIPT+aZdEM3EyTUzWtxj++LUrt8Gx9US8gY6OT6pNfpUIJdLUdP+7WWOeO2SS2rCzBVvwChB+a6ubXiTYLKsyOi3Yege5Z5mnXpLY0vWcRW6P3mV5ihxQ/5ghSGV4+lc0SKaX0ck9SPMssIZvd14UeUzUYkk38dR4bvyWEQ2imChtnqUgniyqZyd5N5TDKYANu/uk+8LBjxg42k5JCMb6Vio19PS3LntCuERN1fxNrQBNF/RncXFeHJ81olo0SHWZaypL0vOiejaTf08OKCfqMe8miLcx+BQI9TZLRChcIpqTqGsRaqajO5ixiF0b3t/6HsAlUjOL1hz25aEnNNdSWgjAHYej9I+vM0T17CTPwOOegJKZk+/xBKm+hkH32ymRLGL91CVJp6+qbdY/BApdgVs3n6y5UBI9+aQ0TonOGb5aCACdHHH3GdDoT6J6dpNn4FpPQMm0ud5NEBt0mjIFZ2I8lqiPfDsbYxPnb6olUFM2ulbRYXBd+6wRwltw9PjVqPwIA1dZJZe8xUF8huxXM13JdhNE/4c3HNQLp5XlzbFVDDNflaxvzWrVztaT9iwn5fqwKcvcfkikNxcq6YuAVNc25ZCjpiHTim4vglQ01rQScYlNRvcfTwb+5XZj4qqaiF52VfiaMG/reMlmfQw1lk5bPntoVkcAMgSJepYAfK4wWPZTeEkOKLv75exFEF84+BMG7rBfTtlEzOFkqDXrRYnJ87YeqxI3A2zxj2W0ys00Y9nsoR9mg5Kuk47LV2taaZ4a7AWTX8kB5fpd/39vgjTW+Jm45B+ju5Jn4JrOUOSBbG8cfc/WCvfWB0H8nWxt5FWP6ZGz1aHfa2ggLVs/m5aifIgkv0xkvwLn2eRMhMvdfmVhrwQ54+kLRvRslf8BglCfumwCsYYOfwzwxGRocU4NYHbOS2YCGGaNvLAFGi/I5iPgvvErUc/PAc7qCLNFsBAKgzWM8UxWdhch3OsJoluqCAd/R0BWqzxCkVhHuDUZigRzDWfnthSdJJfkaitH/Sc5jQXtc4a/maMdKFH3aQDph+n2u09ytW1R/XflgPK1PWPbL3FfuKaawRGLJpCfsJjnJutbhbdc9BaMvgtYIsxkUEGLORP4VY2xoH32CNPGTo25I8wk/LU9P4NUCKt0uxxIzeqXIBUPXS3TwRv0cvZfLERIlvFhIkkycxN5041guhxE+W0LwPweiH93tjLirlzmGvuOQ2qZfClJeNwy41OAQNwu+GiislcRvF4fnRXh4D2Ekj1K2TfUJpJkl5PAvK3jNWK/PtcBoP/JtQe7PuFuB6hdYopFc1i67QuIDS/goIM8st651k69K3OlUJscUPbbgNkrQXyDbDVrL2TzQJJd9qfcy0NSm7dOYo3PAOEYJhxDzMcCdEwvrd96AP6IiT4kxkdgfEQSvewZPrRtyXXUk+vd0J++EvM0gLlEa131njkzrvFMUvZb0exz8uUNB/XjlKfmcyAsazuPJOkr5x39SdLH6j9XyPWhSAs0M3HMHKUlvAzCUDPtWtkWEf6zXVK+Nnwi1u0bZ58EqWiqvpWYcm5MY2Vg+o2NuCFZ1zrXtvFnGXgqKj9JwMVZqttSjYBH3QHlyt6C75MgvnC1j0EdtszYpKD12qyulHZzx7cWbzDJpKXNqG2eIBO3WDrIPARH0Ka5A+leC+b1u77tbapZDuZv5CEmO5l8XSLc3FEXWWqnoEVj5UXwqIfKL5Zir8H+sGBgtSeg9LkY0S9BfE01NzDzAlGwS1GeiW/prGudV4q5ZeY9y9w3QaI7SzW/vvOiW+VAqs8FiX4JUhmu+4oGtaTPqgveEE9r0G5+LbT4XUE9S4tzfMgJqqbpB6Hs2u04a3z33VpieJK+S9DbGPwtCFdkHUHJKfJaQLq17KAtC5dMXZLX5dZCQafG5IeZYc0Nl3kFgZ6TA6l+K/kPuMfG21R9Brj0j1lmMQ7vgnihR+aFK6sX6wfNbHmpMdcUZukFWwafY9Aa0zeHTEo93Z+ZAQmiK5dYF6ocYd3vIbwWpC10qbRw1cXZHcAyOSAhc0pUju/8wi+kZ3dhAv3RHUhNGSgPYwR5avokSNKygYwN8p9vAWOhRvxkts17Co1fqk3+ARHuLbRfK/gjphr3pNSAGzsNESTzFGmsfhpEF1ghOavHQMD7DKwgwvLt6vbnV1/8vOlNZiqenTaUN7nHk8s1prOu5W5RTLYtOeDzspx+kYHjRHVtL0+IyX4lYCQP4wRZNOMCaFq/72tGHA5KGaI/EfPzJEkvKkp67cFHffKv5ROXqyJYjFs042vptDYehHEMVIAxhggSGGOT9RHhKutKVL4Hg3FDauZwC9W7A6mwEfwNEyTzFGmqWQbmSUYMOzL9I0CELmasBdG/WOO1BF5LEh3CGg6FRIdA0w4F0SFEOJQZhwJw72+R70mGWn8kirUSdU8ESJ97DMZrhRxQDH/8FiNIuCYEcONgRNVyORM2bByx9ei/ZbHUrEQ9zwF8nuVyKkBATLjM41eeMOpKiCCZp0g4qH9QOsOoA0cuPwgQ4+pEfeQRUetqVL6Sgf8R1SsR+VfkgHK6SC7iBGkKXgEu4VYJIugVSZaAlxKhyO7aTUbD4HYcoWpyOxiZwsyD7WLGlZ5JyqMieQsTZOdcxNnEKIKy2bLEZybrWoU7EyttnjtA/BOzw7GDPWYkPZMUn2isWRFkUJ84FEXYbHnGw8n6yHdFze6sULKi98m+qDX7yTPwbU9AEe4PkxVBdHgqwsE7CBiUv42KeHtsU4ekj3pj+h82isagxuRFzKXdtqAvTAh42B1QhH+p6PayJ8hD04bSwR6975/wY0t0cB35HQgQcH0iFPmVKB5q3HMRa/x7Ub2SkCe87VYVP52DrPbLZU0QHTxfU3AaM54pCSAtngQROhN1Ea9omNyOkWo6s99qjKhuKcgTaLo7kPpDtrnkRJCdr1qDs0RQtohnq6dpk5MXLW4TVVei7lsAulVUrzTk6S45kPpxLrnkTJDK1umHaT3SiyCMziUQR7dfBJ5IhiKXiWKUisljifUaWjhIVLcE5Fe6U0oVTUVOZ3ZyJkjmVauxuo6JDO1tKQHgC55CmpWjX69/Zq2o41Sb/BgRhIkl6seS8mn2y+eoOW+nMYUgmVetxuDDRIPxVFp+bw8Cbk6EIsJnxQdrhZLMaDDfIk9STakfYBpBfI0XHsvk1le1BldN3/zy491kKLJXtXEj7nglDlS3yW3gwbgliJbIgdRUIzgZkTGNIJlXraeCl7AEwxvBjAQ4qGUkvjBZ2yq8SqjE3DPBdNdgw46ATzUicjXQAAAH60lEQVQJfk+V0mlW7qYSZMd8pOY2Jp5tVoCD2E4kGYrUiObfE/V8TQLr796jRHXtLk/AVe6AklVz1r5yN50guiNvU00zmIUH1+4DZGb8DPfxnaGmNaI21Tb5ASZ8T1TP/vJ0hxxI/dTsPPJCkB0kCb4FxslmBzwY7DHxbZ11rXNEc1XbXOcxSb2W0BS1ZSd5Bpo8ASWUj5jzRpCx4elflSDpbcDkfAResjYZ/0zWRz4vmh8zSI3JennUwXbiMyEHlEpRvIzK540gmflIU7CWGU1Gg3HkdASoPhlqEf6mlI7J39cY9w0qDBmfuN3KCTQRH+cr77wSxJm0Cw/bkmQoIrxEydEDvqggHSXgC8Ieba3Ap8sB9ZV8ppB3gmTmI+GgvlnswnwmUgq2WZVO6bykebVoLqk2+RdEEC7eIOrHSvLE+JZ7kpL3HooFIchOkugrMs5HxD7uMgbf3Rlq1dtIC11K1B0ASHgTo5ATqwkTzZP9qYI0dyoYQXaSRN845rEa3sWORy8BlHj35CPR0KA36BS6lDb3oCroR0CTO08rVr0BX1CC7CTJBwAyvficawcCBLoiEWr5nSgeqTb5O0R4WFTPtvJMz8uTUucXMv6CE0RPzhcOJjPVAZ1LR2B5MhTR20MLXRw78GiVVX1Zd1AcM2DgN56Acq0QSCYIF4UgO58kzwMQXrExIWdrmZCkccnaZuFekErUczvAN1srmXxFwzfJAfXn+bLen92iEWQHSaofBejyYiRuBZ8M+k1nqEX4t6LS5j4TRNFeeqtbIS1TY2ANl3kmG6+EaKrzXIo2mBWIN1zzS4CvN8uejexsTqWGHvHWZU9sEY1ZjcqNDORla4VoLPmUN9qiIK8x5NO4UdsVjcG7iCC8xGnUviXlGN9P1kfuF41NjcmXMiPv6/+icZktT6RNdfvTS8y2K2qvqK9YewZb0Vh9OxENjndq5o5kfes40cHiKA5TWP4jEYSrm4j6Kpo8oxsuniFXqXpL6qJfliGIjkRFODiXAOFdrEVHUTQAponJ+hb99KXQpUTdcwCaK6RkI2EG/grgEk9ASVglbEsRRAclcyrRhZ+DcaRVQDIzDgYWdoYiwgsTqajsI0Bf1j3EzHgsZCvqluh6qkq9Y6GYsq+smM8kvOHpJwGSvqw3YJPFfMZhum2GlnZJR7xe29wtajsVlRcS8C1RPVvIE+5xVyk3EEF4J0G+87PcE2SveUmJ1f8lphsT9S0LRAe1p81TKxGX3LGBzBlyDTM9kxXL9iuxNEEyr1w7am7pTxO7N5t8OxmKCJ+w5HYMV9Oy/lFVuB+IKBELLL+SGTd4JimvFtivkDvLE0TPxrtoxgnQNL1KxzSh7CwlTFOToRbhZUsl5r4JTMJ1sSyV+j7B6NXWXS7lBpqIzVaOU4/NFgTZBWJFU/WtxFSQbc4mD1xTMhQR/rDX0+Y52UXaEgYdbXI8xTKnSIQbXH7FNicfbUWQzCtXuKaawfor15eKNcqiflmSPtdZ26zvYha61Kj8IANZ9bUQclQY4deR5plmlAMtTLg7vNiOIHrQ456sPkaV6YfE+KHVi0IQ0ZxEXcttooOqxodcwCXSl54Ij7hUZXa2PTpEsTNT3pYE2QXA2EUzKiRN00lyqZmgmGhrTTIUOV7UHrfDrWqe58E8WVTXSvL64SYG3y8H1JesFJdILLYmyK5EvU3BqdjxNLHUDUWgYCLU0ioyILpsOir/UAPuEdWzijwRLYGWvt89Ka2vvtn6KgmC7BoBX7jmcma+HoRTLDAqzyZDkQtE4+AXh3xZSWkvEEH4ySPqy2x5BlZKRL92+1ONZtsulr2SIogO4mmLZhyoqunrWdKfKFS0+rSs4audF0X+Ijqwqaj8KwKuE9Urpjwz3gbh156A8lAx48iH75IjyC6QxjeGPq+Qcj0h8+pV0IuBOztDEeGdydvb3Oe49NcTmyyeMPABMf/aPUz9NZ2ObQUFuUDOSpYgu1+7ngqO1iTUEjItkL+ad1wJ/07WRY7Kxo8SdT8DkB0+hr4J4kY3qwspgPXZ5GoXnZInyO6BaGiQvCe+rZdCrSXi6fkaICJcmqiLPClqPxWTv0eMB0T1CilP4D+kIYWHBFIlty+sLxwHD0H2QKAyPP3rGlEtmGoBUyfD0WQoIlw8emvbAcfJSD8PwkmFvOEN+lrPjEZIaPT4FeHiEgZ9WFZsUBJk12gcf++UISPLDqwFkf76lfurDWNssj7yuuhoK1HPzwDOqV2xqE8D8q8y0Ch7lEY6G8Lb8w3Yt4XIoCbIniNU2Rj0agT9iaIXJhOeqzDwq85QRLj4hLLM/Q0QvQDCUCvcMfrTQpKkRre/51krxFPsGByC9DICFeHqsRLoLAbOYsZZRCgfYKA+3SZJ5e/UNqdEB1SJyouwYwGhWJd+vHWlBnolnXatHHrOtg+LFYgV/ToEMTAqFY3BcQSeAqJvgHAmGO491YhwdaIu8ogBU3uJqDH528wQLjkq6mcf+TcIWAnQSy7NvYImbxXuv56jf1upOwTJYrj2IMy5+s6QZChyhqgZXopy1ZU5CJXvCiVvMmOFBHpxm5JaMWLq4J1PiI6RLu8QJBvUTNBRop65AJtRwYWZsYZAa5h4DYHXEEtr0hrWeD5NraHa0vyAZ8IQGDLhEMQQTOYKcVwep2rI4pQg/wcsrWHmNSTxmjTcaw4IbP+7udE51vZE4P8ApFxiaDU5SwgAAAAASUVORK5CYII=;" vertex="1" parent="1">
          <mxGeometry x="200" y="250" width="30" height="30" as="geometry" />
        </mxCell>
        <mxCell id="gVNQZNhaFQQdqfOZjz-5-20" value="" style="endArrow=classic;html=1;rounded=0;" edge="1" parent="1">
          <mxGeometry width="50" height="50" relative="1" as="geometry">
            <mxPoint x="223" y="247" as="sourcePoint" />
            <mxPoint x="243" y="187" as="targetPoint" />
          </mxGeometry>
        </mxCell>
        <mxCell id="gVNQZNhaFQQdqfOZjz-5-23" value="" style="endArrow=classic;html=1;rounded=0;" edge="1" parent="1">
          <mxGeometry width="50" height="50" relative="1" as="geometry">
            <mxPoint x="280" y="-65" as="sourcePoint" />
            <mxPoint x="295" y="-110" as="targetPoint" />
          </mxGeometry>
        </mxCell>
        <mxCell id="gVNQZNhaFQQdqfOZjz-5-24" value="" style="endArrow=classic;html=1;rounded=0;exitX=0.38;exitY=-0.054;exitDx=0;exitDy=0;exitPerimeter=0;entryX=0.731;entryY=1.067;entryDx=0;entryDy=0;entryPerimeter=0;strokeColor=#999999;" edge="1" parent="1">
          <mxGeometry width="50" height="50" relative="1" as="geometry">
            <mxPoint x="91.39999999999998" y="246.37999999999988" as="sourcePoint" />
            <mxPoint x="71.93" y="185.01" as="targetPoint" />
          </mxGeometry>
        </mxCell>
        <mxCell id="gVNQZNhaFQQdqfOZjz-5-25" value="" style="endArrow=classic;html=1;rounded=0;exitX=1.028;exitY=0.169;exitDx=0;exitDy=0;exitPerimeter=0;entryX=0.037;entryY=0.919;entryDx=0;entryDy=0;entryPerimeter=0;strokeColor=#999999;" edge="1" parent="1" source="gVNQZNhaFQQdqfOZjz-5-14" target="gVNQZNhaFQQdqfOZjz-5-13">
          <mxGeometry width="50" height="50" relative="1" as="geometry">
            <mxPoint x="88" y="160.9991891891891" as="sourcePoint" />
            <mxPoint x="139" y="121" as="targetPoint" />
          </mxGeometry>
        </mxCell>
        <mxCell id="gVNQZNhaFQQdqfOZjz-5-27" value="" style="endArrow=classic;html=1;rounded=0;strokeColor=#999999;" edge="1" parent="1">
          <mxGeometry width="50" height="50" relative="1" as="geometry">
            <mxPoint x="235" y="185" as="sourcePoint" />
            <mxPoint x="215" y="245" as="targetPoint" />
          </mxGeometry>
        </mxCell>
        <mxCell id="gVNQZNhaFQQdqfOZjz-5-28" value="" style="endArrow=classic;html=1;rounded=0;entryX=1.074;entryY=0.474;entryDx=0;entryDy=0;entryPerimeter=0;exitX=-0.065;exitY=0.483;exitDx=0;exitDy=0;exitPerimeter=0;" edge="1" parent="1">
          <mxGeometry width="50" height="50" relative="1" as="geometry">
            <mxPoint x="197.04999999999995" y="265.49" as="sourcePoint" />
            <mxPoint x="111.21999999999997" y="265.22" as="targetPoint" />
          </mxGeometry>
        </mxCell>
        <mxCell id="gVNQZNhaFQQdqfOZjz-5-30" value="" style="endArrow=classic;html=1;rounded=0;exitX=-0.01;exitY=0.226;exitDx=0;exitDy=0;exitPerimeter=0;entryX=1.009;entryY=0.238;entryDx=0;entryDy=0;entryPerimeter=0;strokeColor=#999999;" edge="1" parent="1">
          <mxGeometry width="50" height="50" relative="1" as="geometry">
            <mxPoint x="111.27000000000004" y="272.1399999999999" as="sourcePoint" />
            <mxPoint x="200.7" y="271.78" as="targetPoint" />
          </mxGeometry>
        </mxCell>
        <mxCell id="gVNQZNhaFQQdqfOZjz-5-31" value="" style="endArrow=classic;html=1;rounded=0;exitX=0.028;exitY=-0.035;exitDx=0;exitDy=0;exitPerimeter=0;strokeColor=#999999;" edge="1" parent="1">
          <mxGeometry width="50" height="50" relative="1" as="geometry">
            <mxPoint x="232.83999999999992" y="152.95000000000005" as="sourcePoint" />
            <mxPoint x="172" y="109" as="targetPoint" />
          </mxGeometry>
        </mxCell>
        <mxCell id="gVNQZNhaFQQdqfOZjz-5-33" value="" style="endArrow=classic;html=1;rounded=0;exitX=1.019;exitY=0.891;exitDx=0;exitDy=0;exitPerimeter=0;entryX=-0.028;entryY=0.104;entryDx=0;entryDy=0;entryPerimeter=0;" edge="1" parent="1" source="gVNQZNhaFQQdqfOZjz-5-13" target="gVNQZNhaFQQdqfOZjz-5-15">
          <mxGeometry width="50" height="50" relative="1" as="geometry">
            <mxPoint x="165.16999999999996" y="116.88000000000011" as="sourcePoint" />
            <mxPoint x="229.97000000000003" y="164.08999999999992" as="targetPoint" />
          </mxGeometry>
        </mxCell>
        <mxCell id="gVNQZNhaFQQdqfOZjz-5-34" value="" style="endArrow=classic;html=1;rounded=0;entryX=0.424;entryY=1.022;entryDx=0;entryDy=0;entryPerimeter=0;exitX=0.824;exitY=-0.017;exitDx=0;exitDy=0;exitPerimeter=0;strokeColor=#999999;" edge="1" parent="1" source="gVNQZNhaFQQdqfOZjz-5-17" target="gVNQZNhaFQQdqfOZjz-5-13">
          <mxGeometry width="50" height="50" relative="1" as="geometry">
            <mxPoint x="100" y="180" as="sourcePoint" />
            <mxPoint x="150" y="130" as="targetPoint" />
          </mxGeometry>
        </mxCell>
        <mxCell id="gVNQZNhaFQQdqfOZjz-5-35" value="" style="endArrow=classic;html=1;rounded=0;entryX=0.63;entryY=-0.06;entryDx=0;entryDy=0;entryPerimeter=0;exitX=0.176;exitY=0.991;exitDx=0;exitDy=0;exitPerimeter=0;" edge="1" parent="1" source="gVNQZNhaFQQdqfOZjz-5-13" target="gVNQZNhaFQQdqfOZjz-5-17">
          <mxGeometry width="50" height="50" relative="1" as="geometry">
            <mxPoint x="148.69" y="119.49000000000001" as="sourcePoint" />
            <mxPoint x="97.71999999999997" y="249.49" as="targetPoint" />
          </mxGeometry>
        </mxCell>
        <mxCell id="gVNQZNhaFQQdqfOZjz-5-36" value="" style="endArrow=classic;html=1;rounded=0;exitX=1.004;exitY=0.213;exitDx=0;exitDy=0;exitPerimeter=0;entryX=0.022;entryY=0.856;entryDx=0;entryDy=0;entryPerimeter=0;" edge="1" parent="1" source="gVNQZNhaFQQdqfOZjz-5-17" target="gVNQZNhaFQQdqfOZjz-5-15">
          <mxGeometry width="50" height="50" relative="1" as="geometry">
            <mxPoint x="180" y="220" as="sourcePoint" />
            <mxPoint x="230" y="170" as="targetPoint" />
          </mxGeometry>
        </mxCell>
        <mxCell id="gVNQZNhaFQQdqfOZjz-5-37" value="" style="endArrow=classic;html=1;rounded=0;exitX=1.004;exitY=0.213;exitDx=0;exitDy=0;exitPerimeter=0;entryX=0.958;entryY=0.004;entryDx=0;entryDy=0;entryPerimeter=0;strokeColor=#999999;" edge="1" parent="1" target="gVNQZNhaFQQdqfOZjz-5-17">
          <mxGeometry width="50" height="50" relative="1" as="geometry">
            <mxPoint x="225.65999999999997" y="172.68000000000006" as="sourcePoint" />
            <mxPoint x="105.12" y="248.38999999999987" as="targetPoint" />
          </mxGeometry>
        </mxCell>
        <mxCell id="gVNQZNhaFQQdqfOZjz-5-38" value="" style="endArrow=classic;html=1;rounded=0;entryX=0.789;entryY=0.967;entryDx=0;entryDy=0;entryPerimeter=0;exitX=0.333;exitY=-0.067;exitDx=0;exitDy=0;exitPerimeter=0;strokeColor=#999999;" edge="1" parent="1" source="gVNQZNhaFQQdqfOZjz-5-18" target="gVNQZNhaFQQdqfOZjz-5-13">
          <mxGeometry width="50" height="50" relative="1" as="geometry">
            <mxPoint x="170" y="220" as="sourcePoint" />
            <mxPoint x="220" y="170" as="targetPoint" />
          </mxGeometry>
        </mxCell>
        <mxCell id="gVNQZNhaFQQdqfOZjz-5-39" value="" style="endArrow=classic;html=1;rounded=0;entryX=0.789;entryY=0.967;entryDx=0;entryDy=0;entryPerimeter=0;exitX=0.333;exitY=-0.067;exitDx=0;exitDy=0;exitPerimeter=0;" edge="1" parent="1">
          <mxGeometry width="50" height="50" relative="1" as="geometry">
            <mxPoint x="158.66999999999996" y="122.00999999999999" as="sourcePoint" />
            <mxPoint x="204.9899999999999" y="250.99" as="targetPoint" />
          </mxGeometry>
        </mxCell>
        <mxCell id="gVNQZNhaFQQdqfOZjz-5-40" value="" style="endArrow=classic;html=1;rounded=0;entryX=-0.018;entryY=0.254;entryDx=0;entryDy=0;entryPerimeter=0;exitX=0.998;exitY=0.847;exitDx=0;exitDy=0;exitPerimeter=0;" edge="1" parent="1" source="gVNQZNhaFQQdqfOZjz-5-14" target="gVNQZNhaFQQdqfOZjz-5-18">
          <mxGeometry width="50" height="50" relative="1" as="geometry">
            <mxPoint x="160" y="220" as="sourcePoint" />
            <mxPoint x="210" y="170" as="targetPoint" />
          </mxGeometry>
        </mxCell>
        <mxCell id="gVNQZNhaFQQdqfOZjz-5-41" value="" style="endArrow=classic;html=1;rounded=0;entryX=-0.018;entryY=0.254;entryDx=0;entryDy=0;entryPerimeter=0;exitX=0.998;exitY=0.847;exitDx=0;exitDy=0;exitPerimeter=0;strokeColor=#999999;" edge="1" parent="1">
          <mxGeometry width="50" height="50" relative="1" as="geometry">
            <mxPoint x="202.45999999999992" y="250.6199999999999" as="sourcePoint" />
            <mxPoint x="82.94" y="173.41000000000008" as="targetPoint" />
          </mxGeometry>
        </mxCell>
        <mxCell id="gVNQZNhaFQQdqfOZjz-5-42" value="" style="endArrow=classic;html=1;rounded=0;entryX=0;entryY=0.381;entryDx=0;entryDy=0;entryPerimeter=0;exitX=1.046;exitY=0.446;exitDx=0;exitDy=0;exitPerimeter=0;" edge="1" parent="1">
          <mxGeometry width="50" height="50" relative="1" as="geometry">
            <mxPoint x="81.38" y="171.37999999999988" as="sourcePoint" />
            <mxPoint x="230" y="169.43000000000006" as="targetPoint" />
          </mxGeometry>
        </mxCell>
        <mxCell id="gVNQZNhaFQQdqfOZjz-5-43" value="" style="endArrow=classic;html=1;rounded=0;entryX=0;entryY=0.381;entryDx=0;entryDy=0;entryPerimeter=0;exitX=1.046;exitY=0.446;exitDx=0;exitDy=0;exitPerimeter=0;strokeColor=#999999;" edge="1" parent="1">
          <mxGeometry width="50" height="50" relative="1" as="geometry">
            <mxPoint x="229" y="163.43000000000006" as="sourcePoint" />
            <mxPoint x="80.38" y="165.37999999999988" as="targetPoint" />
          </mxGeometry>
        </mxCell>
        <mxCell id="gVNQZNhaFQQdqfOZjz-5-44" value="" style="endArrow=classic;html=1;rounded=0;exitX=1.028;exitY=0.169;exitDx=0;exitDy=0;exitPerimeter=0;entryX=0.037;entryY=0.919;entryDx=0;entryDy=0;entryPerimeter=0;" edge="1" parent="1">
          <mxGeometry width="50" height="50" relative="1" as="geometry">
            <mxPoint x="137.11" y="112.57000000000016" as="sourcePoint" />
            <mxPoint x="76.83999999999997" y="155.07000000000016" as="targetPoint" />
          </mxGeometry>
        </mxCell>
        <mxCell id="gVNQZNhaFQQdqfOZjz-5-45" value="" style="endArrow=classic;html=1;rounded=0;exitX=0.38;exitY=-0.054;exitDx=0;exitDy=0;exitPerimeter=0;entryX=0.731;entryY=1.067;entryDx=0;entryDy=0;entryPerimeter=0;" edge="1" parent="1">
          <mxGeometry width="50" height="50" relative="1" as="geometry">
            <mxPoint x="65.93" y="188.01" as="sourcePoint" />
            <mxPoint x="85.39999999999998" y="249.37999999999988" as="targetPoint" />
          </mxGeometry>
        </mxCell>
        <mxCell id="gVNQZNhaFQQdqfOZjz-5-46" value="Mesh网络结构" style="text;html=1;strokeColor=none;fillColor=none;align=center;verticalAlign=middle;whiteSpace=wrap;rounded=0;" vertex="1" parent="1">
          <mxGeometry x="107.5" y="300" width="95" height="30" as="geometry" />
        </mxCell>
      </root>
    </mxGraphModel>
  </diagram>
</mxfile>
